<?xml version="1.0" encoding="UTF-8"?>
<svg xmlns="http://www.w3.org/2000/svg" viewBox="0 0 2300 2710">
<!-- GNU Free Documentation License -->
<!-- Pangaea continents.svg -->
<!-- Modefid: 2009 @Kieff CC BY-SA 3.0 -->
<!-- 2차 창작: 2024 @iseohyun.com, 정수화, 한글화 -->
  <defs>
    <style type="text/css">
      .str0{
        stroke-width:.033;
      }
      .fnt0{
        font-family:'Noto Sans', sans-serif;
        font-size:80px;
      }
    </style>
  </defs>
  <g id="map" class="str0">
    <path d="m757 29c31-13 65-21 99-22 22 1 44 3 67 5 52 1 100 22 148 39 21 6 42 3 63 5 41 4 83 1 123 13 19 5 37 14 55 23 46 24 98 31 147 47 38 9 76 26 103 56 24 27 49 53 80 71 27 20 53 41 78 64 29 27 56 58 70 96 8 19 15 41 36 49 26 8 49 25 72 40 26 18 52 37 74 60 11 11 20 24 25 39 8 25 24 48 42 67 7 8 16 18 16 30 1 8-5 17-13 18-19-9-37-26-60-23 0 11 0 22 4 32 5 11 15 18 23 26 43 38 82 81 133 110-5-22-31-35-29-59 24-5 48 0 72 0 17 0 34 7 46 20 17 20 25 46 31 72 7 41 16 81 23 121 3 11-3 21-12 27-20 13-50 18-69 1-26-23-51-48-77-71-12-10-17-26-23-41-4-9-4-18-3-28 10-1 20-2 29-5-13-18-31-30-49-44-59-43-127-76-175-132-12-13-18-31-32-42-28-21-64-23-97-22-31 2-65 8-88 31-11 10-16 24-26 34-7 9-16 17-24 26-9 11-4 27-10 40-18 42-56 70-78 110 4 3 7 6 10 8-18 8-38 9-57 12-26 4-52 3-78 3-14 0-28-5-42-5-41-1-79 21-120 20-17 1-35-3-49-13-40-29-97-38-143-17-5 2-10 1-15 2-6 5-9 12-13 19-12 22-34 39-38 65-4 26-1 53-4 79 8 4 16 9 18 18 6 19 7 40 16 59 14 36 44 63 76 83 25 16 54 24 81 35 15 5 29 14 46 13 57-3 115-4 172-1 19 12 34 28 47 45-7 16-14 35-10 53 4 14 14 27 9 42-16 32-41 62-50 97-6 19 0 42 16 55 20 16 44 27 70 29 22 1 42-12 63-8 13 3 27 14 24 29-2 12-15 17-24 22-22 12-46 29-50 55 25 9 51 17 78 20 20 6 29 27 37 44 9 20 26 40 16 63-14 29-31 56-40 87-3 8-1 18 6 24 11 8 25 12 33 24 7 8 2 21 8 30 8 17 25 28 42 36 29 14 58 26 87 40 9 3 11 13 14 20 7 17 12 37 30 44 17 5 33-3 48-11 1 11-1 23 4 33 8 19 17 37 19 58 2 30-6 60-16 89-8 24 12 46 12 70 2 25-9 50-27 66-26 24-53 48-80 72-52 41-113 68-177 84-29 8-55 24-78 43-14 12-32 20-51 23-34 5-68-5-101 2-12 2-23 7-34 11-1 5-2 10-3 16-24 7-48 8-72 12-24 1-48-3-71-5 2-13 8-28-1-40-8-7-19-7-28-11-12-5-24-15-23-29 1-15 11-27 16-41 4-12 2-24 1-36-37 16-80 30-120 17-29-11-56-27-85-40-30-13-64-5-93-20-7-4-21-7-20-18 4-24 14-46 27-66-15 2-33 7-46-3-16-10-17-30-26-44-11-20-33-35-57-34-21 1-44 1-61 14-9 6-3 16 1 23 7 11 22 18 24 32-1 14-16 22-28 24-19 4-41 7-56-6-21-18-36-41-56-60-34-32-65-67-98-99-6-6-14-12-14-21-3-27-4-54-5-81 0-28 5-56-5-83-9-30-32-55-57-73-21-16-41-32-62-48-11-9-26-5-40-7-8-9-11-21-17-32-23-7-51 0-68-20-8-13-4-30-14-42-10-17-31-13-48-15-15 0-23-17-20-30 4-24 17-48 14-73-6-18-11-35-13-54 1-17 27-11 29-27 4-16 4-37-11-48-17-9-38-1-56-8-14-5-28-14-36-28-4-8 5-16 12-18 13-4 27-2 41-3 38-1 75-19 99-48 8-10 4-23 0-34-7-19-16-40-32-53-17-14-38-25-60-25-15 0-27-13-30-28-5-14 10-24 13-37 7-30 13-62 1-92-11-31-42-52-51-84-7-20 4-40 10-58 21-58 47-115 71-172 16-38 35-76 41-117 4-21-1-42 4-63 2-13 11-25 6-38-3-2-6-4-10-5-28-11-55-25-85-31-13-3-30-7-34-22 0-12 11-20 18-30 2-16 1-34 15-45 19-14 37-29 53-46 18-17 44-20 67-20 15 0 19-22 35-19 31 5 63 8 96 8 8 0 14 4 21 7 15-11 28-26 35-43 2-4 4-10 8-12 23-13 52-22 78-13 16 6 27 20 39 31 21 16 48 28 74 21 16-6 33-12 51-12 22-2 42 7 60 17 18 10 32 26 50 34 19 4 39-10 42-28 3-17-1-34-5-51-8-24-18-49-38-65-19-16-47-10-65-27-12-11 0-30-11-42-20-21-51-32-80-31-37 1-75 12-106 34-9 7-24 9-33 0-16-13-18-35-22-54 14-14 28-29 37-46-5-12-17-30-4-41 18-11 40-5 60-5-5-25 12-48 32-62 30-19 63-35 97-48 38-12 76-25 114-38z"/>
    <path d="m804 118c29-16 62-22 94-19 58 5 115 9 173 14 59 6 120-2 179 6 7 2 20 4 19 14-4 13-19 23-17 38 4 15 17 26 31 31 41 2 81 2 122 4 11 20 31 33 53 40 5-8 9-17 13-25 18 3 34 13 49 24 24 16 50 26 78 31 13 2 26 0 40 2 16 9 30 22 45 34 38 33 77 68 96 115 8 21 16 46 38 57 40 13 73 39 106 63 26 20 55 43 65 76 10 27 28 49 47 69 7 8 10 18 9 29-21-9-40-26-63-24-7 5-10 14-9 22 0 16 7 31 19 42 23 20 44 40 66 61 22 22 47 40 73 58 7 5 14 8 21 11 4-27-20-45-31-66 22-1 43 1 65 1 17 0 33 10 43 24 13 19 20 42 24 64 7 37 14 73 21 109 1 7 3 14-1 20-10 13-27 17-42 17-13 0-24-9-33-17-22-20-43-40-64-59-16-14-24-35-27-56 9-1 22 1 27-8 5-8-4-17-9-22-65-60-151-93-210-160-14-15-20-35-38-47-29-22-67-24-101-23-34 2-69 9-95 33-12 11-17 27-28 38-8 10-19 17-25 29-6 12-3 27-10 40-16 34-44 59-66 89-6 8-10 17-12 27-43 7-87 12-130 5-56-15-109 27-165 16-20-3-34-18-51-25-36-16-78-19-115-6 4-15 7-30 14-44 4-9 12-16 16-25 1-14 0-30-10-41-8-7-20-6-30-7-16 0-32-4-43-16-11-11-13-26-17-40-12 3-28 5-32 19-1 15 4 30 9 44 19 49 36 101 38 154-9-10-12-22-19-33-11-20-29-37-50-45-13-5-29-11-32-26-2-14 7-28 8-42 5-28-13-53-7-80 2-19 17-35 36-39 18-4 37-6 56-8 0 10-8 22 2 30 6 8 18 4 26 3 29-5 62-5 83-29-22-4-43-12-60-28-13-14-3-35-5-52-31 2-61-5-91-11-15-3-28-10-40-18 4-5 10-10 10-17 0-10-4-18-7-28 29 22 55 49 89 62 14 6 29 5 43 2-5-12-14-24-10-37 9-13 29-16 36-32 2-11-7-20-15-25-23-12-50-10-74-6 0-7 1-16-4-22-7-8-17-12-27-16-36-13-73-21-111-25-12-1-24-4-35-9 19-17 43-29 65-42-2-28-31-37-53-45-13-4-17-18-19-30-2-10-14-12-22-10-28 5-56 13-85 12-14 0-28 1-42-1-12-6-21-16-33-21-33-17-72-12-107-4-22 6-42 16-60 28-7 6-18 5-24-2-9-12-11-27-14-41 14-15 28-30 37-49-1-12-18-26-4-36 14-3 28-1 42-1 10 18 27 31 45 40 16 8 36 7 49-5 12-11 20-25 36-31 30-12 63-7 93-2 43 6 89 9 130-7 12-5 24-11 32-21-10-15-29-8-44-12-17-5-31-18-43-30z" fill="#da70d6"/>
    <path d="m266 565c15-5 31-16 48-11 13 7 12 24 14 37 2 14-10 24-14 35 3 8 12 13 18 19-4 8-11 17-7 27 8 27 37 42 64 41 12-10 16-25 24-38 11 17 19 36 24 55 8 8 18 14 28 21-3 7-6 14-9 20 14 19 41 13 61 21 13 18 25 36 41 52-25 16-50 32-75 48-13 8-23 22-24 37-1 25 13 46 28 65 12 16 29 25 39 42 4 7 7 15 11 22 26-5 52-22 60-49 10-24-2-52 14-74 6-10 19-11 29-10 34 3 69 20 87 50 15 25 29 51 38 79-22 4-49 5-64 24-12 16-2 36 4 53-23 9-47 18-63 37-8 13-12 29-20 42-11 1-24 2-32 11-23 24-38 55-59 82-10 12-23 20-36 29-9 6-12 18-16 28 9 14 19 28 21 46-10 3-20 6-31 9-4-19-14-37-31-47-11-7-25-8-36-2-16 12-24 37-47 37-16 2-31 3-47 3-15 0-32 7-37 23-8 24-5 49-5 74-21-1-42-3-63-5-8-32-21-66-50-85-16-10-34-19-53-19-11 0-20-7-23-17-6-14 10-24 12-37 7-33 14-69 0-101-11-29-41-48-49-79-6-18 4-36 10-53 22-61 49-120 74-180 13-32 29-64 36-98 8-30-4-62 10-92 7-11 5-28-7-35-16-8-32-13-48-21 7-15 18-32 12-49-1-7-8-16-1-21 19-14 45-8 67-10 9-14 17-31 34-38 12-5 25 1 38 2z" fill="#ff7f50"/>
    <path d="m741 1217c25-19 55-33 86-36 25-1 51-4 74 6 20 10 40 23 61 31 19 8 39 13 58 22 7 4 18 10 16 20-4 11-16 16-24 22 20 25 41 49 67 68 11 9 28 13 41 6 8-6 3-16 3-24 18 10 34 22 50 34 12 9 26 14 41 14 23 0 46 0 69 1 1 13-10 23-15 35-11 26-7 56 2 82 23 70 47 140 73 209 6 16 15 33 32 38 12 4 23-3 34-5 16-1 31 1 47 1-13 48-52 83-91 110-19 13-41 23-63 29-43 13-82 44-101 86-8 20-11 42-10 63 1 13-10 21-20 27-20 12-40 26-55 44-6 8-16 10-25 14-37 16-72 40-90 76-25 4-56-4-77 15-44 36-103 49-159 45-18-3-40-6-53-21-9-13 2-29 9-40 40-55 51-130 22-192-7-13 3-26 10-37 22-27 46-53 68-80 14-17 21-38 21-60 1-19-7-37-5-56 1-23 20-41 17-63-2-22-22-36-38-47-25-22-42-51-54-81-7-18-26-31-46-31-18-2-35 5-53 6-22 2-41-13-54-30-5-6-6-13-8-20-5-29-14-56-29-81-13-20-15-46-7-68 10-29 29-55 55-72 15-10 34-13 50-21 24-11 47-24 68-41z" fill="#9acd32"/>
    <path d="m1468 1739c11-7 22-14 34-19 22 5 42 14 63 17 10 2 21 1 29 10 14 14 21 34 30 51 8 14 9 31 2 46-12 24-25 48-35 74-3 8-6 19-1 27 9 16 30 19 40 34 3 9 1 18 5 27 7 16 21 26 35 35 29 17 62 29 92 44-23 9-44 21-63 36-32 28-66 53-99 79-5-12-9-25-18-35-10-12-24-19-38-26 13-23 41-29 60-46 0-7-8-6-13-8-37-6-75-17-113-14-13 1-25 5-38 7-9-9-14-21-25-29-14-12-35-15-53-11-21 4-42 9-62 16 20-32 44-62 64-95 16-26 39-48 66-61 13-5 24-18 23-32-2-21-19-35-31-49 17-17 32-37 40-60 3-6 4-14 8-19z" fill="#7fffd4"/>
    <path d="m119 1565c34-9 67-28 84-59 46 4 92 5 137 13 26 4 51 9 77 11-3 13-2 30 13 35 23 5 47 2 71 7 17 5 30 16 40 30 7 10 15 18 26 24 16 9 35 8 53 10 27 3 54 0 81-1 31-2 57 22 70 48 14 26 11 57 5 84-2 11-14 17-16 27-3 18-4 36-5 54-1 27-12 53-27 76-12 20-31 36-41 57-14 26-21 56-20 86 1 12 1 26-7 36-10 15-34 15-40 34-8 20 8 39 19 55-14 14-36 22-42 43-5 13 2 26 9 37-7 5-17 9-19 18 0 17 17 26 30 35 11 6 12 20 20 29 7 7 16 13 25 18 9 15 23 28 31 43-16 14-40 19-60 14-19-8-30-27-44-41-30-37-66-67-99-102-9-10-19-19-28-28-5-3-5-9-6-14-4-40-4-80-3-120 1-33-13-66-35-90-27-28-60-48-90-73-12-11-30-11-46-11-7-11-6-29-21-32-19-7-46 1-60-17-5-14-5-32-16-44-12-16-34-14-51-16-8 0-14-10-13-18 3-30 24-62 10-92-4-13-7-26-11-40 8-4 18-6 25-12 9-11 8-26 7-40-1-15-12-30-27-34-21-4-45 3-63-11-6-5-17-12-13-21 23-6 48-1 71-7z" fill="#ffd700"/>
    <path d="m1288 2070c29-10 59-21 90-23 22 0 41 16 50 35 8 17 9 37 12 56 1 7 9 12 16 12 18 1 35-5 53-6 22 2 45 7 61 23 12 10 16 25 21 39-18 18-27 43-23 68 6 36 10 76-11 108-10 17-24 31-42 40-28 13-53 33-73 57-12 15-25 29-40 41-19 17-44 27-60 48-21-17-49-25-63-50-5-5-6-15-14-14-14-1-28-1-41 0-7 2-13 8-20 12-15 10-33 16-49 26-30 16-64 24-98 22-53-8-94-50-148-53-22-1-43-6-62-18 2-14 6-29 13-41 6-13 15-24 19-37-19-2-40 9-57-4-11-11-13-28-23-41-10-17-26-28-43-35 17-7 35-11 54-10 42 2 83 12 121 26 14 5 32 8 45-2 13-8 16-25 16-40 0-37 5-75 18-110 12-31 40-54 70-68 24-11 49-20 73-29 44-12 89-22 134-32z" fill="#ff8c00"/>
    <path d="m1701 2131c21-18 46-31 73-40 10 19 14 44 32 58 15 11 34 5 50 1 2 23 16 42 21 65 8 31-2 63-13 92-6 16-2 33 4 49-27 6-50 22-71 40-20 17-33 40-51 59-9 9-21 15-30 24 0 8 6 13 12 17 12 9 26 15 40 22-48 36-102 63-160 76-33 7-62 25-88 47-17 14-38 24-60 24-23 0-45-4-67-3-21 1-42 8-61 16-10-16-16-36-8-53 7-17 29-26 25-47 8-23 35-30 52-46 34-24 54-62 88-85 18-13 41-19 57-35 25-25 37-61 36-96 1-26-10-53 0-79 6-19 24-30 40-42 27-22 54-42 80-64z" fill="#6495ed"/>
    <g fill="#808080">
      <path d="m769 35c28-11 57-18 87-18 24 1 47 4 71 5 37 0 72 14 106 26 19 7 39 16 60 17 39 1 78 4 117 6 31 1 62 10 90 25 26 14 54 25 83 33 30 7 59 17 88 25 36 10 69 30 93 59 18 21 40 38 60 56-28 1-55-7-79-19-26-13-50-39-81-35-3 7-6 14-8 22-18-7-35-19-43-37-41-1-81-3-122-4-13 1-24-11-29-23-4-17 19-25 17-41-2-10-11-17-21-18-43-8-87-5-130-5-30 1-59-3-88-5-48-4-96-8-145-12-36-1-73 6-103 26 16 23 41 44 71 43 6 0 12 0 19 1-19 12-41 19-63 23-33 4-67 1-99-5-19-4-38-4-58-3-22 1-43 10-56 28-9 12-23 22-38 19-19-3-35-17-49-30 2-1 7-4 9-6-5-16-4-35 7-47 19-22 48-34 74-47 31-16 66-22 99-35 21-7 42-14 62-22z"/>
      <path d="m725 321c28-1 55-11 83-12 3 14 5 31 19 38 20 8 45 12 54 34-24 13-48 26-68 44 7 15 25 17 39 19 42 4 84 13 124 29 7 3 15 7 17 15-2 7-6 13-10 20 28 1 56-10 83 2 7 3 18 9 15 19-8 12-28 13-34 27-5 11 1 24 3 35-36-1-65-27-92-48-12-8-21-22-37-22 1 14 6 27 10 40-5 4-11 6-15 11 7 17 27 24 43 30 31 7 62 12 93 14-2 14-6 30 2 42 12 16 32 23 49 32-22 11-46 12-69 15-6 1-11-1-16-3 3-10 5-19 5-29-12-2-23-1-35 1-17 3-35 3-50 13-9 5-15 13-21 20-28-19-67-16-95 1-19-8-38-17-58-24-28-8-59 7-75 30-12 19-2 42 9 59 10 14 17 30 19 47-19-5-37-13-51-26-16-13-19-37-37-48-14-9-32-2-43 8-19 18-37 42-36 69-9-11-17-22-25-33-2-3-4-8-9-9-18-4-36-5-53-12 3-8 7-16 8-24-10-12-30-16-32-32-5-16-12-32-22-46-4-7-14-3-17 3-6 10-11 21-16 31-21-1-44-9-52-30-7-12 5-22 12-30-8-6-17-11-25-17 10-9 16-22 13-35-2-16-2-37-19-45-18-6-36 5-52 10-13 0-26-6-40-1-18 6-28 23-37 37-24 0-52-5-71 13-10 11 1 24 2 35 0 13-7 25-13 36-21-8-46-8-64-23 4-12 14-19 21-29 1-14 0-31 12-41 11-8 22-16 32-25 13-11 24-25 40-30 15-6 31-5 47-7 12-2 17-18 30-17 31 4 63 6 94 7 7-1 11 7 15 11 15-7 29-17 39-30 7-9 10-20 16-29 22-13 49-20 73-11 18 7 26 26 42 35 23 14 52 25 79 14 28-11 60-14 87 0 24 9 40 29 62 40 23 7 50-8 55-32 6-29-5-59-15-85-10-22-25-44-50-52-16-5-35-5-46-18-3-10-1-21-2-31 17 0 34 0 51 0z"/>
      <path d="m590 642c16-12 33-26 54-26 10 0 20 4 29 7-2 8-5 17-11 24-6 9-16 14-23 23-5 8-4 17-6 25-16 7-33 6-49 13 0-16-7-30-8-45-1-10 8-16 14-22zm-16 2c20-19 44-38 73-37 13 1 28 4 35 15-3 19-15 36-30 47-10 8-6 21-11 31-8 10-22 8-32 10-16 2-29 13-43 18 3-12 12-23 7-36-3-16-13-36 1-49z"/>
      <path d="m721 700c13-9 30-10 45-5 16 8 32 16 49 22 1 7 1 16 7 21 6 7 16 13 18 24 6 22 10 44 22 64 7 12 7 27-1 38-20 24-51 36-69 61-11 14-16 30-22 46-5 4-9-2-12-6-16-20-24-46-28-71-5-33 8-68-6-99-7-21-28-36-27-60 0-17 13-28 26-36z"/>
      <path d="M824 721c26-18 65-25 91 0 0 20 0 41 0 60 0 19 0 39 0 57 0 11 0  24 0 33 15 16 38 16 54 31 22 17 28 44 45 65-12 16-21 34-22 53 0 24 0 47 0 71 0 0 -11 0-16 0 0-16 0-33-17-45-11-11-28-13-43-14 0 -31-11-62-29-88 0-17 0-35 0 -52 0 -11-13-18-24-22 0 0 .0-18 0-27 0 -14 0 -27-14-40 0 -15 0 -31-13-46 0 -14-20-19-23-34zM984 760c.3175 0  11 0  16-12 0 17 12 35 28 44 17 11 37 0 56 12 12 0 15 16 16 26 0 12 0  19-14 29 0  17-13 36-17 54 0 .0-12 0-17 0 0  10-12 20-19 30 0 -38-12-77-26-113 0 -24-20-47-22-72z"/>
      <path d="m589 768c9-9 20-18 34-16 16 6 20 23 29 36 16 23 44 35 70 43-1 24-4 49 1 73 5 25 15 48 30 69 4 5 10 12 18 9 13-14 14-34 25-49 15-25 44-36 65-56 8 3 18 4 22 13 8 16 2 33 1 49-2 8 5 13 8 20 16 24 19 53 22 80 14 1 29 0 41 8 11 11 15 26 17 42-21 0-44 0-62 13-22 18-37 43-47 69-11 0-21 1-32 1 0-28-18-50-36-69 11-7 31-14 26-31-10-13-28-14-43-17-10-32-25-62-44-90-19-28-51-44-84-48-14-1-31-2-41 10-13 14-13 34-13 52 0 18-4 36-17 49-8 10-21 15-32 20-7-13-14-26-26-36-22-18-41-40-49-67-5-17 3-36 17-45 28-19 57-36 85-55-5-10-10-20-9-31 2-18 14-32 25-45z"/>
      <path d="m741 1068c23-6 48-5 69 7 1 4-1 7-4 9-9 7-19 11-28 18 20 19 41 41 43 70-28 6-55 16-77 33-29 24-62 43-98 54-40 12-68 46-83 83-11 25-11 55 4 79 16 26 25 56 30 86-18 3-35 9-53 7-20-4-37-16-55-26 9-8 18-15 28-23-12-14-24-28-26-46 7-4 18-5 19-15 2-17-11-32-19-46 7-22 31-29 45-45 23-27 38-60 62-86 7-8 20-6 30-8 11-19 17-43 36-56 17-12 37-19 56-26-5-14-15-29-13-45 4-16 20-22 34-24zm130 103c13-31 33-67 70-72 23-2 47-1 70 1 5 13 8 26 10 40-23 23-48 45-76 61-23-13-47-26-74-30zm85 34c24-16 46-34 67-54 14 49 54 86 97 111 29 15 60 24 90 37 18 9 39 4 58 4 47-2 93-2 140 0 17 8 29 24 42 37-6 19-16 41-6 61 6 11 12 25 4 36-15 24-28 49-42 74-9 19-13 42-4 61 8 16 24 26 40 35 22 12 48 19 73 13 14-2 28-9 42-6 9 2 14 10 19 17-5 5-9 11-16 13-26 12-53 30-61 59-2 13-17 16-26 23-17 11-38 4-57 5-13-1-25 8-38 6-14-5-20-19-25-32-27-75-53-150-78-226-6-23-6-50 8-70 5-8 12-15 11-25-1-6-7-11-13-12-23-2-46-1-69-1-40-1-60-49-101-48 1 10 4 19 6 28-19 4-35-8-48-20-16-14-30-30-44-46 8-7 21-14 21-27 0-14-14-22-25-28-22-9-44-15-65-26z"/>
      <path d="m409 1372c17-6 32 8 43 20 8 10 7 22 5 34 8-2 15-4 23-6 3 16 12 31 22 43-12 9-24 18-30 32 25 4 44 25 69 28 19 1 37-5 55-8 12 17 27 35 48 41 26 9 51-8 77-4 15 2 29 12 35 26 12 29 28 58 51 79 16 10 36 20 40 41 5 22-13 40-15 60-5 22 5 44 4 66-1 21-9 41-23 56-20 23-40 45-59 68-10 11-17 23-20 37-2 8 3 16 5 23 20 48 17 105-7 151-9 19-27 35-30 57-2 16 10 29 24 34 42 15 87 11 130 1 24-7 48-18 68-34 8-6 16-14 26-15 16-2 32-2 48-4-10 31-15 65-15 98 0 14 0 30-10 41-9 8-22 9-33 5-43-17-89-28-135-29-24-1-46 8-68 18-28 2-61 4-80 28-6-6-13-10-18-16-5-8-8-18-15-24-11-10-27-16-31-31 8-5 17-10 25-15-8-11-19-24-14-38 6-22 32-27 42-46-8-14-24-28-22-46 3-15 20-19 30-28 15-10 21-29 19-47-3-40 10-79 36-110 18-22 35-45 44-72 11-30 8-61 14-92 4-8 14-14 15-24 6-29 10-61-3-89-11-24-30-46-55-54-16-6-32-4-48-2-30 3-60 0-89-4-16-2-31-12-40-26-11-16-26-31-46-35-22-4-46-1-68-6-16-5-6-23-5-34-51-4-101-17-152-19-2-23-5-48 2-70 4-13 18-18 30-18 21 0 42 0 62-6 14-11 23-28 38-36z"/>
      <path d="m1340 1876c27-12 50-32 72-51 12 13 29 26 29 46 0 13-14 20-24 25-25 13-46 32-61 56-20 33-44 64-66 96-5 6-9 14-17 15-48 10-96 22-143 34 15-18 35-29 55-41 11-6 17-19 14-31-5-52 28-101 73-125 21-12 45-15 66-25z"/>
      <path d="m1441 2088c17-4 35-9 53-8 31 1 60 8 90 14-18 14-42 22-52 44-28-9-55 5-84 1-2-17-4-35-8-52z"/>
      <path d="M1803 2402c20-17 43-32 69-37 0 26 0 56-17 75-26 24-53 47-79 71-18 0 -36-16-52-29 0 0  18-12 26-19 19-19 32-43 53-60zM1165 2545c20 0  40-19 58-32 13 0  28 0  42 0 .0 17 23 33 41 42 14 0 32 16 35 34-11 16-29 29-30 50 0  20 0 37 17 54-19 0-39 0-59 0-22 0-45 0 -67 0 .0-13 0-29 0 -40-11 0 -28 0 -40-17 0  0 -11 0  0 -16 0-16 13-31 17-47 0-11 0-23 0-34z"/>
    </g>
  </g>
  <g id="label" class="fnt0">
    <text x="905" y="1675" id="Africa">
      <tspan id="trsvg19">아프리카</tspan>
    </text>
    <text x="1430" y="2009" id="India">
      <tspan id="trsvg11">인도</tspan>
    </text>
    <text x="352" y="1846" id="South-America">
      <tspan id="trsvg21">남미</tspan>
    </text>
    <text x="1116" y="2335" id="Antarctica">
      <tspan id="trsvg31">남극</tspan>
    </text>
    <text x="1450" y="2455" id="Australia">
    <!-- transform="rotate(-35 320 132)" -->
      <tspan id="trsvg41">오스트리아</tspan>
    </text>
    <text x="202" y="1140" id="North-America">
      <tspan id="trsvg51">북미</tspan>
    </text>
    <text x="1274" y="568" id="Eurasia">
      <tspan id="trsvg70">유라시아</tspan>
    </text>
  </g>
</svg>
