<?xml version="1.0" encoding="UTF-8" standalone="no"?>
<svg xmlns="http://www.w3.org/2000/svg" style="font-family:MalgunGothicRegular;" viewBox="0 0 290 125">
  <style>
        .math{
            font-family:'Times New Roman';
            font-style:italic;
        }
        .comment{
            fill:#444;
            font-weight:bold;
        }
        .eng{
            font-size:0.8em;
            fill:#0aa;
            font-weight:normal;
        }
        .coeff {
          fill:#88f;
        }
        .term{
          fill:#f88;
        }
  </style>
  <!-- 화살표 -->
  <marker id="ah1" markerUnits="userSpaceOnUse" markerWidth="20" markerHeight="20" viewBox="0 0 20 10" orient="auto">
    <path d="M9 0L0 4 0 -4 9 0z"/>
  </marker>
  <text x="128" y="15" class="comment">차수    <tspan class="eng">degree</tspan>
  </text>
  <path marker-end="url(#ah1)" d="M125, 10 h-10 a10 10 0 0 0 -10 10 v3" style="fill:none;stroke:#000"/>
  <rect x="45" y="34" rx="15" width="70" height="58" fill="#faa"/>

  <path marker-end="url(#ah1)" d="M25, 34 v10 a5 5 0 0 0 5 5 h3" style="fill:none;stroke:#000"/>
  <text x="15" y="29" class="comment term">항    <tspan class="eng">term</tspan> </text>
  <rect x="120" y="34" rx="15" width="70" height="58" fill="#faa"/>

  <text x="50" y="80" class="math coeff" font-size="3em">2</text>
  <text x="75" y="80" class="math" font-size="3em">    x  </text>
  <text x="95" y="60" class="math" font-size="1.8em">2</text>
  <text x="125" y="80" class="math coeff" font-size="3em">+3</text>

  <path marker-end="url(#ah1)" d="M228, 75 v-5 a10 10 0 0 0 -10 -10 h-10" style="fill:none;stroke:#000"/>
  <text x="205" y="95" class="comment term">(상수)항    </text>
  <text x="205" y="110" class="eng">constant term</text>

  <path marker-end="url(#ah1)" d="M150,105 v-11" style="fill:none;stroke:#000"/>
  <path marker-end="url(#ah1)" d="M82,117 h-10 a10 10 0 0 1 -10 -10 v-13" style="fill:none;stroke:#000"/>
  <text x="85" y="122" class="coeff comment">계수    <tspan class="eng">coefficient</tspan>
  </text>
</svg>