<?xml version="1.0" encoding="utf-8"?>
<!--
  "Recovery_-_The_Noun_Project.svg", OCHA Visual Information Unit, wikimedia.org,CC0 1.0 DEED
  iseohyun.com, 2024, CC-BY-SA 4.0
-->
<svg viewBox="0 0 1600 900"
  xmlns="http://www.w3.org/2000/svg">
  <rect x="0" y="0" width="1600" height="900" style="fill: rgb(1, 1, 1);"/>
  <g transform="matrix(1, 0, 0, 1, 520, 730)">
    <g style="fill: #dd0">
      <path d="M460-189L600-344L622-320C632-308 632-290 622-278L519-165C509-154 492-154 481-165L460-189C"/>
      <path d="M-70-7C-61 33-29 65 5 76L277-223L202-306L-70-7C"/>
      <path d="M444-244C445-241 446-238 447-236C448-234 448-231 449-230C450-226 451-222 451-218C491-262 531-306 571-350C571-350 495-355 472-461C464-469 457-477 450-484C351-594 247-632 149-623C144-622 133-620 123-619C106-616 104-588 123-588C132-588 141-587 146-587C164-584 181-582 198-575C271-544 318-457 256-388C239-370 206-334 206-334L306-225C306-225 314-235 318-239C338-257 379-287 421-269C427-266 433-261 437-256C439-254 441-251 442-248C443-246 443-245 444-244C"/>
      <animateTransform type="rotate" attributeName="transform" values="0;15;0" begin="0s" dur="2s" fill="freeze" repeatCount="indefinite" keyTimes="0;0.5;1" calcMode="ease-in"/>
    </g>
  </g>

</svg>