<?xml version="1.0" encoding="utf-8"?>
<!-- File:"Jordens inre.svg",
Original: Mats Halldin Vector: Chabacano, wikimedia.org
CC BY-SA 3.0 DEED
iseohyun.com, 2024, CC-BY-SA 4.0 -->
<svg viewBox="0 0 1600 900" xmlns="http://www.w3.org/2000/svg" xmlns:xlink="http://www.w3.org/1999/xlink">
  <defs>
    <linearGradient id="GradientWater">
      <stop style="stop-color:#27dceb;" offset="0"/>
      <stop style="stop-color:#3084a9;" offset="1"/>
    </linearGradient>
    <linearGradient id="GradientInnerCore">
      <stop style="stop-color:#fefa98;" offset="0"/>
      <stop style="stop-color:#dcc14e;" offset="1"/>
    </linearGradient>
    <linearGradient id="GradientInnerCore2">
      <stop style="stop-color:#fdf98b;" offset="0"/>
      <stop style="stop-color:#fae072;" offset="1"/>
    </linearGradient>
    <linearGradient id="GradientOuterCore">
      <stop style="stop-color:#fceba4;" offset="0"/>
      <stop style="stop-color:#bc610e;" offset="1"/>
    </linearGradient>
    <linearGradient id="GradientOuterCore2">
      <stop style="stop-color:#fae072;" offset="0"/>
      <stop style="stop-color:#fae072;stop-opacity:0;" offset="1"/>
    </linearGradient>
    <radialGradient id="radialGradientWater" cx="113" cy="348" r="343" gradientTransform="matrix(1.13, 1.14, -1.13, 1.14, 1132, -167)" gradientUnits="userSpaceOnUse" xlink:href="#GradientWater"/>
    <radialGradient id="radialGradientInnerCore" cx="413" cy="387" r="46" gradientTransform="matrix(2.52, 0, 0, 4.73, 102, -1369)" gradientUnits="userSpaceOnUse" xlink:href="#GradientInnerCore"/>
    <radialGradient id="radialGradientInnerCore2" cx="411" cy="405" r="82" gradientTransform="matrix(2.83, 0, 0, 2.41, -58, -517)" gradientUnits="userSpaceOnUse" xlink:href="#GradientInnerCore2"/>
    <radialGradient id="radialGradientInnerCore3" cx="405" cy="361" r="127" gradientTransform="matrix(-0.26, 1.17, -1.47, -0.33, 1777, 103)" gradientUnits="userSpaceOnUse" xlink:href="#GradientInnerCore2"/>
    <radialGradient id="radialGradientOuter" cx="383" cy="373" r="93" gradientTransform="matrix(-2.16, 0, -0.06, -3.4, 1989, 1713)" gradientUnits="userSpaceOnUse" xlink:href="#GradientOuterCore"/>
    <radialGradient id="radialGradientOuter2" cx="449" cy="341" r="222" gradientTransform="matrix(1.13, 0, 0, 0.9918, 679, 28)" gradientUnits="userSpaceOnUse" xlink:href="#GradientOuterCore2"/>
  </defs>
  <rect width="1600" height="900" style="stroke: rgb(0, 0, 0); fill: rgb(1, 1, 1);"/>
  <path style="fill: url('#radialGradientWater');" d="M1133 69C922 72 751 246 751 460C751 675 924 851 1139 851C1353 851 1527 675 1527 460C1525 245 1353 69 1139 69C1137 69 1136 69 1133 69ZM1147 97C1165 100 1224 120 1280 157C1341 197 1390 253 1420 304C1451 355 1463 390 1473 443C1481 490 1483 525 1483 533C1483 534 1483 534 1483 534C1479 539 1466 553 1406 572C1332 596 1250 610 1180 610C1085 609 965 606 862 558C790 525 783 509 783 509C783 509 795 420 808 385C820 348 893 189 1040 132C1103 108 1136 100 1146 97L1147 97Z"/>
  <path style="fill: rgb(250, 224, 114);" d="M1144 260L1145 260C1145 260 1142 260 1122 274C1052 333 1016 428 1011 520C1035 528 1043 528 1043 530C1046 469 1054 436 1064 398C1089 310 1145 259 1145 259"/>
  <path style="fill: rgb(250, 172, 82);" d="M1087 180C990 235 929 370 912 430C898 476 894 525 895 542C938 569 1078 587 1150 588C1217 589 1283 584 1351 561C1409 543 1432 527 1435 524C1436 523 1435 524 1435 522C1435 515 1440 506 1432 462C1423 412 1411 378 1383 329C1344 260 1299 224 1251 192C1215 172 1186 154 1146 148C1118 159 1114 161 1087 180Z"/>
  <path style="fill: url('#radialGradientOuter');" d="M938 557L938 558L1011 519C1016 428 1052 333 1122 274C1134 266 1139 263 1141 262L1144 260C1145 260 1145 260 1145 260L1147 167L1146 149C1146 149 1144 150 1140 152C1136 154 1130 158 1123 162C1120 165 1116 168 1112 170C1108 174 1104 177 1101 180C1096 183 1092 188 1088 191C1084 196 1079 199 1075 204C1069 210 1062 216 1057 223C1051 230 1045 238 1040 245C1035 253 1029 260 1024 270C1018 278 1012 287 1007 297C1005 302 1001 308 998 314C995 321 992 328 989 336C985 344 982 352 980 360C976 369 973 377 970 386C967 394 964 403 962 412C959 420 956 428 955 437C953 445 950 452 948 460C947 467 946 474 945 479C944 491 942 501 941 510C940 519 939 528 939 535C938 549 938 556 938 557Z"/>
  <path style="fill: rgb(240, 149, 66);" d="M937 559L937 558C937 558 938 550 939 535C939 528 940 519 941 510C942 501 944 491 945 479C946 474 947 467 948 460C950 452 953 445 955 437C956 428 959 420 962 412C964 403 967 394 970 386C973 377 976 369 980 360C982 352 985 344 989 336C992 328 995 321 998 314C1001 308 1005 302 1007 297C1012 287 1018 278 1024 270C1029 260 1035 253 1040 245C1045 238 1051 230 1057 223C1062 216 1069 210 1075 204C1079 199 1084 196 1088 191C1092 188 1096 183 1101 180C1104 177 1108 174 1112 170C1116 168 1120 165 1123 162C1130 158 1136 154 1140 152C1144 150 1146 149 1146 149L1147 150L1147 148C1146 148 1146 148 1146 148C1118 159 1114 161 1087 180C990 235 929 370 912 430C898 476 894 525 895 542C904 548 919 553 937 559Z"/>
  <path style="fill: url('#radialGradientOuter2');" d="M1147 148L1147 150L1146 149L1147 167L1145 260C1149 260 1148 262 1157 264C1158 264 1171 266 1203 284C1236 304 1270 333 1293 373C1316 413 1325 458 1327 475C1329 490 1329 498 1328 499L1435 523C1435 523 1435 523 1435 522C1435 515 1440 506 1432 462C1423 412 1411 378 1383 329C1344 260 1299 224 1251 192C1215 172 1186 154 1147 148Z"/>
  <path style="fill: rgb(250, 224, 114);" d="M1144 260L1145 260C1145 260 1142 260 1122 274C1052 333 1016 428 1011 520C1035 528 1043 528 1043 530C1046 469 1054 436 1064 398C1089 310 1145 259 1145 259"/>
  <path style="fill: url('#radialGradientInnerCore3');" d="M1328 500L1144 459L1043 528C1042 530 1042 530 1042 530C1051 533 1081 536 1110 540C1139 543 1184 542 1223 538C1262 532 1290 523 1328 501C1328 501 1328 500 1328 500Z"/>
  <path style="fill: url('#radialGradientInnerCore2');" d="M1146 260L1145 459L1144 459L1328 500C1328 499 1329 491 1327 475C1325 458 1316 413 1293 373C1270 333 1236 305 1203 284C1173 265 1148 262 1146 260Z"/>
  <path style="fill: url('#radialGradientInnerCore');" d="M1043 528L1145 459L1146 260C1146 260 1145 260 1145 260C1144 259 1089 310 1064 398C1054 435 1046 468 1043 528Z"/>
  <path style="fill: rgb(218, 85, 26);" d="M862 551C963 597 1078 604 1171 605C1241 606 1324 592 1398 569C1458 550 1467 535 1470 531L1471 531C1471 531 1471 530 1471 528C1471 522 1473 500 1466 453C1455 402 1443 367 1412 314C1371 242 1328 199 1276 165C1238 143 1189 116 1147 109L1140 150C1142 150 1144 149 1146 148C1186 154 1215 172 1251 192C1299 224 1344 260 1383 329C1411 378 1423 412 1432 462C1440 506 1435 515 1435 522C1435 524 1436 523 1435 524C1432 527 1409 543 1351 561C1283 584 1217 589 1150 588C1078 587 938 569 895 542C895 542 895 542 895 541L862 551Z"/>
  <path style="fill: rgb(177, 46, 0);" d="M862 551L895 541C894 524 899 475 912 430C929 370 990 235 1087 180C1112 164 1123 157 1146 148C1146 135 1146 120 1146 109C1145 109 1144 110 1142 110C1140 111 1138 112 1134 113C1131 115 1127 117 1121 119C1115 121 1108 126 1099 132C1095 134 1090 136 1086 140C1080 143 1076 146 1070 150C1066 153 1060 158 1054 161C1049 166 1044 170 1038 174C1033 178 1027 183 1023 188C1017 192 1011 198 1007 202C1002 207 997 213 992 219C986 225 981 232 976 239C971 246 966 254 960 260C956 268 950 276 946 284C941 292 936 300 932 308C928 316 923 324 919 332C915 339 912 347 908 354C905 361 903 368 901 373C896 386 892 397 887 411C886 417 884 424 881 430C879 437 878 444 876 451C875 458 872 466 871 474C870 481 869 488 868 496C866 504 866 514 864 523C863 531 862 541 862 550L862 551Z"/>
  <path style="fill: rgb(231, 98, 39);" d="M862 551L862 550C862 541 863 531 864 523C866 514 866 504 868 496C869 488 870 481 871 474C872 466 875 458 876 451C878 444 879 437 881 430C884 424 886 417 887 411C892 397 896 386 901 373C903 368 905 361 908 354C912 347 915 339 919 332C923 324 928 316 932 308C936 300 941 292 946 284C950 276 956 268 960 260C966 254 971 246 976 239C981 232 986 225 992 219C997 213 1002 207 1007 202C1011 198 1017 192 1023 188C1027 183 1033 178 1038 174C1044 170 1049 166 1054 161C1060 158 1066 153 1070 150C1076 146 1080 143 1086 140C1090 136 1095 134 1099 132C1108 126 1115 121 1121 119C1127 117 1131 115 1134 113C1138 112 1140 111 1142 110C1144 110 1146 110 1146 110C1147 110 1147 110 1147 110L1147 108C1111 117 1072 136 1041 153C928 215 861 349 844 413C831 461 820 512 825 531C825 531 834 539 854 549C856 550 860 550 862 551Z"/>
  <path style="fill: rgb(164, 72, 33);" d="M1470 531C1467 536 1455 550 1398 569C1324 592 1241 606 1171 605C1076 604 957 597 854 549C835 540 827 532 826 531L814 533C825 540 841 549 862 558C965 606 1085 609 1180 610C1250 610 1332 596 1406 572C1466 553 1479 539 1483 534C1483 534 1483 534 1483 534L1470 531Z"/>
  <path style="fill: rgb(142, 38, 0);" d="M814 533L826 531C825 531 825 531 825 531C820 512 831 461 844 413C861 349 928 215 1041 153C1072 136 1112 117 1147 108C1147 108 1147 109 1147 109L1147 97C1147 97 1147 97 1147 97L1146 97C1136 100 1103 108 1040 132C893 189 820 348 808 385C795 420 783 509 783 509C783 509 788 517 814 533Z"/>
  <path style="fill: rgb(203, 110, 77);" d="M1147 97L1146 97C1136 100 1103 108 1040 132C893 189 820 351 807 385C793 419 784 509 784 509C784 509 786 518 818 536C817 534 816 533 816 533C814 516 821 458 836 411C861 330 924 217 1033 149C1070 128 1107 111 1147 99C1149 99 1153 99 1157 100C1153 99 1149 97 1147 97Z"/>
  <path style="fill: rgb(151, 61, 24);" d="M1470 531L1483 534C1483 534 1483 534 1483 533C1483 525 1481 490 1473 443C1463 390 1451 355 1420 304C1390 253 1341 197 1280 157C1224 120 1166 101 1147 97L1147 109C1190 116 1238 143 1276 165C1328 199 1371 242 1412 314C1443 367 1455 402 1466 453C1473 500 1471 522 1471 528C1471 530 1471 531 1471 531L1470 531C1470 531 1470 531 1470 531Z"/>
  <path style="fill: rgb(81, 108, 27);" d="M908 576L907 579L905 579L904 589C904 589 911 589 912 591C913 593 907 596 907 596C907 596 903 596 902 599C901 602 905 608 905 608L902 609C902 609 907 613 910 615C912 616 929 652 929 652L933 661C933 661 934 666 937 667C938 670 962 688 962 688L965 690C965 690 970 693 972 697C974 702 975 710 975 712C975 714 974 716 976 720C979 723 979 746 979 746L981 747L981 750L980 753C980 753 983 761 983 763C983 766 983 774 983 774L982 776L989 784C989 784 989 787 989 788C988 791 991 791 991 791L990 791L991 793L994 797L993 795L992 791C992 791 992 791 994 791C995 792 998 796 998 797L1000 800L1001 803L995 801L1000 805C1000 805 1007 810 1010 812C1012 816 1025 820 1025 820C1025 820 1027 824 1028 824C1029 825 1031 823 1031 823L1035 823L1034 821L1028 819L1032 819L1033 816L1036 815L1024 809C1024 809 1026 805 1027 805C1028 805 1034 808 1034 808L1032 803L1036 802L1038 802C1038 802 1035 801 1032 800C1027 799 1028 796 1028 796L1028 795L1032 797L1040 797L1040 795C1040 795 1037 791 1040 792C1042 793 1058 793 1059 793C1060 794 1064 789 1066 788C1067 787 1060 786 1060 786C1060 786 1060 784 1061 783C1061 780 1053 779 1053 779C1053 779 1050 776 1053 778C1057 779 1075 783 1075 783C1075 783 1086 776 1086 774C1086 771 1088 769 1090 767C1092 766 1092 767 1092 767C1092 767 1089 774 1092 772C1093 770 1097 763 1097 763L1104 760L1105 747L1121 739C1121 739 1125 736 1128 736C1131 736 1144 735 1144 735C1144 735 1144 732 1146 734C1148 734 1150 735 1150 734C1151 732 1151 729 1154 726C1156 721 1160 721 1160 721C1160 721 1160 719 1160 714C1160 711 1164 711 1164 711C1164 711 1163 710 1164 706C1164 703 1165 703 1165 703C1165 703 1165 701 1164 694C1164 687 1167 683 1167 683L1171 685L1176 679L1176 674C1176 674 1183 672 1184 670C1185 669 1192 658 1194 655C1197 652 1192 641 1192 640C1191 639 1189 640 1185 640C1182 640 1181 638 1177 638C1175 637 1170 631 1168 630C1167 630 1164 628 1162 626C1160 626 1151 628 1149 628C1147 628 1142 624 1140 623C1137 623 1130 628 1129 626C1128 625 1131 622 1131 622C1131 622 1130 620 1128 618C1125 617 1125 620 1125 620L1124 618C1124 618 1118 615 1115 614C1114 614 1110 613 1107 613C1105 614 1104 616 1102 618C1101 621 1097 621 1097 621L1097 618L1095 618C1093 618 1092 620 1090 618L1089 618L1087 614C1087 614 1082 615 1080 616C1079 616 1080 612 1082 610C1084 609 1085 608 1086 607C1028 604 966 596 908 576ZM1090 618L1095 618C1095 618 1095 618 1096 618C1099 618 1104 613 1105 610C1105 609 1105 608 1105 608C1099 608 1095 608 1089 607C1090 610 1089 615 1090 617C1090 617 1090 617 1090 618Z"/>
  <path style="fill: rgb(81, 108, 27);" d="M1029 92C1029 92 1029 92 1028 92C1026 93 1021 95 1020 95C1019 96 1019 96 1017 97C1015 100 1012 100 1012 100C1012 100 1011 101 1012 100C1012 97 1016 97 1017 97C1017 96 1018 95 1018 95C1018 95 1018 94 1017 94C1016 94 1016 95 1011 96C1007 97 1007 96 1006 97C1005 100 1002 100 1002 101C1001 102 1002 102 1000 102C997 103 998 103 997 103C995 103 994 103 995 103C997 102 999 102 998 102C997 101 999 100 993 101C989 102 985 104 985 104C985 104 983 105 980 107C976 109 981 108 974 110C968 112 964 117 964 117C964 117 959 118 959 119C957 119 957 119 957 119L956 117L953 121L959 121L962 121C962 121 964 119 964 119C965 119 966 119 966 119C967 119 968 120 968 120L967 119C967 119 967 119 966 119C966 119 966 119 966 120C965 120 966 121 964 121C963 123 962 123 962 123C960 124 956 124 959 124C963 125 964 125 964 125C964 125 965 125 964 126C963 127 964 127 959 131C955 135 954 139 953 140C950 140 950 141 948 143C946 145 946 146 946 148C946 150 944 151 944 149C944 146 946 145 944 146C941 148 941 146 940 148C939 150 941 150 939 150C938 151 938 151 938 151C938 152 938 153 938 153C938 153 937 153 937 153C936 152 934 152 934 152C934 153 936 156 934 157C934 158 934 158 933 158C932 158 933 158 932 158C930 158 931 157 930 158C929 159 931 161 931 161C931 161 932 161 930 161C930 161 928 161 928 161L925 161C925 161 927 162 927 164C927 164 927 165 925 166C923 166 927 165 922 167C918 169 919 172 919 172C918 172 916 172 916 172C916 172 918 173 915 175C914 176 915 178 912 180C908 181 907 183 907 183L905 184C905 184 905 186 905 188C904 188 903 191 903 192C902 193 899 198 899 199C898 200 899 200 898 202C896 204 893 206 893 206C893 206 892 207 893 206C893 205 893 201 893 201C893 201 892 202 889 204C887 205 882 209 881 210C880 211 879 213 877 216C873 218 872 219 870 222C867 225 863 231 863 231C863 231 861 235 859 238C856 240 853 243 853 245C852 246 849 253 847 254C846 256 843 260 842 262C842 263 841 265 840 268C837 271 835 274 835 276C835 279 835 290 835 290L829 303C829 303 828 308 827 311C826 313 826 314 825 315C825 316 825 321 825 322C825 323 824 327 824 327L820 328L819 328C819 328 821 343 820 345C820 347 819 349 818 351C818 352 818 354 819 355C820 351 824 346 826 340C826 340 824 341 824 339C824 338 824 335 825 333C825 332 826 329 826 328C827 327 828 324 828 323C828 323 828 322 828 319C828 316 827 316 828 313C831 310 832 310 833 307C833 306 834 305 834 305C834 305 837 307 835 310C834 312 834 312 833 316C831 321 829 322 829 323C829 325 829 328 829 329C828 330 828 333 828 335C828 335 827 336 827 338C858 281 918 193 1009 145C1009 145 1009 145 1009 144C1009 142 1007 141 1010 141C1012 141 1014 141 1015 141C1015 140 1016 139 1015 139C1015 137 1014 139 1014 137C1014 135 1014 134 1015 134C1016 133 1017 132 1017 131C1017 129 1017 129 1016 129C1016 128 1015 128 1015 128L1016 128C1016 128 1016 127 1015 127C1014 127 1014 127 1015 126C1016 126 1016 125 1018 125C1019 125 1023 125 1019 124C1015 123 1006 123 1008 123C1009 123 1011 121 1014 121C1015 121 1017 121 1017 121C1017 121 1016 121 1015 120C1012 119 1014 119 1011 118C1009 118 1005 120 1008 118C1012 116 1016 113 1017 111C1018 110 1021 109 1023 107C1025 104 1025 104 1027 103C1028 102 1032 100 1033 100C1034 100 1035 100 1035 99C1035 97 1036 96 1036 96C1035 95 1033 94 1032 93C1031 93 1031 92 1029 92ZM1034 126C1034 126 1034 126 1033 126C1032 127 1029 127 1029 128C1029 129 1029 132 1029 132C1029 132 1028 132 1027 132C1027 131 1027 129 1026 129C1025 129 1023 131 1024 131C1025 132 1026 133 1026 134C1026 134 1026 135 1027 136C1027 136 1027 136 1027 137C1029 136 1031 136 1033 135C1034 133 1035 132 1035 132C1035 131 1035 132 1036 131C1037 128 1042 128 1041 127C1040 127 1042 126 1038 126C1036 126 1035 126 1034 126ZM1020 134C1020 134 1020 134 1019 134C1018 135 1017 134 1017 136C1017 137 1018 139 1017 140C1017 141 1016 142 1015 143C1018 141 1023 140 1026 137C1026 137 1026 137 1026 137C1024 137 1024 137 1024 135C1023 134 1023 134 1021 134C1021 134 1021 134 1020 134ZM991 139C992 139 994 139 994 140C995 140 997 140 998 140C1000 140 1000 141 1000 141C1000 143 999 143 999 143C999 143 995 145 992 145C990 145 990 145 986 146L985 146C985 146 988 144 990 143C992 142 993 142 993 142C993 142 992 141 990 141C986 140 990 140 991 139C991 139 991 139 991 139ZM975 157L973 161C973 161 974 162 975 162C975 162 977 161 977 161C977 161 977 162 976 164C975 164 976 164 973 165C968 166 968 167 966 167C964 167 963 166 962 166C960 165 960 165 960 164C960 164 964 162 965 162C966 162 967 164 968 162C971 161 971 161 972 161C973 160 975 157 975 157Z"/>
  <path style="fill: rgb(81, 108, 27);" d="M1432 304C1432 302 1431 302 1433 302C1434 302 1435 302 1436 300C1437 299 1437 298 1438 299C1438 300 1440 302 1438 303C1438 304 1436 305 1434 305C1432 305 1432 305 1432 304Z"/>
  <path style="fill: rgb(81, 108, 27);" d="M1429 292C1431 292 1432 294 1432 291C1432 290 1431 290 1431 290C1429 290 1429 290 1429 290C1429 291 1429 292 1429 292Z"/>
  <path style="fill: rgb(116, 123, 103);" d="M1113 91C1114 90 1116 90 1116 90C1118 90 1118 88 1119 88C1120 88 1122 90 1122 90C1122 91 1122 90 1121 92C1121 93 1118 93 1118 94C1116 95 1115 95 1115 96C1116 96 1118 96 1119 95C1120 95 1121 94 1121 94C1121 94 1122 94 1122 94C1123 95 1123 95 1123 95L1125 96C1125 96 1124 94 1124 93C1125 92 1127 88 1125 88C1124 87 1124 86 1124 85C1125 85 1125 84 1127 84C1127 84 1128 85 1128 83C1128 82 1129 83 1128 82C1127 80 1124 80 1124 80L1124 79C1124 79 1122 80 1122 82C1122 82 1122 84 1122 84C1122 84 1119 85 1118 86C1115 88 1113 91 1113 91Z"/>
  <path style="fill: rgb(116, 123, 103);" d="M1203 97C1206 99 1206 97 1208 100C1210 101 1212 100 1212 102C1212 103 1212 104 1211 104C1211 105 1212 107 1212 107C1212 107 1214 108 1211 107C1209 107 1208 108 1208 107C1208 104 1208 104 1208 103C1208 102 1208 103 1207 102C1207 100 1203 97 1203 97Z"/>
  <path style="fill: rgb(116, 123, 103);" d="M1228 99C1229 99 1229 97 1232 99C1234 99 1236 101 1237 102C1240 103 1253 109 1255 109C1258 110 1266 113 1267 113C1268 113 1271 113 1271 113C1272 113 1275 116 1273 116C1273 117 1270 117 1269 117C1268 117 1267 117 1266 117C1266 117 1250 110 1246 109C1244 108 1232 101 1231 100C1229 99 1228 99 1228 99Z"/>
  <path style="fill: rgb(81, 108, 27);" d="M1283 123C1285 123 1286 123 1286 124C1287 124 1288 125 1287 125C1286 126 1286 126 1285 126C1283 125 1283 124 1283 124L1284 123L1283 123Z"/>
  <path style="fill: rgb(81, 108, 27);" d="M1026 126C1028 126 1029 127 1031 126C1032 126 1032 126 1032 125C1033 125 1036 125 1037 125C1040 125 1041 125 1042 125C1043 125 1043 125 1044 125C1045 124 1045 124 1045 121C1045 120 1045 118 1045 118C1045 118 1046 117 1044 118C1041 118 1042 119 1040 119C1036 119 1033 119 1032 120C1031 121 1029 124 1028 125C1026 125 1026 127 1026 126Z"/>
  <path style="fill: rgb(81, 108, 27);" d="M1059 115C1057 115 1057 116 1054 118C1052 120 1053 119 1053 119C1053 119 1057 118 1060 117C1062 116 1062 118 1066 118C1068 118 1066 118 1068 119C1069 120 1063 120 1062 120C1061 120 1061 119 1060 119C1060 118 1058 119 1059 121C1060 124 1058 123 1058 123C1058 123 1058 123 1057 121C1055 120 1054 120 1053 120C1052 121 1053 123 1053 124L1054 126C1060 125 1066 123 1070 120C1070 120 1070 120 1070 120C1070 119 1067 118 1067 118C1066 117 1063 116 1063 116C1063 116 1061 115 1059 115Z"/>
  <path style="fill: rgb(81, 108, 27);" d="M895 202C895 202 897 200 897 200C897 199 903 189 903 189L904 183L898 191L894 200L895 202Z"/>
  <path style="fill: rgb(81, 108, 27);" d="M1133 69C1099 70 1066 75 1034 84L1035 86L1021 91L1023 92L1036 87C1036 87 1053 84 1063 80C1073 77 1087 76 1101 72C1114 70 1137 71 1145 71C1151 71 1162 71 1162 72L1164 75L1179 72L1180 74L1190 77L1185 77L1191 79L1192 82C1192 82 1188 83 1186 83C1185 83 1188 86 1188 86L1186 88L1188 88L1194 87L1196 84L1194 83L1203 82L1223 88L1231 88L1238 93L1243 93L1245 92L1246 93L1251 95L1245 97C1245 97 1250 97 1251 97C1252 97 1253 97 1253 97L1255 95L1255 97L1253 99L1247 100L1253 101L1257 102L1262 104C1262 104 1267 104 1268 104C1269 104 1271 107 1271 107C1271 107 1275 107 1277 107C1278 107 1281 107 1281 107L1278 109L1276 110L1273 112C1273 112 1276 112 1277 112C1279 111 1280 112 1280 112L1283 116L1287 118L1287 120C1287 120 1288 123 1290 125C1293 127 1293 127 1293 127L1298 131L1299 133L1296 132L1294 129L1290 128L1287 129C1287 129 1293 133 1296 134C1299 135 1299 135 1299 135L1301 136L1301 137L1303 139L1303 142C1303 142 1307 143 1310 144C1312 144 1311 145 1311 145L1307 148L1307 149L1312 149L1314 150C1314 150 1313 151 1311 152C1307 153 1304 148 1304 148L1294 145L1302 143L1301 141L1301 140L1298 139L1295 137L1293 136L1289 136L1285 136L1283 136L1281 137L1276 137L1276 139L1271 141L1273 136L1270 136L1264 139L1266 142L1266 143L1263 146C1269 150 1275 153 1280 157C1285 159 1288 161 1292 164L1292 162C1292 162 1290 159 1292 159C1294 157 1294 158 1298 159C1302 160 1303 169 1303 169L1319 182L1320 182L1323 181L1325 173L1328 174L1330 173L1330 177L1332 178L1328 178L1328 185L1340 192L1338 193L1333 193C1333 193 1340 202 1344 204C1347 206 1347 207 1345 207C1345 207 1344 207 1344 207C1371 233 1393 260 1411 289L1412 288L1414 288L1414 290L1415 290L1416 289L1420 289L1420 290L1420 291C1420 291 1418 292 1418 294C1417 295 1420 295 1420 295L1422 298C1422 298 1423 299 1425 299C1425 300 1427 298 1427 298C1427 298 1425 297 1424 296C1423 296 1423 294 1423 294L1425 294L1423 292L1423 289L1425 289L1424 287L1418 287L1416 281C1416 281 1416 281 1415 281C1414 281 1414 279 1412 278L1412 276C1412 276 1412 276 1412 278L1416 278L1416 275L1414 274C1414 274 1414 271 1415 270C1416 268 1419 270 1419 270L1419 264L1423 263C1423 263 1424 263 1423 265C1423 267 1420 271 1420 271L1423 278L1426 278L1426 280L1429 280L1426 282L1431 283L1429 284L1434 286L1435 288L1436 288L1438 288L1442 289L1444 287L1442 283L1442 282L1444 282L1446 282C1446 282 1449 282 1449 280C1450 278 1446 275 1446 275L1447 274C1447 274 1454 280 1457 286C1460 292 1466 308 1466 308L1463 310L1459 311L1459 320C1459 320 1455 320 1454 321C1452 321 1447 323 1447 323L1446 321C1446 321 1446 323 1443 323C1440 323 1441 321 1440 321C1438 321 1437 322 1436 327C1435 327 1435 328 1435 330C1455 369 1466 401 1473 443C1481 490 1483 525 1483 533C1483 534 1483 534 1483 534C1480 538 1472 546 1445 558C1445 559 1445 560 1445 561C1444 565 1444 565 1447 569C1451 573 1455 581 1454 584C1452 587 1454 585 1455 587C1457 589 1459 597 1458 600C1455 602 1455 601 1455 605C1455 608 1457 608 1454 615C1453 621 1449 629 1446 633C1444 638 1438 653 1438 655C1438 657 1438 674 1438 674L1436 681L1429 699L1432 709L1435 712C1488 648 1522 567 1525 478C1525 475 1524 473 1524 470C1524 467 1525 454 1525 443C1525 438 1525 434 1524 429C1524 429 1524 429 1524 429C1523 413 1519 385 1519 385L1519 389L1520 404L1518 403L1516 396L1515 393L1512 389L1511 387C1511 387 1506 377 1506 373C1506 369 1502 370 1502 370C1502 370 1496 356 1495 355C1494 353 1488 349 1488 349C1488 349 1488 344 1487 343C1486 341 1473 327 1473 327L1468 321C1468 321 1468 319 1469 319C1471 319 1475 325 1475 325L1477 325L1472 318L1475 321C1475 321 1478 324 1481 327C1484 329 1487 337 1487 337C1487 337 1492 340 1494 343C1496 344 1499 354 1499 354L1502 357C1502 357 1504 362 1509 367C1513 371 1515 388 1515 388L1516 387C1516 387 1515 374 1514 364C1509 341 1502 321 1493 300C1492 300 1492 299 1492 299C1492 298 1492 298 1490 297C1489 294 1488 292 1488 292C1488 292 1488 292 1488 292C1426 160 1293 69 1139 69C1137 69 1136 69 1133 69ZM1403 175C1403 175 1403 175 1403 175C1403 175 1405 176 1406 177C1409 183 1414 186 1415 188C1416 190 1417 191 1416 191C1414 190 1403 180 1403 180L1403 178C1403 178 1402 175 1403 175ZM1406 190C1408 190 1415 196 1416 198C1417 199 1417 201 1418 202C1419 204 1420 206 1420 206C1420 206 1426 211 1426 211C1427 211 1431 211 1431 211L1436 216L1437 218C1437 218 1445 226 1446 229C1449 230 1452 234 1453 235C1453 237 1453 240 1452 240C1452 241 1451 241 1451 241C1450 241 1449 242 1449 240C1447 239 1436 225 1436 224C1435 224 1425 217 1425 217C1425 216 1417 211 1416 211C1416 211 1410 199 1410 199C1410 198 1406 192 1406 192C1406 190 1405 190 1406 190ZM1403 216C1403 216 1410 222 1410 222C1410 223 1411 226 1411 227C1412 227 1414 227 1417 227C1420 229 1428 232 1429 234C1432 235 1433 241 1433 243C1433 245 1429 247 1429 247C1429 247 1425 247 1423 248C1422 249 1424 256 1424 257C1425 258 1423 259 1422 260C1420 260 1419 262 1417 259C1415 258 1406 245 1403 240C1401 235 1401 235 1399 232C1398 230 1400 230 1399 227C1399 225 1400 230 1401 230C1401 231 1401 231 1402 231C1402 231 1403 231 1403 231L1403 229C1403 229 1405 229 1406 230C1406 230 1406 231 1405 232C1405 232 1406 234 1406 234C1406 234 1407 233 1408 233C1409 233 1409 233 1410 234C1410 235 1410 237 1411 237C1412 238 1412 237 1412 237C1412 235 1412 234 1411 232C1411 231 1411 231 1411 230C1412 229 1412 227 1411 227C1410 226 1410 229 1409 229C1409 229 1408 229 1407 227C1406 227 1403 226 1403 226C1403 226 1406 225 1406 224C1406 223 1405 218 1405 216L1403 216Z"/>
  <text x="150" y="605" style="fill:#fff; font-family: Arial, sans-serif; font-size: 150px; font-weight:900;">
    <tspan style="font-size:200px;fill:yellow ">돌</tspan><tspan>은​</tspan>
    <tspan x="150" dy="1.2em">어디서 오는가?</tspan>
  </text>
</svg>