<?xml version="1.0" encoding="utf-8"?>
<!-- File:"440-monkey.svg", https://twitter.com/webalys, CC BY 4.0 DEED -->
<svg viewBox="0 0 1600 900"
  xmlns="http://www.w3.org/2000/svg">
  <rect width="1600" height="900" style="stroke: rgb(0, 0, 0); fill: rgb(1, 1, 1);"/>
  <text x="100" y="250" style="fill: rgb(255, 255, 255); font-size: 140px;">
    <tspan style="fill: yellow; font-size: 180px; font-weight: 900;">분류</tspan>
    <tspan>를 하더니</tspan>
    <tspan x="100" dy="1.4em" style="fill: yellow; font-size: 180px; font-weight: 900;">진화</tspan>
    <tspan>를 보다</tspan>
  </text>
  <g transform="matrix(1.6, 0, 0, 1.6, 970, 290)" style="">
    <ellipse cx="145.138" cy="319" rx="136" ry="11" style="opacity: 0.85; fill: rgb(0, 255, 8);"/>
    <path d="M55 200L50 187C48 181 43 178 38 179C31 180 26 186 27 194C32 232 22 244 4 265C0 269 0 275 3 279C6 284 11 286 17 284C52 272 70 234 55 200Z" style="fill: rgb(255, 229, 0);"/>
    <path d="M27 206C29 201 33 198 38 198C43 197 49 201 50 206L55 219C58 224 59 228 60 232C62 222 60 210 55 200L50 187C48 181 43 178 38 179C31 180 26 186 27 194C27 197 27 202 27 206Z" style="fill: rgb(255, 244, 140);"/>
    <path d="M5 282C21 263 30 251 27 219C25 238 17 249 3 264C-1 268 -1 274 2 279C4 280 4 281 5 282Z" style="fill: rgb(255, 244, 140);"/>
    <path d="M55 200L50 187C48 181 43 178 38 179C31 180 26 186 27 194C32 232 22 244 4 265C0 269 0 275 3 279C6 284 11 286 17 284C52 272 70 234 55 200Z" style="fill: none; stroke: rgb(69, 65, 60);"/>
    <line x1="35.138" y1="179" x2="30.138" y2="165" style="fill: none; stroke: rgb(255, 229, 0); stroke-width: 5px;"/>
    <line x1="43.138" y1="160" x2="16.138" y2="171" style="fill: none; stroke: rgb(255, 229, 0); stroke-width: 5px;"/>
    <path d="M223 128C219 135 221 144 228 148C235 152 244 149 248 143C255 130 271 125 284 130C310 142 325 171 317 200C304 251 259 286 206 286L145 286L141 315L208 315C274 315 332 270 348 206C358 165 338 123 300 105C272 91 239 101 223 128Z" style="fill: rgb(191, 130, 86);"/>
    <path d="M319 193C319 195 319 197 318 199C305 250 259 285 207 285L146 285L143 302L207 302C259 302 305 267 318 216C320 208 320 200 319 193Z" style="fill: rgb(222, 164, 122);"/>
    <path d="M223 128C220 133 220 140 224 144C240 118 273 108 300 121C329 135 348 162 351 193C354 156 335 121 300 105C272 91 239 101 223 128Z" style="fill: rgb(222, 164, 122);"/>
    <path d="M223 128C219 135 221 144 228 148C235 152 244 149 248 143C255 130 271 125 284 130C310 142 325 171 317 200C304 251 259 286 206 286L145 286L141 315L208 315C274 315 332 270 348 206C358 165 338 123 300 105C272 91 239 101 223 128Z" style="fill: none; stroke: rgb(69, 65, 60);"/>
    <path d="M227 213C214 151 160 105 96 105L96 197L63 190C51 188 41 200 45 211C46 217 52 222 58 222L96 228L96 247C88 254 84 266 84 278L85 286L79 286C66 286 56 298 58 310C59 314 62 316 66 316C91 316 148 316 173 316C205 316 231 290 231 258C230 243 229 228 227 213Z" style="fill: rgb(191, 130, 86);"/>
    <path d="M96 181C130 181 160 160 173 131C151 115 125 106 96 106L96 181Z" style="fill: rgb(145, 94, 58);"/>
    <path d="M227 213C214 151 160 105 96 105L96 197L63 190C51 188 41 200 45 211C46 217 52 222 58 222L96 228L96 247C88 254 84 266 84 278L85 286L79 286C66 286 56 298 58 310C59 314 62 316 66 316C91 316 148 316 173 316C205 316 231 290 231 258C230 243 229 228 227 213Z" style="fill: none; stroke: rgb(69, 65, 60);"/>
    <path d="M160 51C160 51 159 51 159 51C152 22 126 0 96 0C65 0 39 22 33 51C32 51 31 51 31 51C17 51 6 62 6 76L6 81C6 95 17 106 31 106C32 106 33 106 33 106C39 134 65 155 96 155C127 155 152 134 159 105C160 105 160 105 160 105C174 105 185 94 185 80L185 75C185 61 174 51 160 51Z" style="fill: rgb(191, 130, 86);"/>
    <path d="M160 51C160 51 159 51 159 51C152 22 126 0 96 0C65 0 39 22 33 51C32 51 31 51 31 51C17 51 6 62 6 76L6 81C6 84 7 86 8 89C11 79 20 71 31 71C32 71 33 71 33 71C39 42 65 21 96 21C126 21 152 42 159 71C160 71 160 71 160 71C172 71 181 79 184 89C185 86 185 83 185 81L185 76C185 61 174 51 160 51Z" style="fill: rgb(222, 164, 122);"/>
    <path d="M160 51C160 51 159 51 159 51C152 22 126 0 96 0C65 0 39 22 33 51C32 51 31 51 31 51C17 51 6 62 6 76L6 81C6 95 17 106 31 106C32 106 33 106 33 106C39 134 65 155 96 155C127 155 152 134 159 105C160 105 160 105 160 105C174 105 185 94 185 80L185 75C185 61 174 51 160 51Z" style="fill: none; stroke: rgb(69, 65, 60);"/>
    <path d="M131 95C139 103 144 114 144 126C144 130 143 133 142 136C130 148 114 155 96 155C74 155 56 146 44 130C44 130 44 130 44 130C44 129 43 127 43 126C43 114 49 104 56 95C49 90 43 81 43 70C43 54 57 41 73 41C81 41 87 44 93 48C98 44 105 41 112 41C129 41 142 54 142 70C144 81 138 90 131 95Z" style="fill: rgb(255, 220, 209); stroke: rgb(69, 65, 60);"/>
    <path d="M121 60C126 60 131 65 130 71C130 76 125 80 120 80C114 80 110 75 111 69C111 64 116 60 121 60Z" style="fill: rgb(69, 65, 60);"/>
    <path d="M71 60C77 61 81 65 80 71C80 76 75 80 70 80C65 80 60 75 61 70C61 64 66 60 71 60Z" style="fill: rgb(69, 65, 60);"/>
    <path d="M75 120C75 120 84 130 95 130C107 130 115 120 115 120" style="fill: none; stroke: rgb(69, 65, 60);"/>
    <line x1="95.886" y1="196.556" x2="122.506" y2="201.119" style="fill: none; stroke: rgb(69, 65, 60);"/>
    <path d="M152 171L164 204C170 221 156 238 139 235L96 228" style="fill: none; stroke: rgb(69, 65, 60);"/>
    <path d="M163 279C165 255 145 235 120 235C110 236 102 240 96 247" style="fill: none; stroke: rgb(69, 65, 60);"/>
  </g>
</svg>