<?xml version="1.0" encoding="utf-8"?>
<svg viewBox="0 0 360 230" xmlns="http://www.w3.org/2000/svg" xmlns:xlink="http://www.w3.org/1999/xlink">
  <marker id="marker01" markerWidth="7" markerHeight="6" viewBox="-6 -3 6 6" orient="auto">
    <path d="M-5 -2L0 0 -5 2" stroke="#F00" fill="none" />
  </marker>
  <marker id="marker02" markerWidth="7" markerHeight="6" viewBox="0 -3 6 6" orient="auto">
    <path d="M5 2L0 0 5 -2" stroke="#F00" fill="none" />
  </marker>
  <g style="fill:none; stroke:#aaa">
    <path d="M0 50h360"/>
    <path d="M0 100h360"/>
    <path d="M0 150h360"/>
    <path d="M0 200h360"/>
  </g>
  <g style="fill:none; stroke:#000">
    <path d="M0 50q20 30 40 0t40 0 40 0 40 0 40 0 40 0 40 0 40 0 40 0" />
    <path d="M0 100q10 30 20 0t20 0 20 0 20 0 20 0 20 0 20 0 20 0 20 0 20 0 20 0 20 0 20 0 20 0 20 0 20 0 20 0 20 0" />
    <path d="M0 150q20 60 40 0t40 0 40 0 40 0 40 0 40 0 40 0 40 0 40 0" />
    <path d="M-60 200q20 30 40 0t40 0 40 0 40 0 40 0 40 0 40 0 40 0 40 0 40 0 40 0" />
  </g>
  <g style="fill:none; stroke:#f00">
    <path d="M0.5 10v50M80 10v50" />
    <path d="M0 20h80" marker-end="url(#marker01)" marker-start="url(#marker02)" />
    <path d="M130 35h100M130 65h100" />
    <path d="M160 35v30" marker-end="url(#marker01)" marker-start="url(#marker02)" />
    <path d="M260 20v50" />
    <path d="M260 35h40" marker-end="url(#marker01)" />
    <path d="M0.5 70v50M40 70v50" />
    <path d="M0 80h40" marker-end="url(#marker01)" marker-start="url(#marker02)" />
    <path d="M130 120h100M130 180h100" />
    <path d="M160 120v60" marker-end="url(#marker01)" marker-start="url(#marker02)" />
    <path d="M260 182v40" />
    <path d="M260 185h60" marker-end="url(#marker01)" />
  </g>
  <g style="font-size:10; fill:#888; font-weight:800">
    <text x="3" y="47">기준</text>
    <text x="41" y="83">주파수 변조</text>
    <text x="0" y="139">진폭 변조</text>
    <text x="18" y="195">위상 변조</text>
  </g>
  <g style="font-size:8; fill:blue">
    <text x="27" y="17">주파수</text>
    <text x="16" y="77">x2</text>
    <text x="172" y="32">진폭</text>
    <text x="175" y="129">x2</text>
    <text x="268" y="32">위상</text>
    <text x="268" y="195">+90º</text>
  </g>
</svg>