<?xml version="1.0" encoding="utf-8"?>
<svg viewBox="0 0 200 200" xmlns="http://www.w3.org/2000/svg" xmlns:xlink="http://www.w3.org/1999/xlink" xmlns:bx="https://boxy-svg.com">
  <defs>
    <linearGradient x1="126.17627" y1="185.83984" x2="126.17627" y2="267.81442" id="XMLID_41_" gradientUnits="userSpaceOnUse">
      <stop style="stop-color:#ffffde;stop-opacity:1.0000000;" offset="0" id="stop465"/>
      <stop style="stop-color:#ff9200;stop-opacity:1.0000000;" offset="1" id="stop467"/>
    </linearGradient>
    <linearGradient x1="125.95068" y1="192.5957" x2="125.95068" y2="187.64168" id="XMLID_40_" gradientUnits="userSpaceOnUse">
      <stop style="stop-color:white;stop-opacity:0;" offset="0" id="stop448"/>
      <stop style="stop-color:#000000;stop-opacity:1.0000000;" offset="1" id="stop450"/>
    </linearGradient>
    <linearGradient x1="125.95068" y1="229.97754" x2="125.95068" y2="148.00539" id="XMLID_39_" gradientUnits="userSpaceOnUse">
      <stop style="stop-color:#ffe291;stop-opacity:1;" offset="0" id="stop427"/>
      <stop style="stop-color:#ff6d00;stop-opacity:1.0000000;" offset="0.7977" id="stop429"/>
      <stop style="stop-color:#cf0000;stop-opacity:1.0000000;" offset="1" id="stop431"/>
    </linearGradient>
    <linearGradient x1="126.17725" y1="175.92969" x2="126.17725" y2="186.74023" id="XMLID_38_" gradientUnits="userSpaceOnUse">
      <stop style="stop-color:#ffe091;stop-opacity:1.0000000;" offset="0" id="stop406"/>
      <stop style="stop-color:#ff6d00;stop-opacity:1.0000000;" offset="0.7977" id="stop408"/>
      <stop style="stop-color:#cf3f00;stop-opacity:1;" offset="1" id="stop410"/>
    </linearGradient>
    <linearGradient gradientUnits="userSpaceOnUse" id="linearGradient2998" y2="148.00539" x2="125.95068" y1="229.97754" x1="125.95068">
      <stop id="stop3000" offset="0" style="stop-color:#e8bd44;stop-opacity:1;"/>
      <stop id="stop3002" offset="0.7977" style="stop-color:#a34d0c;stop-opacity:1;"/>
      <stop id="stop3004" offset="1" style="stop-color:maroon;stop-opacity:1;"/>
    </linearGradient>
    <linearGradient id="linearGradient1420" gradientUnits="userSpaceOnUse" gradientTransform="matrix(0,-5.247727,10.95772,0,-721.216,547.1534)" x1="6.0000033" y1="95.468674" x2="6" y2="98" xlink:href="#XMLID_38_"/>
    <linearGradient id="linearGradient1428" gradientUnits="userSpaceOnUse" gradientTransform="matrix(2.644513,3.795243e-16,1.148662e-17,6.553111,298.6637,-930.9669)" x1="125.95068" y1="229.97754" x2="125.95068" y2="148.00539" xlink:href="#linearGradient2998"/>
    <linearGradient id="linearGradient1432" gradientUnits="userSpaceOnUse" gradientTransform="matrix(2.568214,-0.573527,0,1.229936,287.2105,3.652)" x1="126.17725" y1="175.92969" x2="126.17725" y2="185.51038" xlink:href="#XMLID_38_"/>
    <linearGradient id="linearGradient1438" gradientUnits="userSpaceOnUse" gradientTransform="matrix(0,-5.247727,10.95772,0,-190.8335,427.8501)" x1="6" y1="95.46875" x2="6" y2="98" xlink:href="#XMLID_38_"/>
    <linearGradient id="linearGradient1442" gradientUnits="userSpaceOnUse" gradientTransform="matrix(-2.568214,-0.573527,0,1.229936,627.7286,58.3595)" x1="126.17725" y1="175.92969" x2="126.17725" y2="186.74023" xlink:href="#XMLID_38_"/>
    <linearGradient id="linearGradient1446" gradientUnits="userSpaceOnUse" gradientTransform="matrix(2.633084,3.08386e-16,0,1.229936,-395.6651,-78.03501)" x1="125.95068" y1="192.5957" x2="125.95068" y2="187.64168" xlink:href="#XMLID_40_"/>
    <linearGradient id="linearGradient1450" gradientUnits="userSpaceOnUse" gradientTransform="matrix(2.739833,-8.109926e-16,0,6.667675,-407.5928,-1099.221)" x1="125.95068" y1="229.97754" x2="125.95068" y2="148.00539" xlink:href="#XMLID_39_"/>
    <linearGradient id="linearGradient1453" gradientUnits="userSpaceOnUse" gradientTransform="matrix(0,-5.247727,10.95772,0,-1005.776,483.7598)" x1="6" y1="95.46875" x2="6" y2="98" xlink:href="#XMLID_38_"/>
    <linearGradient id="linearGradient1456" gradientUnits="userSpaceOnUse" gradientTransform="matrix(0,-5.247727,10.95772,0,-1005.776,483.7598)" x1="6" y1="95.46875" x2="6" y2="98" xlink:href="#XMLID_38_"/>
    <linearGradient id="linearGradient1461" gradientUnits="userSpaceOnUse" gradientTransform="matrix(2.544799,5.65059e-16,5.65059e-16,2.544799,-168.9081,435.5156)" x1="111.40794" y1="-97.593391" x2="-102.11429" y2="206.31804" xlink:href="#XMLID_41_"/>
    <linearGradient id="linearGradient1468" gradientUnits="userSpaceOnUse" gradientTransform="matrix(2.733044,-7.647238e-16,0,6.28727,-958.2506,-1237.439)" x1="125.95068" y1="229.97754" x2="125.95068" y2="148.00539" xlink:href="#XMLID_39_"/>
  </defs>
  <g transform="matrix(0.2, 0, 0, 0.2, 10, 80)">
    <g id="layer1">
      <path id="path1470" d="M 563.38003,33.277723 C 563.38003,124.63442 563.38003,225.2616 563.38003,316.61832 C 563.38003,318.01247 788.09725,361.72655 876.7022,381.51358 C 876.7022,290.51198 876.7022,199.4694 876.7022,108.4678 C 876.7022,106.71855 876.7022,104.96931 876.7022,103.22008 C 772.21911,79.887193 667.86309,56.610593 563.38003,33.277723 z " style="fill:#460000;fill-opacity:1;stroke:none"/>
      <rect id="rect1466" style="fill:url(#linearGradient1468);fill-opacity:1;stroke:none" y="-51.979568" x="-883.68542" height="249.16132" width="293.44528" transform="matrix(-0.979847,-0.199751,0,1,0,0)"/>
      <path d="M 5.125,50.9375 C 4.3677831,50.902898 3.5631859,51.051762 2.78125,51.46875 C 1.2731034,52.273008 0.46875,54.055157 0.46875,55.53125 L 0.46875,59.6875 C 0.46875,62.688023 2.1114133,64.765402 4.625,65.9375 L 161.46875,139.09375 C 162.74172,139.68735 164.39716,139.91505 165.90625,139.125 C 167.41534,138.33495 168.25001,136.53153 168.25,135.03125 L 168.25,130.875 C 168.25,127.87446 166.64415,125.78303 164.09375,124.59375 L 7.25,51.46875 C 6.6104909,51.170544 5.8822169,50.972102 5.125,50.9375 z " id="path8356" style="fill:#460000;fill-opacity:1" transform="matrix(3.531293,0,0,1.691161,5.79833,48.7507)"/>
      <path transform="matrix(2.42446,0,0,1.057336,261.087,144.9431)" d="M 5.03125,53.1875 C 4.6360939,53.169255 4.2291093,53.263247 3.84375,53.46875 C 3.1894515,53.817672 2.71875,54.749351 2.71875,55.53125 L 2.71875,59.6875 C 2.71875,61.620448 3.8373029,63.05596 5.59375,63.875 L 162.4375,137.03125 C 163.23909,137.40504 164.09472,137.48588 164.84375,137.09375 C 165.50238,136.74894 166.00001,135.81505 166,135.03125 L 166,130.875 C 166,128.93406 164.90074,127.4843 163.125,126.65625 L 6.28125,53.53125 C 5.8604519,53.33503 5.4448414,53.206596 5.03125,53.1875 z " id="path19386" style="fill:#460000;fill-opacity:1" xlink:href="#path18503"/>
      <path id="path7819" d="M 580.05903,10.04859 L 16.079119,135.66605 L 332.82557,206.18238 C 330.15024,206.79022 327.45312,207.37788 324.7785,207.98628 C 311.99233,212.78263 308.96661,224.55355 322.55271,229.38717 C 340.50984,232.90126 356.73003,223.66655 373.40335,221.67957 C 547.87765,182.4991 723.18983,144.02642 897.14789,104.42568 C 903.47067,102.04773 907.32264,97.99645 908.01029,93.91069 C 908.74543,89.54256 908.32362,83.10418 900.22975,81.30288 L 580.05903,10.04859 z " style="fill:#460000;fill-opacity:1"/>
      <rect transform="matrix(0.976082,-0.217403,0.976082,0.217403,0,0)" style="color:#000000;fill:url(#linearGradient1461);fill-opacity:1;fill-rule:evenodd;stroke:none;stroke-width:3;stroke-linecap:square;stroke-linejoin:miter;marker:none;marker-start:none;marker-mid:none;marker-end:none;stroke-miterlimit:4;stroke-dasharray:none;stroke-dashoffset:0;stroke-opacity:1;visibility:visible;display:inline;overflow:visible" id="rect20301" width="573.10162" height="321.31415" x="-312.12561" y="333.53336"/>
      <path id="rect9621" d="M 30.46112,152.22919 C 30.46112,243.58589 30.46112,334.90219 30.46112,426.25891 C 30.46112,427.65306 30.46112,429.04656 30.46112,430.4407 L 30.46112,448.39777 C 30.461125,453.08849 38.815156,457.0893 48.609837,457.0893 L 59.909978,457.0893 C 69.704697,457.0893 78.058695,453.08847 78.058695,448.39777 L 78.058695,441.10014 C 166.66365,460.88716 255.17834,480.67802 343.78329,500.46505 C 343.78329,409.46345 343.78329,318.42087 343.78329,227.41927 C 343.78329,225.67002 343.78329,223.92078 343.78329,222.17155 C 239.30021,198.83866 134.94419,175.56206 30.46112,152.22919 z " style="fill:#460000;fill-opacity:1;stroke:none"/>
      <path id="rect6938" d="M 884.37547,100.34782 C 699.61741,142.20839 521.80848,179.737 337.05038,221.59757 C 337.05038,223.34682 337.07633,225.09626 337.05038,226.84529 L 333.13508,490.81914 C 333.13508,490.81914 326.48214,516.34941 336.0885,516.34941 L 347.10976,517.80367 C 356.71627,517.80368 355.08206,509.5021 355.08206,504.83453 L 354.01347,370.7973 C 512.78712,334.82563 693.14211,292.15632 851.90432,256.18565 L 850.13374,379.58488 C 850.13374,384.27273 852.74156,402.56215 862.38969,402.56215 L 873.52762,402.56215 C 883.17574,402.56215 885.78353,398.55839 885.78353,393.87059 C 885.78353,393.87059 884.37547,193.09866 884.37547,100.34782 z " style="fill:#460000;fill-opacity:1;stroke:none"/>
      <path id="path22309" d="M 40.31679,426.31225 L 40.31679,448.35361 C 40.31679,450.55645 43.935355,452.28942 48.535076,452.28942 L 59.835221,452.28942 C 64.434995,452.28942 68.053507,450.55643 68.053507,448.35361 L 68.053507,426.31225 L 40.31679,426.31225 z " style="fill:url(#linearGradient1456);fill-opacity:1"/>
      <path style="fill:url(#linearGradient1453);fill-opacity:1" d="M 40.31679,426.31225 L 40.31679,448.35361 C 40.31679,450.55645 43.935355,452.28942 48.535076,452.28942 L 59.835221,452.28942 C 64.434995,452.28942 68.053507,450.55643 68.053507,448.35361 L 68.053507,426.31225 L 40.31679,426.31225 z " id="path25827"/>
      <rect id="rect20297" style="opacity:0.7;fill:url(#linearGradient1446)" y="152.57681" x="-342.13797" height="36.355179" width="300.82913" transform="matrix(-0.97599,-0.217816,0,1,0,0)"/>
      <path id="path6589" d="M 21.247737,137.64235 C 7.548211,140.16569 10.626976,150.83932 18.268208,155.61094 C 61.028141,167.28468 108.27557,175.82563 152.56998,186.42524 C 296.22406,218.18643 439.49962,251.16632 583.38544,282.18377 C 599.71697,281.59516 596.9628,269.81424 590.22732,264.84937 C 569.21507,256.37104 539.36922,253.57768 515.61968,246.88572 C 351.75098,210.5764 188.43613,173.31115 24.227265,137.5895 C 23.234485,137.60556 22.228222,137.54599 21.247737,137.64235 z " style="fill:#460000;fill-opacity:1"/>
      <path id="path12266" style="fill:url(#linearGradient1442)" d="M 338.96217,219.95461 C 293.24789,220.7289 335.234,223.11095 330.63428,222.08374 L 26.72636,155.52942 C 22.126613,154.50222 18.394689,151.88277 18.394689,149.67993 L 18.394689,142.65591 C 18.394689,140.45308 22.126613,139.50043 26.72636,140.52763 L 330.63428,207.08195 C 335.234,208.10917 338.96217,210.72778 338.96217,212.9306 L 338.96217,219.95461 L 338.96217,219.95461 z "/>
      <rect y="222.19533" x="329.12747" height="3.4521444" width="9.9112644" id="rect19380" style="color:#000000;fill:#460000;fill-opacity:1;fill-rule:evenodd;stroke:none;stroke-width:3;stroke-linecap:square;stroke-linejoin:miter;marker:none;marker-start:none;marker-mid:none;marker-end:none;stroke-miterlimit:4;stroke-dasharray:none;stroke-dashoffset:0;stroke-opacity:1;visibility:visible;display:inline;overflow:visible"/>
      <path style="fill:url(#linearGradient1438);fill-opacity:1" d="M 857.45386,245.9409 L 855.25925,392.44396 C 855.25925,394.6468 858.87784,396.37976 863.47756,396.37976 L 874.7777,396.37976 C 879.37745,396.37976 882.99597,394.64678 882.99597,392.44396 L 882.99597,244.68832 L 857.45386,245.9409 z " id="path22300"/>
      <rect y="215.36592" x="359.88559" height="5.247726" width="15.401117" id="rect17623" style="color:#000000;fill:#460000;fill-opacity:1;fill-rule:evenodd;stroke:none;stroke-width:3;stroke-linecap:square;stroke-linejoin:miter;marker:none;marker-start:none;marker-mid:none;marker-end:none;stroke-miterlimit:4;stroke-dasharray:none;stroke-dashoffset:0;stroke-opacity:1;visibility:visible;display:inline;overflow:visible"/>
      <path id="path11381" d="M 889.91011,82.81096 C 702.20695,124.34362 514.46654,166.0503 327.72795,208.46942 C 317.72421,212.50227 314.80621,223.74152 329.61131,225.64753 C 350.24487,224.63474 366.53753,216.9334 386.35999,214.09185 C 555.80664,175.99808 726.36071,138.80512 895.04652,100.03007 C 905.2587,96.14546 907.82864,82.64182 889.91011,82.81096 z " style="fill:#460000;fill-opacity:1"/>
      <path d="M 325.97698,220.68441 C 325.97698,222.88725 329.70516,223.84072 334.30487,222.81353 L 888.2128,99.11636 C 892.81252,98.08916 896.54446,95.46972 896.54446,93.26688 L 896.54446,87.94836 C 896.54446,85.74554 892.81252,84.79289 888.2128,85.82009 L 334.30487,209.51726 C 329.70516,210.54446 325.97698,213.16307 325.97698,215.3659 L 325.97698,220.68441 L 325.97698,220.68441 z " style="fill:url(#linearGradient1432);fill-opacity:1" id="path423"/>
      <path id="rect22326" d="M 333.92358,493.00344 L 40.316861,427.43598 L 40.316861,429.0759 L 333.92358,494.70894 L 333.92358,493.00344 z " style="fill:#460000;fill-opacity:1;stroke:none"/>
      <path style="fill:url(#linearGradient1420);fill-opacity:1" d="M 324.26241,231.76183 L 324.90291,511.73126 C 324.90292,513.93409 328.5215,515.66706 333.1212,515.66706 L 344.42134,515.66706 C 349.02106,515.66706 352.63963,513.93409 352.63963,511.73126 L 349.14198,233.04285 L 324.26241,231.76183 z " id="path3184"/>
      <rect transform="matrix(0.975206,-0.2213,6.287729e-3,0.99998,0,0)" width="552.711" height="141.0567" x="349.52072" y="305.13745" style="fill:url(#linearGradient1428);fill-opacity:1;stroke:none" id="rect444"/>
      <rect id="rect9595" style="fill:url(#linearGradient1450);fill-opacity:1;stroke:none" y="160.88998" x="-332.84232" height="258.70059" width="295.67108" transform="matrix(-0.977419,-0.211312,0,1,0,0)"/>
    </g>
  </g>
  <g transform="matrix(0.1, 0, 0, 0.1, 61, 9)" style="">
    <title id="title3945">Stone</title>
    <g id="g-1" transform="translate(-925.87,132.46221)">
      <g id="g3931" transform="matrix(0.82012723,0.00238775,-0.00238775,0.82012723,1048.0442,76.687642)">
        <path id="path3006-1" d="m 67.36,-158.21 c -17.279,3.0713 -35.335,14.069 -33.043,33.612 -7.4476,16.048 -14.719,32.185 -22.008,48.221 -10.712,18.638 -22.285,37.853 -22.893,60.015 -2.7339,25.779 -22.356,47.703 -19.573,74.561 0.0089,29.32 0.0031,58.647 0,87.968 -0.73744,1.6377 -1.364,3.3346 -1.8655,5.0592 -4.8611,23.544 -4.8059,48.111 -13.565,70.861 -9.509,10.334 -12.397,24.651 -14.103,38.134 -2.9869,18.283 -4.6517,36.557 -6.419,54.988 -4.1718,20.531 -11.494,40.303 -15.367,60.964 -7.9464,18.272 1.9671,42.039 -12.363,57.834 -6.647,22.752 -26.471,40.452 -26.877,65.106 0.47344,8.4494 5.9492,13.456 12.87,17.676 -1.5838,4.5691 -2.9072,9.3053 -4.7747,12.901 -6.7401,17.088 -4.201,35.74 -4.8379,53.596 -0.20864,3.554 0.37682,6.3572 1.5494,8.6323 3.0883,13.072 12.125,30.368 22.451,44.047 27.065,22.162 32.185,57.948 38.925,90.118 2.0083,15.51 6.2053,29.333 11.352,42.245 0.67248,2.7496 1.6343,5.3311 3.162,7.5889 7.2857,16.697 15.864,32.053 22.988,47.81 21.133,29.064 67.652,13.904 87.462,44.806 19.45,22.603 47.501,42.604 78.861,38.261 63.854,13.424 129.29,18.064 193.14,30.703 55.037,1.2541 110.11,0.14864 165.15,0.50593 6.9509,12.076 45.529,10.311 73.454,4.6482 4.6765,1.481 9.0768,2.7235 12.648,3.4782 4.5252,2.4839 9.8806,2.5501 17.012,-2.1818 17.754,-17.659 40.073,-27.397 64.822,-30.83 20.893,-6.0125 43.178,-8.9672 62.735,-17.107 5.1979,-24.345 -4.0423,-49.6 -8.8854,-73.77 -11.101,-23.059 -11.865,-49.234 -15.747,-74.244 -2.3098,-24.376 -9.3361,-47.929 -12.553,-71.968 0.25094,-15.355 4.9888,-42.315 0.3162,-55.62 0.0466,-0.32916 0.0498,-0.67136 0.0632,-1.0434 0.49186,-6.4366 0.0114,-12.809 -0.79056,-19.162 0.10443,-4.3223 -0.0139,-9.0415 -0.41101,-14.229 -1.1,-3.6242 -2.0801,-7.2901 -2.9406,-10.972 -0.0911,-1.1575 -0.13862,-2.3176 -0.18982,-3.4781 -1.6422,-10.732 -1.9537,-21.624 -1.7707,-32.411 -0.9818,-10.236 -2.199,-20.53 -4.7746,-30.482 -0.33988,-14.689 -0.38784,-29.38 -1.0118,-43.826 -1.7982,-32.502 9.6891,-78.424 -27.225,-94.513 -34.795,-25.788 -17.531,-77.824 -21.565,-115.22 6.0825,-25.522 -0.93181,-48.648 -15.526,-67.003 -1.4038,-3.4344 -3.6376,-6.4405 -6.83,-8.7588 -7.4401,-18.499 -15.067,-22.421 -46.419,-30.166 -1.5826,-1.1146 -3.1275,-2.2706 -4.6482,-3.4466 -1.2304,-18.88 -17.848,-31.806 -31.114,-46.197 -14.51,-14.594 -22.97,-26.137 -35.85,-39.981 -4.75,-19.559 -19.49,-33.926 -30.93,-49.676 -19.02,-19.831 -26.22,-50.69 -52.71,-62.924 -19.394,-6.8081 -33.826,-24.317 -54.545,-27.352 -12.255,2.4982 -31.092,7.2513 -39.304,-1.5494 -5.6669,-0.51564 -11.163,-1.5012 -16,-1.8656 -15.616,-6.7964 -31.258,-13.61 -47.43,-18.846 -31.638,-21.984 -77.176,-15.522 -104.09,-43.731 -29.011,-3.1079 -58.819,-11.134 -87.462,-11.257 l -0.5376,-0.50593 z" style="fill:#666666;stroke:#000000;stroke-width:12"/>
        <path id="path3006" d="m -20,140.93 c 4.3847,20.532 15.045,40.346 11.212,61.941 -0.44572,23.197 24.037,56.1 13.411,77.799 -6.0152,18.316 -15.089,34.052 -13.192,53.356 -2.232,19.396 -12.572,32.265 -1.9184,48.713 10.684,19.938 14.352,42.782 17.941,64.8 2.4284,22.402 24.14,44.855 24.053,67.345 1.4586,19.258 0.32013,86.082 -24.216,94.921 -17.587,7.9096 -49.575,-30.254 -58.788,-10.005 -5.8048,12.776 -16.015,9.1861 -15.143,-4.3656 -0.65017,-19.518 7.6497,-43.022 -7.9145,-58.846 -9.443,-17.406 -39.528,-17.737 -40.662,-37.98 0.40169,-24.365 19.997,-41.855 26.566,-64.34 14.163,-15.61 4.3498,-39.087 12.203,-57.145 3.8282,-20.419 11.062,-39.953 15.185,-60.244 1.7466,-18.215 3.4144,-36.297 6.3663,-54.365 1.6854,-13.326 4.5278,-27.463 13.925,-37.676 8.6566,-22.484 8.5995,-46.768 13.404,-70.036 1.4831,-5.1001 4.0148,-9.9076 7.5681,-13.872 z" style="fill:#666666"/>
        <path id="path3008" d="m -85.888,501.08 c -15.39,-1.4793 -16.105,17.697 -21.332,27.761 -6.6613,16.888 -4.1577,35.335 -4.7871,52.983 -1.0735,18.283 19.381,16.537 29.758,25.004 16.045,10.063 22.043,28.798 29.064,45.32 3.3578,15.096 3.0169,30.881 8.6079,45.464 4.016,13.837 -0.24936,28.352 2.6571,42.405 3.4613,12.429 -0.81867,30.204 12.366,37.555 16.249,6.1087 17.753,-15.953 26.346,-23.895 9.1063,-11.32 24.059,-17.96 38.572,-15.62 13.972,-1.95 13.851,-21.72 11.336,-31.84 -7.761,-9.71 -20.165,-14.19 -28.074,-23.55 -8.368,-11.57 -14.62,-26.02 -28.313,-31.87 -13.053,-4.24 -16.416,-18.54 -23.994,-28.44 -7.1603,-6.694 -22.074,-7.3764 -18.336,-21.325 0.26502,-13.049 1.7021,-26.439 -0.81551,-39.315 -7.7814,-13.347 -2.5989,-32.433 -15.761,-42.986 -3.5279,-7.7151 -10.348,-13.146 -17.293,-17.657 z" style="fill:#666666"/>
        <path id="path3004" d="m 83.694,693.88 c -12.96,-8.6 4.576,-25.22 1.571,-39.28 -3.686,-17.3 -18.441,-51.45 -32.233,-61.92 -9.4033,-7.4545 -30.224,1.5439 -42.101,-1.8783 -26.488,-33.385 -13.5,-18.039 -34.347,-18.194 -5.7365,9.5085 -39.917,16.674 -40.814,23.34 0.19233,9.9137 5.5248,11.842 8.2244,21.444 1.7082,11.655 12.815,22.106 17.831,32.78 4.3374,11.268 11.966,20.796 19.31,30.22 4.4413,5.6352 11.293,8.0853 17.99,9.7899 9.9257,2.4364 16.211,10.624 23.882,16.434 8.4604,3.6609 18.798,5.6157 22.396,15.419 8.7769,16.96 28.165,3.3249 30.825,-2.9798 3.8161,-6.4973 12.757,-50.965 20.417,-52.433 1.406,-0.40711 -14.328,27.761 -12.952,27.261 z" style="fill:#4d4d4d"/>
        <path id="path3002" d="m 388.46,875.88 c -14.205,-0.85181 -17.565,-47.114 -33.058,-47.353 -12.957,-8.6066 -26.09,-17.858 -38.413,-26.993 -8.4543,-7.9022 -39.115,-8.2484 -49.501,-15.555 -14.359,-8.2475 -28.577,-16.735 -41.134,-27.578 -11.125,-6.6898 -25.7,5.484 -36.508,-1.585 -12.506,-4.9796 -18.436,-11.616 -30.303,-18.534 -15.044,-6.5186 -50.234,-89.52 -66.062,-94.434 -13.796,-3.3987 -8.471,55.504 -23.892,62.74 -11.798,10.156 -24.37,25.567 -21.505,39.258 6.8158,10.413 26.196,28.096 31.065,39.526 5.0998,15.397 10.421,31.129 21.624,43.338 9.0042,8.6693 17.299,18.413 27.629,25.59 11.295,9.7904 14.44,27.207 26.583,35.744 14.661,2.7502 37.534,-3.8151 49.483,5.3496 13.167,5.0856 26.702,9.5596 41.003,8.5296 19.38,-0.44605 38.869,1.054 58.038,-2.4469 15.151,-2.698 32.919,4.2066 45.407,-7.8341 18.35,9.8419 54.187,0.94933 39.542,-17.761 z" style="fill:#4d4d4d"/>
        <path id="path3012" d="m 554.29,915.22 c 25.203,-7.351 27.29,40.32 53.345,23.031 17.546,-17.452 39.612,-27.088 64.071,-30.481 20.649,-5.9421 42.674,-8.8502 62.002,-16.894 5.137,-24.06 -4.0018,-49.026 -8.788,-72.913 -10.971,-22.789 -11.727,-48.649 -15.563,-73.366 -2.2827,-24.09 -9.2224,-47.36 -12.402,-71.118 0.36731,-22.472 10.476,-70.186 -14.327,-61.805 -13.869,17.628 -23.634,30.266 -49.33,34.422 -22.666,8.4452 -54.697,8.3197 -78.305,14.194 -39.581,13.777 -71.09,44.665 -112.77,50.615 -22.661,7.6458 -45.261,16.317 -69.208,19.302 -25.141,7.1474 -49.897,15.346 -74.005,25.275 -18.433,6.0058 -37.821,9.1191 -55.58,17.133 -25.535,1.6929 8.7399,17.995 15.145,22.44 18.574,19.877 47.538,23.401 68.275,40.359 23.745,10.022 39.655,31.404 41.211,57.231 -0.66198,18.166 19.058,41.051 31.014,17.767 8.4552,-16.57 37.359,-11.408 49.765,-27.282 25.141,-3.0489 50.453,-3.6636 75.633,-5.3527 26.807,-2.7059 33.525,13.527 29.819,37.441 z" style="fill:#999999"/>
        <path id="path3000" d="m -82.857,578.08 c -45.561,-25.034 -28.799,24.835 -5.4174,55.81 26.748,21.902 31.81,57.255 38.47,89.049 5.0142,38.726 23.663,66.865 37.06,96.498 20.885,28.723 66.848,13.738 86.426,44.278 19.222,22.338 46.963,42.109 77.956,37.817 63.106,13.266 127.78,17.84 190.88,30.332 54.392,1.2394 108.8,0.1488 163.2,0.5019 15.936,27.686 200.16,-18.206 30.651,-15.16 -30.78,-17.468 -67.588,-12.975 -101.28,-18.788 -32.439,1.8546 -64.355,-3.7757 -96.337,-6.1528 -38.538,-0.2746 -77.103,1.1246 -115.62,-0.7529 -26.76,-13.774 -64.442,1.4365 -84.647,-25.561 -6.1471,-30.556 -17.829,-71.771 -46.891,-90.091 -36.264,-32.69 -46.603,-69.95 -89.418,-95.78 -30.323,-23.55 -49.205,-65.37 -73.102,-94.02 -3.4908,-3.3036 -7.491,-6.1155 -11.931,-7.9928 z" style="fill:#1a1a1a"/>
        <path id="path3010" d="m 388.57,918.08 c 14.38,-5.1429 21.369,-20.466 34.736,-27.214 11.916,-9.4452 27.491,-15.511 42.814,-12.73 14.831,0.30719 29.67,-4.0226 44.495,-3.327 9.215,4.4639 25.291,-7.0616 34.881,-6.5218 7.3008,3.2943 42.016,25.649 41.182,32.531 19.094,6.5169 36.905,12.536 36.909,20.018 0.004,7.4826 -12.897,19.697 -19.282,22.264 -0.37467,6.7363 -56.152,-17.099 -61.281,-18.811 -13.023,-5.2681 -27.439,-3.7309 -41.157,-3.261 -21.208,0.69044 -42.434,-0.88423 -63.646,-0.0279 -14.696,3.9171 -30.68,5.0059 -45.241,-0.072 -1.5713,-0.77906 -3.0631,-1.7251 -4.411,-2.8492 z" style="fill:#333333"/>
        <path id="path3014" d="m 68.698,-150.49 c -21.21,19.147 -33.262,6.3068 -24.939,34.185 -6.5044,48.588 -41.665,87.943 -47.347,136.41 0.98136,45.325 -14.006,88.883 -16.469,133.3 14.009,40.736 31.383,83.854 7.3963,125.01 -6.9644,39.535 -5.4237,80.691 -2.5032,120.66 28.064,27.118 20.32,67.41 28.792,102.53 21.205,34.541 -15.109,71.545 5.5714,101.39 45.669,10.807 38.855,74.503 69.619,94.54 13.416,41.891 47.776,31.373 88.324,69.123 39.482,23.406 84.557,10.026 128.17,11.546 37.694,-1.3828 63.596,-40.151 105.34,-36.546 49.716,6.0989 76.958,-33.834 118.27,-51.039 34.005,-26.101 75.677,-29.766 116.19,-36.244 28.981,-11.858 55.274,-14.171 51.008,-69.897 -11.596,-38.204 -8.8534,-79.929 -10.573,-119.75 -1.7771,-32.121 9.5915,-77.501 -26.89,-93.402 -34.388,-25.486 -17.343,-76.907 -21.33,-113.87 9.9499,-41.749 -15.472,-77.091 -51.832,-95.116 -51.71,-25.42 -71.48,-82.461 -108.5,-122.54 -23.41,-33.841 -42.27,-81.108 -86.93,-90.72 -46.21,-5.333 -85.9,-31.088 -129.56,-45.222 -31.27,-21.728 -76.28,-15.358 -102.88,-43.238 -29.515,-3.1618 -59.864,-11.474 -88.932,-11.115 z" style="fill:#b3b3b3"/>
        <path id="path3047" d="m 323.17,-75.689 c -17.997,-1.6376 -34.182,-7.9239 -32.972,15.98 0.0147,19.077 30.48,15.097 31.452,35.704 15.408,11.458 26.686,30.373 45.25,35.94 25.86,-1.7094 21.275,25.705 25.117,42.594 6.3492,19.807 21.904,34.824 32.579,52.409 14.125,22.136 38.502,35.563 50.82,58.948 9.7379,17.945 13.355,38.763 26.56,54.891 4.8272,15.415 16.107,31.362 34.051,25.873 17.951,2.4652 48.658,16.846 57.02,-6.0141 25.743,-4.6119 41.453,-44.084 22.197,-58.068 -7.7016,-19.149 -15.544,-22.51 -50.386,-30.943 0.0439,-19.92 -17.195,-33.128 -30.835,-47.925 -14.35,-14.452 -22.71,-25.878 -35.45,-39.56 -4.69,-19.33 -19.23,-33.52 -30.54,-49.085 -18.79,-19.599 -25.93,-50.102 -52.11,-62.193 -19.17,-6.729 -33.41,-24.03 -53.89,-27.03 -12.111,2.4689 -30.751,7.1659 -38.867,-1.5317 z" style="fill:#e6e6e6"/>
        <path id="path3074" d="m 70.671,-151 c -17.077,3.0354 -34.924,13.904 -32.659,33.219 -7.3604,15.86 -14.544,31.795 -21.747,47.643 -10.587,18.419 -22.046,37.43 -22.647,59.333 -2.7018,25.477 -22.082,47.133 -19.332,73.676 0.01318,43.163 -0.0086,86.327 -6.54e-4,129.49 -7.7775,16.093 -3.111,34.657 -7.886,51.117 -0.64282,15.047 -2.3004,33.836 1.0303,46.79 27.602,2.4183 26.632,-24.791 30.572,-41.392 9.592,-15.69 3.9689,-37.01 9.1159,-54.45 2.9771,-17.55 6.1041,-35.13 15.816,-50.25 7.516,-21.53 18.078,-42.1 32.825,-59.576 10.65,-15.087 13.863,-34.464 7.413,-51.914 -4.834,-16.658 -10.906,-33.302 -8.887,-50.938 0.02233,-21.229 -0.02231,-42.457 -5e-6,-63.686 10.003,-12.635 22.633,-22.23 37.544,-27.758 4.8879,-2.2869 2.8995,-11.831 4.0927,-14.752 1.0553,-2.5835 -5.1804,-8.1292 -14.335,-7.5443 -12.725,-0.39873 -24.827,-0.58715 -8.9072,-17.091" style="fill:#808080"/>
        <path id="path3079" d="m 680,478.08 c -12.244,-2.5314 -22.702,8.3011 -35.108,5.7414 -23.535,-0.0115 -47.071,-0.11321 -70.606,-0.0273 -9.0528,-6.7344 -22.274,-2.633 -30.535,-11.18 -11.898,-6.1469 -22.452,-14.493 -35.039,-18.991 -9.5008,-6.0598 -21.003,-5.5014 -30.964,-10.309 -8.0275,1.3975 5.2406,12.89 5.0141,18.193 3.002,9.8116 6.3867,19.276 10.752,28.533 3.1869,10.121 7.0682,20.332 14.948,27.798 8.3475,10.533 14.6,23.046 17.507,36.06 8.1437,2.1815 8.3902,14.103 14.722,20.443 5.5625,7.798 9.4327,17.226 7.8532,26.932 1.6514,15.339 19.103,10.55 29.404,13.071 14.227,2.8152 28.88,-1.3917 42.995,2.7249 9.5189,1.5713 19.443,0.35509 29.032,2.1972 8.1202,2.5603 15.964,0.94272 24.231,1.3894 7.3082,-0.57596 22.719,7.7919 23.117,-3.1978 1.2169,-15.924 -3.6007,-31.445 -4.2983,-47.277 -1.6229,-10.606 -1.9207,-21.364 -1.7399,-32.025 -1.3089,-13.645 -3.0648,-27.377 -7.9274,-40.272 -1.5522,-6.5268 -1.3977,-13.359 -3.3573,-19.803 z" style="fill:#999999"/>
      </g>
    </g>
  </g>
  <path d="M 93.71 66.228 H 128.478 L 128.478 57.408 L 148.357 71.195 L 128.478 84.982 L 128.478 76.162 H 93.71 V 66.228 Z" style="stroke: rgb(0, 0, 0); fill: rgb(216, 71, 51);" transform="matrix(0, -1, 1, 0, 24, 192.999997)" bx:shape="arrow 93.71 57.408 54.647 27.574 9.934 19.879 0 1@f156b7d7"/>
  <path d="M -93.71 -48.588 H -58.942 L -58.942 -57.408 L -39.063 -43.621 L -58.942 -29.834 L -58.942 -38.654 H -93.71 V -48.588 Z" style="stroke: rgb(0, 0, 0); fill: rgb(63, 66, 216);" transform="matrix(0, 1, 1, 0, 138.815992, 192.623746)" bx:shape="arrow -93.71 -57.408 54.647 27.574 9.934 19.879 0 1@65a1e4e1"/>
</svg>