<?xml version="1.0" encoding="utf-8"?>
<svg viewBox="0 0 125 70" xmlns="http://www.w3.org/2000/svg" xmlns:xlink="http://www.w3.org/1999/xlink">\
  <defs>
    <marker id="marker01" markerWidth="7" markerHeight="6" viewBox="0 -3 6 6" orient="auto">
      <path d="M0 -2L5 0 0 2 5 0 0 0 5 0 0-2" stroke="#000" />
    </marker>
    <clipPath id="clipPath01">
      <path d="M100 50L20 17a15 40 0 0 0 0 68z" />
    </clipPath>
    <symbol id="symbol01" viewBox="0 0 100 100">
      <g style="stroke:#000; fill:none">
        <path d="M10 10q75 20 90 40 -25 20 -90 40" style="stroke-width:5;" />
        <path d="M16 7q75 20 90 40" />
        <path d="M20 17a15 40 0 0 0 0 68" />
        <g style="fill:#000">
          <path d="M18 11q0-6 5-9q-2 6 0 12" />
          <path d="M28 16q0-6 5-9q-2 6 0 12" />
          <path d="M38 22q0-6 5-9q-2 6 0 12" />
          <path d="M18 89q0 6 5 7q-4-6-2-9" />
          <path d="M25 86q0 6 5 7q-4-6-2-9" />
        </g>
        <ellipse rx="25" ry="25" cx="13" cy="48" clip-path="url(#clipPath01)" style="fill:#000" />
        <ellipse rx="30" ry="30" cx="13" cy="48" clip-path="url(#clipPath01)" style="stroke-width:3;" />
        <ellipse rx="10" ry="10" cx="15" cy="40" clip-path="url(#clipPath01)" style="fill:#fff;" />
        <ellipse rx="5" ry="5" cx="25" cy="48" clip-path="url(#clipPath01)" style="fill:#fff;stroke: none" />
      </g>
    </symbol>
    <linearGradient id="grad01" x1="0" y1="0" x2="1" y2="0">
      <stop offset="0" stop-color="#fff" />
      <stop offset="0.8" stop-color="#eee" />
      <stop offset="1" stop-color="#aaa" />
    </linearGradient>
  </defs>
  <path d="M0 11L67 35v25L0 86z" style="stroke:none; fill:url(#grad01)" />
  <use width="15" height="15" transform="matrix(1, 0, 0, 1, 100, 10)" xlink:href="#symbol01" />
  <use width="15" height="15" transform="matrix(1, 0, 0, 1, 100, 40)" xlink:href="#symbol01" />
  <path d="M10 17H90" marker-end="url(#marker01)" style="stroke:#000; fill:none" />
  <path d="M10 47H50" marker-end="url(#marker01)" style="stroke:#000; fill:none" />
  <rect width="10" height="25" x="57" y="35" />
</svg>