<?xml version="1.0" encoding="utf-8"?>
<svg width="800" height="620" version="1.1" xmlns="http://www.w3.org/2000/svg" xmlns:xlink="http://www.w3.org/1999/xlink">
<defs>
<marker id="dot" viewBox="-1 -1 2 2" markerWidth="2" markerHeight="2">
<circle r="1" fill="#000" stroke="none"/>
</marker>
</defs>
<g fill="none" stroke="#000" stroke-width="2" stroke-linecap="round">
<path d="M129.7 535.2v-5.1m36.6 5.1v-10.2m36.6 10.2v-5.1m36.6 5.1v-10.2m36.9 10.2v-5.1m36.6 5.1v-10.2m36.6 10.2v-5.1m36.6 5.1v-10.2m36.6 10.2v-5.1m36.6 5.1v-10.2m36.6 10.2v-5.1m36.6 5.1v-10.2m36.6 10.2v-5.1m36.6 5.1v-10.2m36.9 10.2v-5.1m36.6 5.1v-10.2m36.6 10.2v-5.1m36.6 5.1v-10.2"/>
<path d="M129.7 535.2v-5.1m36.6 5.1v-10.2m36.6 10.2v-5.1m36.6 5.1v-10.2m36.9 10.2v-5.1m36.6 5.1v-10.2m36.6 10.2v-5.1m36.6 5.1v-10.2m36.6 10.2v-5.1m36.6 5.1v-10.2m36.6 10.2v-5.1m36.6 5.1v-10.2m36.6 10.2v-5.1m36.6 5.1v-10.2m36.9 10.2v-5.1m36.6 5.1v-10.2m36.6 10.2v-5.1m36.6 5.1v-10.2" transform="matrix(1, 0, 0, -1, 0, 558)"/>
<path d="M93.0 535.2h696V23.4h-696z"/>
<g id="vTicks15"><!-- 눈금(좌) -->
<path id="vTicks" d="M93.0 535.2h10.2m-10.2-10.2h5.1m-5.1-6.0h5.1m-5.1-4.2h5.1m-5.1-3.3h5.1m-5.1-3.0h5.1m-5.1-2.1h5.1m-5.1-2.1h5.1m-5.1-1.8h5.1"/>
<use xlink:href="#vTicks" y="-34.1"/>
<use xlink:href="#vTicks" y="-68.2"/>
<use xlink:href="#vTicks" y="-102.3"/>
<use xlink:href="#vTicks" y="-136.4"/>
<use xlink:href="#vTicks" y="-170.6"/>
<use xlink:href="#vTicks" y="-204.7"/>
<use xlink:href="#vTicks" y="-238.8"/>
<use xlink:href="#vTicks" y="-272.9"/>
<use xlink:href="#vTicks" y="-307.0"/>
<use xlink:href="#vTicks" y="-341.2"/>
<use xlink:href="#vTicks" y="-375.3"/>
<use xlink:href="#vTicks" y="-409.4"/>
<use xlink:href="#vTicks" y="-443.5"/>
<use xlink:href="#vTicks" y="-477.6"/>
</g>
<g transform="matrix(-1, 0, 0, 1, 882, 0)"><!-- 눈금(우) -->
<path id="vTicks2" d="M93.0 535.2h10.2m-10.2-10.2h5.1m-5.1-6.0h5.1m-5.1-4.2h5.1m-5.1-3.3h5.1m-5.1-3.0h5.1m-5.1-2.1h5.1m-5.1-2.1h5.1m-5.1-1.8h5.1"/>
<use xlink:href="#vTicks2" y="-34.1"/>
<use xlink:href="#vTicks2" y="-68.2"/>
<use xlink:href="#vTicks2" y="-102.3"/>
<use xlink:href="#vTicks2" y="-136.4"/>
<use xlink:href="#vTicks2" y="-170.6"/>
<use xlink:href="#vTicks2" y="-204.7"/>
<use xlink:href="#vTicks2" y="-238.8"/>
<use xlink:href="#vTicks2" y="-272.9"/>
<use xlink:href="#vTicks2" y="-307.0"/>
<use xlink:href="#vTicks2" y="-341.2"/>
<use xlink:href="#vTicks2" y="-375.3"/>
<use xlink:href="#vTicks2" y="-409.4"/>
<use xlink:href="#vTicks2" y="-443.5"/>
<use xlink:href="#vTicks2" y="-477.6"/>
</g>
</g>
<g> <!-- 범위 -->
<path d="M374.1 442.7c9.0-25.4 44.8-49.5 124.9-46.1 80.0 3.4 199.4 14.4 214.6 43.3 15.2 28.9-23.6 89.4-48.3 77.0-143.5-71.5-184.9-93.6-257.3-30.3-30.7 26.8-34.5-24.8-33.8-44.0Z" fill="#FD5"/>
<path d="M155.8 79.8c72.8 4.0 156.0 40.2 162.2 65.5 7.3 29.8-5.2 84.8-39.7 93.3-37.8 9.3-146.9 43.0-179.4-70.2-10.8-37.8 23.2-72.8 39.0-81.4 15.9-8.6 2.0-4.6 17.9-7.3Z" fill="#00ECA7"/>
<path d="M154.5 79.1c72.8 4.0 160.2 40.4 163.5 66.2 3.3 25.8-4.0 33.1-18.5 33.1-14.6 0-140.3 16.5-153.6-20.5-13.2-37.1-24.8-63.2-8.9-71.8 15.9-8.6 17.6-6.9 17.6-6.9Z" fill="#00B681"/>
</g>
<g fill="none" stroke="#000" stroke-width="2" marker-start="url(#dot)" marker-mid="url(#dot)" marker-end="url(#dot)"> <!-- 꺾은선 그래프 -->
<circle cx="97.7" cy="157.0" r="2"/>
<path d="M114.2 249.4l6.3 29.4 8.1-20.4 6-48.3 7.2 45.0 7.5-143.7 8.1 94.5"/>
<path d="M171.2 157.1l8.1 13.2 6.6-24.6 7.2-19.5 8.4 88.8 7.2 17.1 7.5 12.3"/>
<path d="M230.0 165.2l6.6.9 9.0 119.1 6.3-85.5 7.5 61.8 8.1 7.5 7.5-38.4 5.7-61.2 7.2 120.9 9.0-10.8 6.6-0.6 7.2-15.6 7.5 21.3 7.2 34.2 7.5 3.3 8.1 51.3 7.2-29.4"/>
<path d="M362.9 259.9l8.4-16.2L377 284.6l8.1-30.3 7.2 29.4 6.6 40.8"/>
<path d="M414.5 434.6l6.6 24.6 7.2-12.3 7.5-68.7 8.1-8.7 5.7 8.1 9-65.4 6.6 46.5 7.2 55.5 9.0-48.9"/>
<path d="M494.6 316.4l8.7-72.6L509 284.6l7.5-8.4 8.1 32.7 7.5-19.5"/>
<path d="M546.8 317.0l8.1 23.7 5.7-21 7.2 26.7 9-24.3 6.6 19.5 7.5-13.2 7.2 27.9 7.5-27.0 6.3 27.9 8.4-41.7 8.1 13.8 6.6 1.8 8.1 123.9 6.3 22.8 6.6 23.7 8.1-56.1 7.5-7.5 6.6-51.3 8.1-37.5 7.2-50.7 7.5 75"/>
<circle cx="751.7" cy="310.6" r="2"/>
<circle cx="767" cy="329.2" r="2"/>
</g>
<g><!-- 보조선 -->
<path style="fill: rgb(216, 216, 216); stroke: rgb(128, 128, 128); stroke-dasharray: 3;" y2="107.0" x2="789.0" y1="107.6" x1="94.6" d="M95 126 H790"/>
<path d="M 297.3 262.9 L 301.9 274.8" fill="none" stroke="#000"/>
<path d="M 500.0 477.7 C 500.0 477.7 496.8 458.5 504.8 446.7 C 512.9 434.9 526.9 426.9 526.9 426.9 L 525.2 437.2 L 526.7 427.1 L 516.8 426.9" fill="none" stroke="#000"/>
<path d="M 259.2 83.9 C 259.2 83.9 262.4 103.2 254.4 114.9 C 246.3 126.7 232.3 134.7 232.3 134.7 L 234.0 124.4 L 232.5 134.5 L 242.5 134.7" fill="none" stroke="#000"/>
<path d="M 590.5 321.8 L 591.9 309.2" fill="none" stroke="#000"/>
<path d="M 561.4 313.9 L 562.7 298.0" fill="none" stroke="#000"/>
<path d="M 303.3 290.0 L 298.6 282.8" fill="none" stroke="#000"/>
</g>
<g font-family="Arial" font-size="20"> <!-- 축 -->
<text x="87.3" y="562.5">0</text>
<text x="154.8" y="562.5">10</text>
<text x="228.0" y="562.5">20</text>
<text x="301.5" y="562.5">30</text>
<text x="374.7" y="562.5">40</text>
<text x="447.9" y="562.5">50</text>
<text x="521.1" y="562.5">60</text>
<text x="594.3" y="562.5">70</text>
<text x="667.8" y="562.5">80</text>
<text x="741.0" y="562.5">90</text>
<text x="48.6" y="543.0">10<tspan dy="-11" font-size="12">−6</tspan>
</text>
<text x="48.6" y="440.7">10<tspan dy="-11" font-size="12">−3</tspan>
</text>
<text x="52.5" y="338.4">10<tspan dy="-11" font-size="12">0</tspan>
</text>
<text x="52.5" y="235.8">10<tspan dy="-11" font-size="12">3</tspan>
</text>
<text x="52.5" y="133.5">10<tspan dy="-11" font-size="12">6</tspan>
</text>
<text x="52.5" y="31.1">10<tspan dy="-11" font-size="12">9</tspan>
</text>
<g font-size="25">
<text transform="matrix(0, -1, 1, 0, 42.3, 412.0)">실리콘(SI)  10<tspan dy="-13.8" font-size="14.7" style="font-size: 14.7px; word-spacing: 0px;">6</tspan>
<tspan dy="13.8" style="font-size: 25.2px; word-spacing: 0px;"> 개당 분포</tspan>
</text>
<text x="288.4" y="598.4" style="white-space: pre; font-size: 25.2px;">원자번호(Atomic number), Z</text>
</g>
</g>
<g font-family="Bitstream Vera Sans" font-size="17">
<g font-size="17">
<text x="118" y="464"><tspan fill="#F00">빨간색</tspan>: 주요 공업용 금속</text>
<text x="118" y="486"><tspan fill="#800080">보라색</tspan>: 귀금속</text>
<text x="118" y="508"><tspan fill="#00F">파란색</tspan>: 희토류 원소</text>
<g>
<text x="236" y="70" font-size="27">조암원소<tspan x="270" dy="0.7em">​</tspan><tspan font-size="15" fill="#aaa">Rock-forming elements</tspan></text>
<text x="446" y="502" font-size="27">초희귀 금속<tspan x="446" dy="0.7em">​</tspan><tspan font-size="15" fill="#aaa">Rarest "metals"</tspan></text>
</g>
</g>
<text x="102.5" y="156.1">H</text>
<text x="108.2" y="244.0">Li</text>
<text x="114.2" y="299.6">Be</text>
<text x="130.1" y="275.1">B</text>
<text x="146" y="262.5">N</text>
<text x="126.8" y="204.3">C</text>
<text x="142.0" y="104.3">O</text>
<text x="153.9" y="224.2">F</text>
<text x="155.1" y="151.2">Na</text>
<text x="184.3" y="118.8">Si</text>
<text x="206.1" y="214.1">P</text>
<text x="212.1" y="231.3">S</text>
<text x="220.7" y="247.9">Cl</text>
<text x="213.4" y="169.1">K</text>
<text x="228.6" y="157.2">Ca</text>
<text x="250.5" y="280.3">V</text>
<text x="270.8" y="306.2">Co</text>
<text x="322.4" y="285.7">Ga</text>
<text x="299.9" y="330.7">Ge</text>
<text x="334.3" y="318.2">As</text>
<text x="326.4" y="389.0">Se</text>
<text x="345.6" y="339.3">Br</text>
<text x="346.8" y="275.8">Rb</text>
<text x="360.7" y="238.7">Sr</text>
<text x="378.6" y="248.0">Zr</text>
<text x="395.8" y="285.7">Nb</text>
<text x="460.4" y="430.6">Te</text>
<text x="467.7" y="352.5">Sb</text>
<text x="424.7" y="361.7">Cd</text>
<text x="485.6" y="371.0">I</text>
<text x="443.2" y="392.8">In</text>
<text x="490.2" y="237.3">Ba</text>
<text x="484.9" y="333.3">Cs</text>
<text x="614.7" y="458.4">Re</text>
<text x="618.0" y="307.4">Hf</text>
<text x="629.2" y="322.7">Ta</text>
<text x="653.1" y="382.2">Hg</text>
<text x="667.6" y="348.5">Tl</text>
<text x="696.7" y="390.8">Bi</text>
<text x="737.8" y="304.1">Th</text>
<text x="761.6" y="322.7">U</text>
<g fill="red">
<text x="167.7" y="193.0">Mg</text>
<text x="170.4" y="137.3">Al</text>
<text x="245.2" y="194.9">Ti</text>
<text x="259.7" y="286.9">Cr</text>
<rect x="270.8" y="210.6" width="10.5" height="15.2" fill="#00ECA7"/>
<text x="257.1" y="223.4">Mn</text>
<text x="271.8" y="161.9">Fe</text>
<text x="297.9" y="304.2">Ni</text>
<text x="288.7" y="259.9">Cu</text>
<text x="315.8" y="264.5">Zn</text>
<text x="388.5" y="342.6">Mo</text>
<text x="447.9" y="305.5">Sn</text>
<text x="639.2" y="340.5">W</text>
<text x="682.8" y="290.9">Pb</text>
</g>
<g fill="blue">
<text x="233.3" y="302.1">Sc</text>
<text x="371.3" y="300.9">Y</text>
<text x="499.5" y="302.8">La</text>
<text x="533.9" y="284.9">Nd</text>
<text x="508.8" y="269.7">Ce</text>
<text x="516.7" y="326.0">Pr</text>
<text x="583.6" y="375">Tm</text>
<text x="572.3" y="357.7">Ho</text>
<text x="594.8" y="323.3">Yb</text>
<text x="614.0" y="370.3">Lu</text>
<text x="586.9" y="305.5">Er</text>
<text x="557.1" y="295.5">Gd</text>
<text x="529.9" y="347.8">Eu</text>
<text x="565.7" y="314.7">Dy</text>
<text x="549.8" y="362.4">Tb</text>
<text x="529.9" y="312.7">Sm</text>
</g>
<g fill="#800080">
<text x="432.6" y="450.4">Pd</text>
<text x="408.8" y="380.3">Ag</text>
<text x="394.3" y="466.3">Rh</text>
<text x="400.2" y="428.6">Ru</text>
<text x="660.3" y="508.7">Ir</text>
<text x="622.6" y="484.8">Os</text>
<text x="667.6" y="458.4">Pt</text>
<text x="677.5" y="443.1">Au</text>
</g>
</g>
</svg>