<?xml version="1.0" encoding="utf-8"?>
<svg viewBox="0 0 100 100" xmlns="http://www.w3.org/2000/svg" xmlns:xlink="http://www.w3.org/1999/xlink">
  <defs>
    <clipPath id="clipPath01">
      <rect x="0" y="0" width="100" height="100" />
    </clipPath>
    <marker id="marker01" markerWidth="7" markerHeight="6" viewBox="0 -3 6 6" orient="auto">
      <path d="M0 -2L5 0 0 2 5 0 0 0 5 0 0-2" stroke="#000" />
    </marker>
    <marker id="marker02" markerWidth="7" markerHeight="6" viewBox="0 -3 6 6" orient="auto">
      <path d="M0 -2L5 0 0 2 5 0 0 0 5 0 0-2" stroke="#f00" />
    </marker>
  </defs>
  <g style="stroke:none;">
    <rect x="0" y="0" width="100" height="100" style="fill:#fec" />
    <path d="M-10 30q10 5 20 0t20 0 20 0 20 0 20 0 20 0V100H-10" style="fill:#eef" clip-path="url(#clipPath01)" />
    <path d="M-6 33q10 5 20 0t20 0 20 0 20 0 20 0 20 0V100H-10" style="fill:#ddf" clip-path="url(#clipPath01)" />
    <path d="M-16 35q10 5 20 0t20 0 20 0 20 0 20 0 20 0V100H-10" style="fill:#ccf" clip-path="url(#clipPath01)" />
    <path d="M-10 40q10 5 20 0t20 0 20 0 20 0 20 0 20 0V100H-10" style="fill:#aaf" clip-path="url(#clipPath01)" />
    <path d="M0 50q10 5 20 0t20 0 20 0 20 0 20 0V100H0" style="fill:#88f" />
    <ellipse cx="20" cy="12" rx="3" ry="3" style="fill:#000" />
    <ellipse cx="80" cy="82" rx="6" ry="6" style="fill:none;stroke:#FFF;stroke-width:4;" />
    <ellipse cx="80" cy="82" rx="6" ry="6" style="fill:none;stroke:#F00;stroke-width:4;stroke-dasharray:3" />
  </g>
  <g style="stroke:#000; fill:none">
    <path d="M35 58L57 55" style="stroke:#a00"/>
    <path d="M23 15L70 70" style="stroke:red" marker-end="url(#marker02)"/>
    <path d="M20 12L60 30 75 67" marker-end="url(#marker01)"/>
    <path d="M20 12L25 40 65 74" marker-end="url(#marker01)"/>
  </g>
  <g style="font-size:6">
    <text x="30" y="15">달리기가 더 빠른 경우(빛)</text>
    <text x="33" y="80">수영이 더<tspan x="30" dy="1.2em">빠른 경우(소리)</tspan></text>
    <rect x="2" y="52" width="33" height="18" style="fill:#fff8" />
    <text x="6" y="60" style="fill:red">가장 짧은<tspan x="6" dy="1.2em">경로</tspan></text>
  </g>
</svg>