<?xml version="1.0" encoding="utf-8"?>
<svg viewBox="0 0 400 110" xmlns="http://www.w3.org/2000/svg" xmlns:xlink="http://www.w3.org/1999/xlink">
  <defs>
    <radialGradient id="grad01" cx="0.5" cy="0.5" fx="0.5" fy="0.5">
      <stop offset="0" stop-color="#080" />
      <stop offset="0.6" stop-color="#080" />
      <stop offset="0.9" stop-color="#4a4" />
      <stop offset="1" stop-color="#080" />
    </radialGradient>
    <symbol id="symbol-tree" viewBox="0 0 100 100">
      <path d="M43 64q0 20-10 30q5 0 10-5q5 0 5 10q0-5 5-10q5 5 10 5q-10-10-10-30  " style="stroke:#000; fill:#864" />
      <g style="fill:url(#grad01)">
        <ellipse cx="50" cy="15" rx="10" ry="10" />
        <ellipse cx="40" cy="26" rx="10" ry="10" />
        <ellipse cx="55" cy="24" rx="10" ry="10" />
        <ellipse cx="36" cy="42" rx="10" ry="10" />
        <ellipse cx="59" cy="40" rx="10" ry="10" />
        <ellipse cx="50" cy="38" rx="10" ry="10" />
        <ellipse cx="32" cy="60" rx="10" ry="10" />
        <ellipse cx="64" cy="63" rx="10" ry="10" />
        <ellipse cx="61" cy="55" rx="10" ry="10" />
        <ellipse cx="46" cy="66" rx="10" ry="10" />
        <ellipse cx="47" cy="56" rx="10" ry="10" />
      </g>
    </symbol>
    <symbol id="symbol-eye" viewBox="0 0 100 100">
      <clipPath id="clipPath01">
        <path d="M100 50L20 17a15 40 0 0 0 0 68z" />
      </clipPath>
      <g style="stroke:#000; fill:none">
        <path d="M10 10q75 20 90 40 -25 20 -90 40" style="stroke-width:5;" />
        <path d="M16 7q75 20 90 40" />
        <path d="M20 17a15 40 0 0 0 0 68" />
        <g style="fill:#000">
          <path d="M18 11q0-6 5-9q-2 6 0 12" />
          <path d="M28 16q0-6 5-9q-2 6 0 12" />
          <path d="M38 22q0-6 5-9q-2 6 0 12" />
          <path d="M18 89q0 6 5 7q-4-6-2-9" />
          <path d="M25 86q0 6 5 7q-4-6-2-9" />
        </g>
        <ellipse rx="25" ry="25" cx="13" cy="48" clip-path="url(#clipPath01)" style="fill:#000" />
        <ellipse rx="30" ry="30" cx="13" cy="48" clip-path="url(#clipPath01)" style="stroke-width:3;" />
        <ellipse rx="10" ry="10" cx="15" cy="40" clip-path="url(#clipPath01)" style="fill:#fff;" />
        <ellipse rx="5" ry="5" cx="25" cy="48" clip-path="url(#clipPath01)" style="fill:#fff;stroke: none" />
      </g>
    </symbol>
    <marker id="marker01" markerWidth="7" markerHeight="6" viewBox="0 -3 6 6" orient="auto">
      <path d="M0 -2L5 0 0 2 5 0 0 0 5 0 0-2" stroke="#000" />
    </marker>
  </defs>
  <use width="80" height="80" transform="matrix(1, 0, 0, 1, 0, 20)" xlink:href="#symbol-tree" />
  <path d="M70 50L150 46 230 50" style="stroke:#000; fill:none" marker-end="url(#marker01)" />
  <ellipse cx="150" cy="50" rx="2" ry="2" style="stroke:none; fill:#864" />
  <use width="20" height="20" transform="matrix(1, 0, 0, 1, 240, 40)" xlink:href="#symbol-eye" />

  <use width="80" height="80" transform="matrix(1, 0, 0, 1, 300, 20)" xlink:href="#symbol-tree" />
  <path d="M340 1V120" style="fill:none; stroke:#864; stroke-width:5; filter:blur(3px)" />
  <text x="125" y="67" style="font-size:12">머리카락</text>

</svg>