<?xml version="1.0" encoding="utf-8"?>
<svg viewBox="0 0 550 550"
  xmlns="http://www.w3.org/2000/svg">
  <desc>https://commons.wikimedia.org/wiki/File:Korea_(orthographic_projection).svg
저작권(포기, 만료): https://creativecommons.org/publicdomain/zero/1.0/deed.en
수정: @iseohyun.com
2024 CC-BY 4.0(저작자, 상업O, 수정O, 재배포O)

  </desc>
  <defs>
    <radialGradient class="seabase gradient" id="grSea" style="fill: rgb(255, 255, 255);">
      <stop id="sEdge" offset="0" style="stop-color:#FFFFFF;stop-opacity:0;"/>
      <stop id="sMid" offset="0.7071" style="stop-color:#808080;stop-opacity:0.0625;"/>
      <stop id="sCentre" offset="1" style="stop-color:#000000;stop-opacity:0.25;"/>
    </radialGradient>
  </defs>
  <g>
    <circle class="seabase" cx="275" cy="275" id="cSeaBase" r="250" style="fill: rgb(255, 255, 255);"/>
    <g class="countries" id="gCountries" style="fill: rgb(224, 224, 224); stroke: rgb(200, 200, 200);">
      <g id="gARE">
        <path class="region ARE" d="M53,232 54,232 53,233 54,235 56,239 58,238 60,238 62,237 61,239 60,242 59,240 58,242 58,243 57,243 57,244 56,245 55,246 54,247 52,237 53,233 53,232Z" />
      </g>
      <g id="gAFG">
        <path class="region AFG" d="M89.0,216 89,220 91,221 92,220 94,221 95,221 97,219 99,220 100,219 100,221 101,221 102,222 103,225 103,226 105,226 105,227 107,226 108,227 108,227 109,226 111,225 111,227 111,228 111,229 109,232 109,234 110,234 111,234 114,234 115,235 117,237 117,238 115,238 114,237 111,236 109,234 107,235 106,237 105,239 103,240 103,241 101,242 100,240 99,243 97,243 95,244 94,246 93,246 92,245 91,244 90,245 88,243 86,244 85,247 82,246 80,244 80,244 79,243 77,241 75,235 79,234 80,232 79,230 80,227 82,224 83,223 83,221 89,216Z" />
      </g>
      <g id="gALB">
        <path class="region ALB" d="M96,112 96,113 94,114 93,115 93,116 92,115 92,116 91,116 91,115 92,115 93,113 95,112 96,111 97,110 98,110 99,109 100,109 99,109 99,110 98,111 97,111 96,112Z" />
      </g>
      <g id="gARM">
        <path class="region ARM" d="M87,162 88,165 88,166 87,167 86,167 86,169 85,170 84,171 84,173 82,175 82,174 83,172 84,171 83,170 84,169 84,169 84,167 85,165 86,163 87,162Z" />
      </g>
      <g id="gFR1">
        <path class="region FR1" d="M111,90 109,91 111,90 113,88 113,88 113,89 111,90Z" />
        <path class="region FR1" d="M142,70 140,72 139,72 136,75 136,75 134,76 132,79 131,79 129,79 129,79 130,78 129,78 128,78 127,78 127,79 125,80 124,80 123,81 123,81 120,83 119,84 118,84 118,83 122,80 124,78 123,78 124,76 128,74 128,74 133,70 134,69 135,69 139,67 146,63 150,60 152,60 150,61 146,64 150,63 147,64 145,67 147,67 146,68 145,68 144,69 142,70Z" />
        <path class="region FR1" d="M419,462 421,462 422,462 421,463 419,463 417,464 416,463 414,463 414,462 416,462 417,461 419,462Z" />
      </g>
      <g id="gAU1">
        <path class="region AU1" d="M333,516 335,515 340,514 342,514 341,514 339,515 338,516 337,516 334,517 332,517 331,517 331,517 330,516 331,516 333,516Z" />
        <path class="region AU1" d="M342,471 343,473 346,471 347,472 349,473 348,474 349,476 349,477 350,477 351,479 350,480 351,481 355,481 360,482 359,483 361,484 362,486 363,485 365,485 366,485 366,487 369,487 371,488 372,489 371,490 370,492 371,493 370,494 368,497 367,498 366,499 363,501 360,502 358,504 357,505 355,506 353,507 351,509 350,509 348,510 345,511 341,512 337,514 335,514 333,514 334,513 332,514 329,515 322,516 319,516 317,516 317,515 317,515 315,515 312,515 313,514 313,513 311,514 308,515 310,514 310,513 312,513 312,512 309,513 306,514 305,515 302,515 302,514 300,513 299,513 299,513 295,512 292,512 289,512 282,512 273,513 269,513 266,514 262,514 262,514 261,515 255,515 252,514 247,514 245,514 244,514 241,515 236,514 232,513 230,512 230,512 231,512 232,512 231,511 232,510 231,509 228,508 228,507 228,506 226,505 225,504 224,503 223,502 220,500 220,499 221,500 220,498 222,499 223,500 223,499 220,497 220,497 219,496 219,495 220,495 220,494 219,493 221,491 221,493 223,492 226,492 228,491 231,491 232,491 234,491 237,491 239,491 240,490 241,490 243,490 247,490 249,489 250,488 253,487 253,486 253,485 256,483 258,485 259,485 258,484 259,483 261,483 261,481 264,480 265,479 267,479 267,478 269,478 269,478 273,477 276,478 278,480 281,480 283,480 283,479 285,477 286,476 286,475 288,474 290,473 292,473 296,472 296,471 293,470 295,470 298,470 300,471 304,471 305,471 308,472 310,471 312,471 313,470 315,471 313,473 312,474 310,474 311,475 309,477 308,478 308,479 311,480 314,480 316,481 319,482 320,482 323,482 323,483 327,483 330,482 331,480 332,479 332,478 334,476 333,474 334,474 333,472 334,470 335,469 334,469 335,467 336,466 336,465 338,463 339,465 339,466 340,466 340,467 342,469 342,470 342,471Z" />
      </g>
      <g id="gAUT">
        <path class="region AUT" d="M118,95 117,95 118,94 117,95 115,95 115,95 116,94 116,93 117,91 120,89 121,88 122,86 121,86 122,85 123,84 124,83 125,83 125,83 125,83 124,84 124,84 123,86 123,87 122,88 121,89 121,89 123,87 123,88 124,88 122,90 123,90 123,90 121,92 121,93 120,94 119,94 118,95Z" />
      </g>
      <g id="gAZE">
        <path class="region AZE" d="M84,169 83,170 84,171 83,172 82,174 82,172 83,170 84,169 84,169Z" />
        <path class="region AZE" d="M89,170 89,171 90,171 92,171 91,173 89,176 89,177 89,179 88,177 85,179 84,180 84,180 82,181 82,181 83,178 85,177 85,176 85,175 82,175 84,173 84,171 85,170 86,169 86,167 87,167 88,166 88,165 89,165 88,167 88,168 89,168 90,166 91,166 91,167 89,170Z" />
      </g>
      <g id="gBEL">
        <path class="region BEL" d="M145,69 144,70 143,71 141,73 140,74 138,74 138,74 137,74 139,72 140,72 142,70 144,69 145,68 146,68 145,69Z" />
      </g>
      <g id="gBGD">
        <path class="region BGD" d="M142,326 141,329 140,328 140,331 139,329 140,326 140,324 139,321 136,320 136,322 134,323 133,322 132,322 131,321 130,320 131,317 130,313 132,311 130,309 131,308 133,308 132,304 134,302 136,305 137,306 137,309 139,311 142,312 144,314 142,317 140,316 139,318 140,321 141,319 142,319 142,326Z" />
      </g>
      <g id="gBGR">
        <path class="region BGR" d="M101,112 100,113 100,114 99,116 98,119 98,119 98,121 97,123 96,125 95,124 93,125 91,127 92,125 92,124 91,125 91,123 92,121 92,120 93,118 95,117 96,115 96,115 97,115 98,114 98,114 100,113 101,112 101,112Z" />
      </g>
      <g id="gBIH">
        <path class="region BIH" d="M107,104 106,104 105,105 104,106 102,107 102,106 102,106 102,106 101,107 103,104 104,103 107,100 110,98 111,97 110,98 110,98 110,99 108,101 108,102 107,104Z" />
      </g>
      <g id="gBLR">
        <path class="region BLR" d="M132,97 131,99 132,100 134,100 134,101 136,100 136,100 137,102 136,104 135,104 135,105 134,107 132,108 131,108 129,110 128,111 128,111 127,113 126,114 125,113 126,112 125,112 124,113 122,114 122,113 121,113 119,114 120,113 120,111 121,110 121,110 121,109 122,108 123,105 124,103 124,102 124,102 124,101 125,100 127,99 127,100 129,99 130,98 132,97Z" />
      </g>
      <g id="gBRN">
        <path class="region BRN" d="M217,416 219,415 223,414 222,418 220,418 219,419 217,416Z" />
        <circle class="region BRN" cx="219" cy="417" id="pointF2S17P1" r="0" />
      </g>
      <g id="gBTN">
        <path class="region BTN" d="M145,302 146,304 145,306 142,305 140,303 138,303 135,300 136,299 139,297 141,297 142,299 144,300 145,302Z" />
      </g>
      <g id="gCAN">
        <path class="region CAN" d="M306,27 304,26Z" />
        <path class="region CAN" d="M431,97 432,98 432,100 431,100 431,101 430,101 430,103 429,102 428,102 428,100 428,98 429,98 430,97 431,97Z" />
        <path class="region CAN" d="M285,25 287,25 283,25Z M288,25 282,25 285,25Z" />
        <path class="region CAN" d="M419,104 419,102 423,105 425,105 425,105 424,106 422,105 422,106 420,105 419,105 419,104Z" />
        <path class="region CAN" d="M327,39 329,38 329,39 329,39 328,39 327,39 327,39Z" />
        <path class="region CAN" d="M331,41 334,41 335,41 335,42 333,42 330,41 331,41Z" />
        <path class="region CAN" d="M330,45 331,44 330,44 329,44 328,43 327,42 328,41 326,41 326,40 328,40 330,42 330,42 333,43 336,43 336,44 338,45 336,44 334,45 331,45 330,45Z" />
        <path class="region CAN" d="M313,41 315,42 314,42 313,43 311,43 311,42 311,41 312,41 313,41Z" />
        <path class="region CAN" d="M336,54 337,55 338,56 339,56 339,58 337,57 335,57 335,55 336,54Z" />
        <path class="region CAN" d="M329,51 331,51 328,50 328,49 330,49 330,47 327,47 324,48 321,49 318,47 317,46 318,45 320,45 320,44 322,44 326,44 328,45 329,46 331,46 334,46 335,46 339,46 341,47 343,47 345,47 347,48 351,49 356,49 358,50 361,49 359,48 361,48 362,47 359,46 356,44 355,43 354,42 352,41 351,40 346,38 347,38 348,38 349,37 347,36 344,35 341,35 340,35 341,36 337,35 333,34 331,34 330,34 330,35 331,36 327,36 327,37 325,38 323,38 320,37 319,36 317,36 314,34 314,34 310,33 311,32 312,31 310,31 309,30 305,30 302,31 300,31 300,30 297,29 296,28 297,27 292,26 288,26 287,26 286,25 284,25 283,25 283,25 287,25 292,25 296,25 300,26 310,27 316,28 320,29Z M314,28 310,27Z M365,41 364,41 366,42 366,42 366,42 366,42 369,43 372,45 375,47 378,48 380,49 385,52 385,52 384,52 385,52 386,53 390,55 397,60 403,65 408,69 413,74 417,78 421,83 423,85 426,90 429,95 429,95 428,97 427,98 427,100 425,100 422,99 422,100 419,99 417,100 416,100 414,98 411,97 410,99 404,99 403,99 401,100 399,100 401,102 403,104 401,104 399,105 398,106 398,107 376,99 361,94 362,93 364,92 364,91 362,89 361,88 361,87 359,85 357,83 359,83 357,82 355,82 356,81 358,80 355,78 358,78 357,77 356,77 355,76 356,74 356,72 355,71 355,70 355,69 358,70 358,68 355,66 354,65 355,64 352,63 351,64 350,64 348,63 347,62 347,61 348,60 347,60 346,58 344,57 343,56 341,56 339,55 339,54 341,54 338,54 337,53 334,53 334,55 334,56 330,57 327,56 326,56 326,55 328,53 330,53 329,51Z" />
        <path class="region CAN" d="M338,70 340,70 338,69 339,67 336,67 337,66 340,65 338,65 335,66 334,65 333,65 334,64 337,63 339,62 339,60 339,59 340,59 342,60 342,59 344,59 345,61 346,62 347,63 350,65 353,67 354,68 353,69 353,70 354,71 352,72 350,70 349,69 347,68 348,69 349,71 350,72 349,73 346,71 347,72 347,74 344,73 342,73 338,71 338,70Z" />
        <path class="region CAN" d="M331,63 334,64 332,65 332,65 331,64 331,63Z" />
        <path class="region CAN" d="M304,49 304,49 307,50 308,50 308,50 309,51 308,52 307,52 305,51 304,49Z" />
        <path class="region CAN" d="M315,53 316,52 313,53 309,52 310,50 311,49 308,49 306,49 304,48 304,47 304,46 301,46 301,44 298,43 297,42 297,41 300,41 297,39 295,38 293,37 291,37 292,36 296,35 297,36 299,37 302,37 302,37 301,36 299,35 299,34 298,33 299,33 302,33 306,35 304,34 302,33 302,32 307,34 311,35 312,36 311,36 315,38 316,38 321,39 322,40 319,40 316,39 313,39 313,39 311,40 308,40 308,41 308,41 309,42 312,44 310,44 311,45 312,45 312,46 314,46 316,47 321,49 324,51 324,52 322,52 323,53 321,54 318,55 316,55 313,54 315,53Z" />
        <path class="region CAN" d="M326,61 326,60 324,60 325,59 327,59 327,58 329,57 332,58 333,59 332,59 332,62 331,62 330,60 329,62 326,61Z" />
        <path class="region CAN" d="M323,56 326,56 327,57 325,58 324,58 322,59 320,58 319,57 317,56 321,56 323,56Z" />
        <path class="region CAN" d="M349,75 352,77 350,77 349,79 341,77 339,78 337,75 337,74 336,73 337,72 338,71 340,72 344,74 347,75 349,75Z" />
        <path class="region CAN" d="M317,59 319,59 320,60 320,60 318,61 316,60 317,59 317,59Z" />
        <path class="region CAN" d="M316,63 317,62 318,62 321,61 322,62 323,63 321,63 322,64 320,65 319,64 317,64 316,63 316,63Z" />
        <path class="region CAN" d="M324,68 325,67 324,67 323,66 325,66 327,66 329,68 333,69 334,70 332,70 330,69 332,72 332,73 328,72 327,72 326,70 328,69 327,68 324,69 323,69 322,68 324,68Z" />
        <path class="region CAN" d="M312,62 312,61 311,60 311,60 312,59 312,58 312,58 310,56 308,56 305,55 304,55 304,54 304,53 306,53 308,53 309,54 312,55 314,56 315,57 317,58 315,59 314,60 314,61 315,62 315,63 313,63 312,62Z" />
        <path class="region CAN" d="M323,73 325,73 327,73 328,74 330,75 331,76 331,76 327,76 324,75 324,74 323,73Z" />
        <path class="region CAN" d="M310,62 311,62 312,63 311,64 310,63 310,62 310,62Z" />
        <path class="region CAN" d="M320,70 322,71 321,72 319,71 318,71 318,70 320,70Z" />
        <path class="region CAN" d="M316,70 317,71 318,72 318,72 316,71 316,71 316,70Z" />
        <path class="region CAN" d="M310,64 312,64 311,65 311,65 309,66 309,65 309,65 309,64 310,64Z" />
        <path class="region CAN" d="M312,66 313,65 314,66 314,67 315,68 313,68 313,69 312,69 311,68 311,67 312,66Z" />
        <path class="region CAN" d="M300,63 300,62 302,62 305,62 306,62 307,63 307,64 306,64 305,65 306,65 305,66 304,67 301,68 301,67 300,68 299,67 300,66 299,65 299,64 300,63Z" />
        <path class="region CAN" d="M283,67 282,66 281,66 280,65 280,64 282,64 283,63 284,63 283,63 285,62 286,61 289,60 290,60 291,60 294,60 293,59 294,59 294,58 295,58 297,58 298,57 300,57 300,56 299,56 299,56 303,55 304,57 307,57 308,58 310,59 309,60 307,59 305,61 305,61 304,59 303,60 304,61 302,62 300,62 299,62 299,63 298,64 297,63 297,63 295,63 296,64 298,65 298,66 298,67 298,68 297,68 296,68 295,68 294,68 292,68 292,68 292,67 290,68 289,68 288,68 287,68 286,67 285,67 283,67Z" />
      </g>
      <g id="gCHE">
        <path class="region CHE" d="M125,83 125,83 124,83 123,84 122,85 121,85 122,85 123,84 122,84 123,83 123,82 123,82 124,81 125,80 127,79 127,78 128,78 129,78 130,78 129,79 129,79 127,81 128,81 125,83Z" />
      </g>
      <g id="gCH1">
        <path class="region CH1" d="M205,360 201,361 198,359 198,356 200,354 205,354 207,355 208,356 206,358 205,360Z" />
        <path class="region CH1" d="M275,234 280,235 283,238 285,242 289,242 292,240 296,238 295,242 294,244 293,249 292,253 288,252 285,254 286,258 286,263 284,263 285,265 282,263 281,265 276,267 277,270 274,269 272,268 270,271 266,273 264,276 259,277 256,279 253,280 255,278 254,276 257,274 255,271 252,273 248,275 246,278 243,278 241,280 242,283 245,284 245,286 247,287 252,284 254,286 257,287 257,289 252,290 250,292 247,294 245,297 248,299 249,304 251,308 254,311 254,315 251,316 252,318 254,319 253,323 252,326 250,326 247,331 243,336 240,341 234,344 228,347 224,347 221,348 220,347 217,348 212,349 208,349 206,353 204,353 203,350 204,349 199,346 197,346 193,344 192,342 193,340 189,339 188,337 184,338 181,337 178,336 176,337 174,337 173,342 171,341 171,340 171,338 169,338 167,337 165,335 167,332 164,330 164,326 161,326 162,321 166,319 167,315 168,312 166,311 166,308 164,307 160,305 162,304 161,301 158,302 156,300 152,301 148,302 145,302 144,300 142,299 141,297 139,297 136,299 136,296 134,296 131,294 128,291 126,288 124,286 124,283 123,282 121,278 119,275 118,275 116,270 114,266 115,261 117,263 118,261 118,258 120,255 119,249 116,245 117,241 117,238 117,237 118,235 119,233 118,231 117,231 119,227 120,227 120,226 123,226 125,226 127,228 129,227 132,228 133,227 138,228 139,227 140,225 142,225 144,217 149,219 151,219 156,213 160,217 162,216 164,212 166,213 169,211 170,211 169,214 170,217 173,220 173,224 170,228 170,231 172,233 176,235 178,239 179,240 179,244 179,247 183,248 188,251 192,252 195,253 198,257 202,258 203,260 207,258 212,258 217,259 221,258 223,256 226,255 225,254 225,252 227,250 231,252 235,250 240,249 242,246 244,245 249,245 251,246 252,244 249,241 247,239 245,241 242,240 240,240 240,238 242,234 244,231 247,233 252,231 252,229 255,225 256,223 257,221 255,220 258,218 261,217 264,218 268,219 270,221 272,225 273,227 274,229 275,234Z" />
      </g>
      <g id="gCYN">
        <path class="region CYN" d="M71,154 71,154 71,154 71,155 72,157 71,156 70,157 70,157 70,156 70,156 70,156 71,155 71,155 71,154 71,154Z" />
      </g>
      <g id="gCYP">
        <path class="region CYP" d="M70,157 70,157 69,156 70,154 71,153 71,154 71,154 71,155 71,155 70,156 70,156 70,156 70,157 70,157Z" />
      </g>
      <g id="gCZE">
        <path class="region CZE" d="M120,94 121,93 121,92 123,90 123,90 122,90 124,88 126,86 128,85 130,84 130,85 130,85 130,86 130,86 130,87 130,87 128,89 127,90 126,90 125,91 126,91 125,93 124,93 123,94 121,96 121,95 121,95 121,95 120,95 120,95 120,95 120,95 120,94 120,94Z" />
      </g>
      <g id="gDEU">
        <path class="region DEU" d="M147,75 146,76 144,77 143,78 143,79 143,80 140,82 139,83 137,84 136,84 135,85 133,86 132,86 130,87 130,87 130,86 130,86 130,85 130,85 130,84 128,85 126,86 124,88 123,88 123,87 121,89 121,89 122,88 123,87 123,86 124,84 124,84 125,83 125,83 128,81 127,81 129,79 131,79 132,79 134,76 136,75 137,75 138,74 140,74 143,72 142,73 143,73 145,73 147,72 147,72 146,74 145,74 146,75 147,74 149,73 148,75 147,75Z" />
      </g>
      <g id="gDJI">
        <path class="region DJI" d="M32,248 32,250 31,251 31,250 31,252 30,253 30,252 30,251 30,250 30,248 31,246 31,248 32,248Z" />
      </g>
      <g id="gDN1">
        <path class="region DN1" d="M146,79 144,79 147,77 149,76 148,78 146,79Z" />
        <path class="region DN1" d="M151,76 150,76 151,75 149,75 147,75 148,75 149,73 151,72 155,72 155,72 156,72 155,73 156,73 156,74 154,75 153,74 152,75 151,76Z" />
        <path class="region DN1" d="M271,65 270,66 268,67 268,68 266,68 262,69 258,68 258,67 263,65 262,65 260,66 258,65 258,66 256,66 256,65 255,66 254,68 252,68 250,67 250,65 250,65 252,63 250,64 249,62 248,61 246,59 243,59 244,58 245,57 242,57 240,56 241,55 238,54 240,53 238,53 237,53 238,52 240,51 237,51 236,50 239,50 239,49 237,50 234,49 232,49 234,48 238,48 237,47 237,46 232,48 234,45 236,43 240,42 242,41 243,40 244,39 246,37 247,37 252,36 253,35 252,34 253,33 255,32 254,31 255,30 258,29 261,30 266,30 268,30 269,31 273,32 274,33 274,34 277,35 276,36 277,36 275,38 273,38 272,39 272,40 275,39 276,39 278,40 278,41 277,41 276,41 273,41 277,43 278,42 279,43 277,44 278,45 279,46 280,48 281,49 281,50 284,51 286,52 291,52 292,53 293,54 290,55 288,54 292,56 293,57 292,57 289,58 285,58 284,59 286,60 285,61 282,62 281,62 281,63 279,64 277,64 276,64 275,63 273,64 272,64 271,63 270,63 271,64 271,65Z" />
        <circle class="region DN1" cx="191" cy="53" id="pointF2S30P1" r="0" />
      </g>
      <g id="gDZA">
        <path class="region DZA" d="M114,83 109,87 105,91 104,93 102,95 101,96 100,97 99,98 97,100 95,101 95,101 94,102 90,106 84,113 81,117Z" />
      </g>

      <g id="gEGY">
        <path class="region EGY" d="M57,174 56,175 55,176 54,177 54,177 55,173 59,167 58,167 56,171 51,182 48,187 46,193 46,193 45,195 43,201 44,191 45,181 48,171 55,160 62,151 64,148 65,147 66,146 66,145 66,148 62,156 63,157 63,157 63,159 62,161 61,163 62,163 61,165 61,167 61,168 57,174Z" />
      </g>
      <g id="gERI">
        <path class="region ERI" d="M31,246 32,244 32,241 32,239 33,237 33,234 33,232 33,230 33,230 33,226 32,228 32,224 33,223 35,217 36,217 36,218 37,218 34,227 34,230 32,244 32,246 32,248 31,248 31,246Z" />
      </g>
      <g id="gESP">
        <path class="region ESP" d="M147,60 150,58 148,59 145,61 139,65 134,69 133,70 128,74 128,74 124,76 123,78 121,79 121,78 123,76 123,77 123,77 122,77 120,79 120,78 119,79 120,78Z M138,65 141,63 147,60Z" />
      </g>
      <g id="gEST">
        <path class="region EST" d="M145,94 147,93 147,93 148,91 150,91 151,92 151,94 150,95 149,97 149,97 147,97 143,99 142,98 143,97 144,95 145,95 145,94Z" />
      </g>
      <g id="gETH">
        <path class="region ETH" d="M33,226 33,230 33,230 33,232 33,234 33,237 32,239 32,241 32,244 31,246 30,248 30,250 30,251 30,252 30,253 30,254 29,259 29,261 30,274 31,277 28,279 27,275 26,275 26,273 26,274 26,272 26,270 25,268 25,269 25,264 25,256 26,250 27,243 28,236 28,235 28,236 29,233 29,230 29,231 30,230 30,228 31,228 32,226 32,224 32,228 33,226Z" />
      </g>
      <g id="gFI1">
        <path class="region FI1" d="M186,88 184,88 181,90 178,90 173,92 170,92 167,94 164,95 161,97 159,97 157,97 153,96 154,93 153,91 153,89 155,88 157,86 161,86 164,84 166,84 168,85 171,87 172,87 173,87 176,85 177,84 183,83 189,80 190,80 187,82 187,83 186,84 187,85 190,85 191,86 189,87 186,88Z" />
      </g>
      <g id="gFJI">
        <path class="region FJI" d="M460,429 460,429 459,431 457,432 456,433 456,432 458,430 459,430 460,429Z" />
        <path class="region FJI" d="M463,425 461,427 461,427 463,424 465,422 465,423 463,425Z" />
        <path class="region FJI" d="M465,423 465,423 465,422 466,421 465,423Z" />
      </g>
      <g id="gGB1">
        <path class="region GB1" d="M169,55 168,55 170,54 171,53 172,53 174,53 172,54 169,55Z" />
        <path class="region GB1" d="M176,57 174,56 173,57 171,58 169,58 168,58 167,59 161,61 160,62 156,63 154,64 152,66 150,66 150,65 148,66 148,65 151,63 153,61 154,61 154,60 156,59 156,58 158,57 158,58 157,59 160,57 162,57 160,58 163,57 164,57 161,59 163,59 166,58 168,56 169,56 170,56 171,55 171,55 173,55 175,54 178,54 179,55 177,56 176,57Z" />
        <circle class="region GB1" cx="71" cy="391" id="pointF2S15P1" r="0" />
      </g>
      <g id="gGEO">
        <path class="region GEO" d="M88,157 89,156 91,154 92,151 92,150 93,148 94,148 93,151 93,154 92,158 92,159 92,160 92,162 91,164 91,166 90,166 89,168 88,168 88,167 89,165 88,165 87,162 88,159 88,157Z" />
      </g>
      <g id="gGRC">
        <path class="region GRC" d="M77,132 76,134 76,136 75,137 75,138 74,139 74,139 75,136 75,136 77,133 77,132Z" />
        <path class="region GRC" d="M91,125 89,126 89,126 90,124 90,123 90,121 88,124 88,123 89,122 91,120 90,120 88,121 87,123 86,123 85,125 84,127 82,128 84,126 82,127 82,126 80,129 80,128 82,125 84,122 86,121 90,117 91,116 92,116 92,115 93,116 93,115 93,116 93,117 93,118 93,118 93,118 92,120 92,121 91,123 91,125 92,124 91,125Z" />
      </g>
      <g id="gHRV">
        <path class="region HRV" d="M110,102 108,103 107,104 107,104 108,102 108,101 110,99 110,98 110,98 111,97 110,98 107,100 105,102 104,103 103,104 101,107 100,107 102,104 104,103 106,100 109,98 109,98 111,96 112,96 113,94 112,94 113,93 114,93 113,94 114,94 113,95 112,96 113,95 113,96 114,95 114,96 111,99 110,101 110,102Z" />
      </g>
      <g id="gHUN">
        <path class="region HUN" d="M115,95 117,95 118,94 117,95 118,95 117,96 116,97 116,98 116,98 116,99 116,99 116,100 116,100 116,100 116,101 114,103 115,103 113,105 112,105 112,105 111,105 109,105 109,104 110,103 110,101 111,99 114,96 115,96 115,95Z" />
      </g>
      <g id="gIDN">
        <path class="region IDN" d="M245,467 244,466 238,464 242,464 244,465 246,466 245,467Z" />
        <path class="region IDN" d="M261,467 258,468 257,467 257,466 259,465 264,464 264,464 264,465 261,467Z" />
        <path class="region IDN" d="M233,459 235,460 237,460 238,462 231,462 228,461 230,460 232,460 233,459Z" />
        <path class="region IDN" d="M255,461 254,463 248,463 242,462 242,461 245,461 248,462 251,462 255,461Z" />
        <path class="region IDN" d="M194,449 202,451 203,450 211,453 212,455 219,457 224,459 219,459 214,458 211,457 206,456 202,455 198,453 195,452 193,452 185,449 185,447 181,446 184,444 188,445 192,447 194,448 194,449Z" />
        <path class="region IDN" d="M306,455 303,457 303,455 304,454 305,453 306,453 306,455Z" />
        <path class="region IDN" d="M273,448 272,449 269,448 268,447 272,446 273,448Z" />
        <path class="region IDN" d="M287,446 289,449 285,447 282,447 279,447 276,447 277,446 283,445 287,446Z" />
        <path class="region IDN" d="M303,439 305,444 309,446 313,442 318,440 321,439 325,440 328,440 333,440 333,451 332,460 329,458 324,458 323,459 318,460 320,457 322,456 321,453 319,451 311,449 308,449 301,447 300,448 298,449 297,448 297,446 294,445 299,444 302,443 301,443 295,443 293,441 289,441 288,439 293,438 296,437 303,438 303,439Z" />
        <path class="region IDN" d="M265,431 261,435 258,435 254,434 246,434 243,434 242,437 246,440 248,439 256,438 256,439 254,439 252,441 248,442 252,446 252,447 256,451 256,453 253,454 252,453 254,450 249,451 248,450 249,449 246,447 246,444 243,445 244,448 244,453 241,453 239,452 240,449 240,446 238,446 237,444 238,442 239,439 241,434 242,433 246,431 249,432 255,433 260,433 264,431 265,431Z" />
        <path class="region IDN" d="M280,433 279,435 277,435 276,437 278,439 277,439 275,437 274,433 275,430 276,429 277,431 279,431 280,433Z" />
        <path class="region IDN" d="M233,428 237,432 232,431 231,434 231,437 227,438 227,441 225,446 225,445 220,446 218,443 215,443 213,441 208,442 206,440 204,440 200,439 200,434 198,433 196,430 195,427 195,424 198,422 199,424 201,427 204,427 207,427 209,426 211,426 215,428 219,427 221,423 223,422 224,418 229,419 233,420 230,423 233,426 233,428Z" />
        <path class="region IDN" d="M183,444 178,442 175,439 169,435 168,432 165,429 163,426 160,420 156,416 155,413 154,410 150,407 148,403 146,400 142,395 142,393 144,394 150,397 153,401 156,405 158,407 162,412 166,413 169,416 171,420 174,422 173,425 175,426 176,427 177,429 178,432 181,433 183,435 183,439 183,444Z" />
      </g>
      <g id="gIND">
        <path class="region IND" d="M119,249 120,255 118,258 118,261 117,263 115,261 114,266 116,270 118,275 116,276 113,279 115,282 117,285 120,290 123,293 124,296 126,297 130,300 132,302 133,300 133,298 134,296 136,296 135,300 138,303 140,303 142,305 145,306 146,304 145,302 148,302 152,301 156,300 158,302 161,301 162,304 160,305 164,307 164,309 162,309 162,312 160,310 155,311 154,314 152,316 151,318 149,321 146,319 145,323 144,324 144,326 142,326 142,319 141,319 140,321 139,318 140,316 142,317 144,314 142,312 139,311 137,309 137,306 136,305 134,302 132,304 133,308 131,308 130,309 132,311 130,313 131,317 130,320 130,322 127,320 123,319 123,322 121,323 115,324 111,326 108,327 105,328 104,329 102,329 100,329 98,328 97,330 96,336 96,339 94,341 93,347 91,347 90,348 90,350 87,349 86,351 85,351 83,346 82,335 81,333 81,328 81,323 81,320 80,313 82,300 83,296 84,292 80,291 79,289 77,282 79,281 79,279 78,274 80,273 85,277 86,274 85,271 86,268 86,265 90,263 92,266 96,264 99,262 103,260 104,257 107,257 106,253 107,250 108,246 110,245 113,249 116,251 119,249Z" />
      </g>
      <g id="gIRL">
        <path class="region IRL" d="M168,55 166,55 165,55 167,53 170,51 171,52 174,51 174,52 174,53 172,53 171,53 170,54 168,55Z" />
      </g>
      <g id="gIRN">
        <path class="region IRN" d="M84,196 85,197 87,197 88,198 89,199 89,200 89,204 90,206 89,212 90,213 89,216 83,221 83,223 82,224 80,227 79,230 80,232 79,234 75,235 75,238 75,241 75,245 74,248 74,250 74,252 70,250 68,253 65,248 64,244 63,241 64,236 64,234 63,233 61,232 60,228 60,223 60,220 61,215 64,209 63,209 63,206 62,206 63,203 64,202 64,201 65,199 67,195 67,191 69,186 71,185 72,185 74,183 74,181 79,172 80,172 83,168 84,169 83,170 82,172 82,174 82,175 85,175 85,176 85,177 83,178 82,181 82,181 81,184 81,187 80,190 81,194 83,196 84,196Z" />
      </g>
      <g id="gIRQ">
        <path class="region IRQ" d="M74,181 74,183 72,185 71,185 69,186 67,191 67,195 65,199 64,201 64,202 63,203 62,206 61,203 59,204 58,199 61,186 63,181 63,177 66,173 69,175 72,172 74,170 74,171 76,170 77,171 77,174 76,175 77,176 74,181Z" />
      </g>
      <g id="gISL">
        <path class="region ISL" d="M213,49 212,48 209,49 209,47 211,45 212,44 220,42 219,43 224,42 221,43 222,43 226,42 226,43 224,44 220,44 219,46 217,46 216,48 213,49Z" />
      </g>
      <g id="gISR">
        <path class="region ISR" d="M64,167 64,168 64,166 62,168 62,169 62,168 61,169 62,170 61,171 57,174 61,168 62,168 62,167 63,167 65,165 65,165 65,166 66,165 66,166 65,167 64,167 64,167Z" />
      </g>
      <g id="gITA">
        <path class="region ITA" d="M92,109 91,110 90,111 89,111 92,108 95,104 96,103 94,106 92,109Z" />
        <path class="region ITA" d="M109,91 106,94 103,96 104,95 104,94 105,93 108,91 110,90 109,91 109,91Z" />
        <path class="region ITA" d="M120,89 117,91 116,92 114,93 116,91 116,91 114,91 114,92 112,93 109,95 106,98 103,101 102,103 101,104 101,104 97,108 95,111 94,111 93,112 95,110 97,107 95,108 93,110 92,111 93,110 91,111 91,110 92,109 93,109 94,109 97,105 98,104 100,103 101,101 103,100 104,98 106,96 109,93 111,91 115,89 116,88 118,86 118,85 118,85 118,84 119,84 120,83 123,81 123,81 124,80 125,80 124,81 123,82 123,82 123,83 122,84 123,84 122,85 121,85 122,85 121,86 122,86 121,88 120,89Z" />
      </g>
      <g id="gJOR">
        <path class="region JOR" d="M64,168 64,167 63,171 66,173 63,177 63,177 61,174 59,179 59,179 58,179 58,178 57,178 56,178 57,175 57,174 61,171 62,170 62,169 64,168Z" />
      </g>
      <g id="gJPN">
        <path class="region JPN" d="M300,300 301,302 299,305 297,303 296,304 295,307 292,306 292,304 294,301 296,302 297,300 300,300Z" />
        <path class="region JPN" d="M321,285 320,289 321,291 320,294 315,297 309,298 305,303 302,302 302,298 295,300 291,302 287,302 291,305 289,313 286,315 285,313 285,309 283,308 281,305 285,304 287,301 290,298 293,295 300,294 303,294 306,286 309,288 315,281 316,275 315,271 316,268 319,266 322,272 323,276 320,280 321,285Z" />
        <path class="region JPN" d="M325,253 327,254 329,251 331,256 327,258 325,263 319,261 318,266 315,266 314,262 315,259 318,258 318,252 318,248 323,252 325,253Z" />
      </g>
      <g id="gKAZ">
        <path class="region KAZ" d="M120,212 119,212 115,212 112,214 112,213 112,211 110,208 112,205 111,204 114,201 114,197 112,194 110,192 111,187 111,185 111,179 107,176 96,187 96,186 97,183 97,180 96,179 94,179 95,178 96,177 97,176 97,172 100,169 100,167 101,166 101,168 104,166 105,168 105,170 108,167 110,165 109,163 109,161 107,160 106,159 106,158 108,156 109,153 109,152 111,149 113,148 114,147 118,146 116,149 119,147 124,148 125,151 124,159 126,160 128,162 127,166 129,166 130,168 132,167 132,163 135,163 135,162 137,162 139,159 140,159 146,163 147,163 151,166 154,166 155,169 153,173 155,173 156,176 154,178 156,179 162,179 161,180 161,184 158,196 161,195 162,198 165,199 166,201 165,203 166,205 166,207 169,208 169,211 166,213 164,212 162,216 160,217 156,213 151,219 149,219 144,217 142,225 140,225 139,227 138,226 138,224 135,221 131,218 130,218 129,214 127,214 125,216 123,212 122,211 120,212Z" />
      </g>
      <g id="gKEN">
        <path class="region KEN" d="M25,287 25,292 25,291 25,292 25,291Z M26,251 26,250 25,256 25,264 25,269 25,268 26,270 26,272 26,274 25,275 25,287Z" />
      </g>
      <g id="gKGZ">
        <path class="region KGZ" d="M120,212 122,211 123,212 125,216 127,214 129,214 130,218 131,218 135,221 138,224 138,226 139,227 138,228 133,227 132,228 129,227 127,228 125,226 123,226 120,226 120,227 119,227 115,224 113,221 111,219 112,217 114,220 115,220 117,221 121,221 120,217 118,217 117,214 120,213 120,212Z" />
      </g>
      <g id="gKHM">
        <path class="region KHM" d="M175,385 173,382 172,378 171,373 174,370 179,371 183,373 186,375 188,373 191,375 192,378 191,382 184,384 186,386 181,386 178,386 175,385Z" />
      </g>
      <g id="gKOR">
        <path class="region KOR subject" d="M277,282 280,287 281,290 281,295 280,297 277,298 274,300 271,300 270,298 271,295 270,290 272,290 270,286 270,285 272,286 273,284 275,283 277,283 277,282Z" />
      </g>
      <g id="gKOS">
        <path class="region KOS" d="M97,112 96,113 96,112 97,111 98,111 99,110 99,110 99,110 100,110 100,110 98,113 98,113 97,113 97,113 97,114 97,112Z" />
      </g>
      <g id="gKWT">
        <path class="region KWT" d="M62,205 61,207 60,207 59,210 58,209 59,207 59,204 61,203 62,205Z" />
      </g>
      <g id="gLAO">
        <path class="region LAO" d="M183,373 184,371 185,368 182,364 182,360 180,356 177,355 176,356 174,355 173,354 168,355 169,352 170,348 168,347 168,344 167,343 168,341 171,340 171,341 173,342 174,337 176,337 177,341 178,345 183,346 184,350 181,350 180,352 184,355 187,361 189,365 191,368 192,371 191,375 188,373 186,375 183,373Z" />
      </g>
      <g id="gLBN">
        <path class="region LBN" d="M66,166 66,165 65,166 65,165 67,163 69,163 69,164 68,165 67,165 66,166Z" />
      </g>

      <g id="gLBY">
        <path class="region LBY" d="M81,117 84,113 84,113 85,111 85,112 85,112 85,112 86,111 84,114 83,115 79,121 76,124 70,134 70,135 70,135 72,132 73,132 73,133 73,134 71,137 70,139 69,140 69,141 67,144 66,145 66,146 65,147 64,148 62,151 55,160 48,171 45,176 46,173 46,175 53,159Z" />
      </g>
      <g id="gLKA">
        <path class="region LKA" d="M97,362 96,365 95,365 92,364 91,360 91,355 93,350 95,353 96,357 97,362Z" />
      </g>
      <g id="gLTU">
        <path class="region LTU" d="M134,96 135,95 135,95 136,94 138,92 141,91 141,92 140,95 139,96 139,97 138,98 136,100 134,101 134,100 132,100 131,99 132,97 133,97 134,96Z" />
      </g>
      <g id="gLUX">
        <path class="region LUX" d="M138,74 137,75 136,75 136,75 137,74 138,74 138,74Z" />
      </g>
      <g id="gLVA">
        <path class="region LVA" d="M141,91 143,90 145,90 146,91 143,93 142,94 145,94 145,95 144,95 143,97 142,98 141,99 139,100 137,102 136,100 136,100 138,98 139,97 139,96 140,95 141,92 141,91Z" />
      </g>

      <g id="gMDA">
        <path class="region MDA" d="M111,112 111,112 111,113 110,115 110,116 109,117 108,118 107,119 105,120 105,121 104,121 104,122 104,122 104,120 104,120 104,120 104,120 103,120 102,121 102,120 103,119 104,118 106,118 108,115 111,113 111,112Z" />
      </g>
      <g id="gMDG">
        <path class="region MDG" d="M36,349 37,353Z " />
      </g>
      <g id="gMEX">
        <path class="region MEX" d="M462,109 461,108 463,110 466,114Z M468,117 467,115 465,114 461,108 461,109 460,107Z" />
      </g>
      <g id="gMKD">
        <path class="region MKD" d="M96,112 96,113 97,112 97,113 96,114 96,115 95,117 93,118 93,118 93,118 93,117 93,116 93,115 94,114 96,113 96,112Z" />
      </g>

      <g id="gMMR">
        <path class="region MMR" d="M164,343 162,344 159,343 157,347 155,347 157,351 158,355 160,358 158,361 156,361 157,363 159,367 159,369 159,371 160,375 157,378 155,381 155,378 157,376 156,373 156,369 155,367 155,362 155,356 154,353 151,354 146,355 145,354 143,352 145,348 145,344 143,338 143,337 142,335 140,331 140,328 141,329 142,326 144,326 144,324 145,323 146,319 149,321 151,318 152,316 154,314 155,311 160,310 162,312 162,309 164,309 164,307 166,308 166,311 168,312 167,315 166,319 162,321 161,326 164,326 164,330 167,332 165,335 167,337 169,338 171,338 171,340 168,341 167,343 164,343Z" />
      </g>
      <g id="gMNE">
        <path class="region MNE" d="M99,109 100,109 99,109 98,110 98,109 99,108 100,107 101,107 102,106 102,106 102,106 101,108 100,110 99,110 99,109Z" />
      </g>
      <g id="gMNG">
        <path class="region MNG" d="M170,211 173,212 179,211 183,210 185,212 187,214 188,216 190,217 193,219 197,218 197,215 201,212 203,214 205,215 207,217 207,221 210,223 212,223 216,224 218,225 220,227 221,230 224,230 227,232 230,231 234,231 238,229 240,229 241,231 244,231 242,234 240,238 240,240 242,240 245,241 247,239 249,241 252,244 251,246 249,245 244,245 242,246 240,249 235,250 231,252 227,250 225,252 225,254 226,255 223,256 221,258 217,259 212,258 207,258 203,260 202,258 198,257 195,253 192,252 188,251 183,248 179,247 179,244 179,240 178,239 176,235 172,233 170,231 170,228 173,224 173,220 170,217 169,214 170,211Z" />
      </g>
      <g id="gMYS">
        <path class="region MYS" d="M164,398 164,400 167,400 168,399 169,400 171,403 173,406 173,408 172,409 173,411 173,413 174,414 176,418 176,419 173,418 169,415 165,410 164,409 162,405 162,402 160,400 161,398 160,396 161,395 164,398Z" />
        <path class="region MYS" d="M236,419 233,420 229,419 224,418 223,422 221,423 219,427 215,428 211,426 209,426 207,427 204,427 201,427 199,424 198,422 201,424 204,424 205,421 207,420 212,421 215,418 217,416 219,419 220,418 222,418 223,414 226,412 228,409 230,410 232,412 232,413 235,415 238,416 238,417 235,417 236,419Z" />
      </g>
      <g id="gNL1">
        <path class="region NL1" d="M148,71 147,72 145,73 143,73 142,73 143,72 140,74 141,73 143,71 144,70 145,69 145,69 148,69 148,71Z" />
      </g>
      <g id="gNOR">
        <path class="region NOR" d="M195,86 191,89 191,88 188,90 186,88 186,88 189,87 191,86 190,85 187,85 186,84 187,83 187,82 190,80 189,80 189,79 187,79 188,77 186,77 187,76 181,75 177,74 176,75 175,74 175,73 173,73 168,74 166,75 162,75 160,74 159,74 162,73 160,71 161,69 164,67 168,66 176,65 177,66 177,69 179,71 182,72 187,74 189,76 193,78 193,80 193,82 195,82 195,84 195,86Z" />
        <path class="region NOR" d="M223,81 222,79 223,78 224,79 226,78 226,80 224,80 223,81Z" />
        <path class="region NOR" d="M232,77 229,79 228,78 225,77 224,77 221,76 221,75 225,74 226,75 227,74 231,74 235,74 235,75 233,75 233,76 234,76 234,77 232,77Z" />
        <path class="region NOR" d="M234,81 232,82 230,81 230,80 231,78 233,78 233,78 235,77 236,79 234,79 235,80 234,81Z" />
        <circle class="region NOR" cx="218" cy="56" id="pointF2S31P1" r="0" />
      </g>
      <g id="gNPL">
        <path class="region NPL" d="M134,296 133,298 133,300 132,302 130,300 126,297 124,296 123,293 120,290 117,285 115,282 113,279 116,276 118,275 119,275 121,278 123,282 124,283 124,286 126,288 128,291 131,294 134,296Z" />
      </g>
      <g id="gNZ1">
        <path class="region NZ1" d="M422,476 422,476 424,475Z M419,479 421,477 421,477 420,477 420,477 422,476 422,476 423,475 422,476Z" />
      </g>
      <g id="gOMN">
        <path class="region OMN" d="M57,261 56,262 55,261 55,261 54,263 53,265 53,265 52,264 51,264 50,265 49,266 48,264 48,264 47,265 46,265 46,263 44,263 44,262 46,251 50,255 54,250 55,246 56,245 57,244 57,243 58,243 58,242 59,240 60,242 59,245 60,248 60,250 61,252 61,257 61,258 61,259 58,261 57,261Z" />
        <path class="region OMN" d="M62,238 61,239 62,237 63,237 63,237 62,238Z" />
      </g>
      <g id="gPAK">
        <path class="region PAK" d="M117,238 117,241 116,245 119,249 116,251 113,249 110,245 108,246 107,250 106,253 107,257 104,257 103,260 99,262 96,264 92,266 90,263 86,265 86,268 85,271 86,274 85,277 80,273 78,274 77,271 77,268 77,263 73,260 70,256 68,253 70,250 74,252 74,250 74,248 75,245 75,241 75,238 75,235 77,241 79,243 80,244 80,244 82,246 85,247 86,244 88,243 90,245 91,244 92,245 93,246 94,246 95,244 97,243 99,243 100,240 101,242 103,241 103,240 105,239 106,237 107,235 109,234 111,236 114,237 115,238 117,238Z" />
      </g>
      <g id="gPHL">
        <path class="region PHL" d="M270,407 270,409 270,411 269,414 267,411 265,413 267,415 265,417 260,415 259,412 260,410 258,408 256,410 254,410 251,412 250,410 252,407 255,407 257,405 259,407 262,406 263,404 266,404 265,402 269,403 270,407Z" />
        <path class="region PHL" d="M259,399 258,401 256,403 255,404 252,401 253,400 254,399 255,397 257,397 257,399 260,396 259,399Z" />
        <path class="region PHL" d="M236,401 230,404 232,402 235,400 238,398 240,394 241,397 238,399 236,401Z" />
        <path class="region PHL" d="M251,393 253,394 256,394 256,396 254,397 251,398 251,397 251,395 251,393Z" />
        <path class="region PHL" d="M266,392 267,397 264,396 264,397 265,399 263,400 263,397 261,397 261,395 263,395 263,394 261,391 265,391 266,392Z" />
        <path class="region PHL" d="M249,388 248,391 246,389 244,386 248,387 249,388Z" />
        <path class="region PHL" d="M249,367 251,368 253,367 253,368 252,370 254,373 253,376 250,377 249,380 250,383 252,384 254,384 259,386 259,388 260,389 260,391 257,389 255,387 254,388 251,386 247,386 245,385 246,383 247,382 246,381 245,383 243,380 243,379 243,375 244,376 245,370 246,366 249,367Z" />
      </g>
      <g id="gPNG">
        <path class="region PNG" d="M392,439 391,439 390,439 388,437 388,435 388,435 388,436 390,436 391,437 393,438 392,439Z" />
        <path class="region PNG" d="M378,439 375,440 375,441 371,444 368,444 365,444 363,444 363,443 367,443 369,442 370,440 370,440 371,441 373,441 374,439 376,438 376,436 378,435 379,435 379,437 378,439Z" />
        <path class="region PNG" d="M358,450 361,451 364,454 366,453 366,454 369,454 368,455 372,455 371,456 369,457 368,456 360,457 357,456 355,455 353,453 348,453 344,455 342,456 342,458 339,460 337,459 332,460 333,451 333,440 340,441 348,442 351,443 353,444 353,445 360,446 361,447 357,448 358,450Z" />
        <path class="region PNG" d="M382,435 381,436 380,435 380,434 376,432 373,432 374,431 376,431 379,432 380,433 382,433 382,435Z" />
      </g>
      <g id="gPOL">
        <path class="region POL" d="M130,87 132,86 133,86 135,85 136,84 137,84 139,83 139,84 139,87 138,89 137,89 136,91 135,93 134,96 133,97 132,97 130,98 129,99 127,100 127,99 125,100 124,101 121,103 120,103 120,103 118,102 116,104 118,101 118,100 119,99 119,98 121,97 120,96 123,94 124,93 125,93 126,91 125,91 126,90 127,90 128,89 130,87Z" />
      </g>
      <g id="gUS1">
        <path class="region US1" d="M505,247 505,248 504,248 504,247 503,246 503,245 503,244 503,244 503,244 504,243 504,243 505,243 505,244 505,247Z" />
        <path class="region US1" d="M502,243 502,244 501,244 501,244 501,244 501,243 501,243 502,242 502,243Z" />
        <path class="region US1" d="M500,243 501,243 500,245 500,244 500,243Z" />
        <path class="region US1" d="M499,245 499,245 499,246 498,245 498,244 498,244 499,245Z" />
        <path class="region US1" d="M496,247 496,247 496,248 496,247 496,246 496,247Z" />
        <path class="region US1" d="M384,52 385,52 385,52 380,49 378,48 375,47 372,45 369,43 366,42 366,42 366,42 366,42 364,41 365,41Z M460,107 461,109 461,108 465,114 464,113 464,113 464,114 464,113 465,115 464,115 466,117 466,117 464,116 463,116 461,115 460,114 460,114 459,114 457,113 456,113 453,111 451,109 449,109 446,106 441,102 437,101 434,100 433,100 433,99 432,97 435,97 434,97 431,96 429,95 426,90 423,85 421,83 417,78 413,74 408,69 403,65 397,60 390,55 386,53 385,52 384,52Z" />
        <path class="region US1" d="M408,131 409,133 408,133 406,132 405,130 405,129 405,128 407,128 408,131Z" />
        <path class="region US1" d="M390,141 390,143 389,143 387,143 387,141 388,141 390,141Z" />
        <path class="region US1" d="M371,138 372,138 372,137 374,137 375,136 376,137 376,138 374,138 373,138 373,140 372,140 371,138Z" />
        <path class="region US1" d="M353,106 355,106 355,105 355,104 356,104 357,103 357,102 359,100 359,98 360,98 359,96 361,95 361,94 376,99 398,107 398,106 399,105 401,104 403,104 401,102 399,100 401,100 403,99 404,99 410,99 411,97 414,98 416,100 414,100 414,101 411,100 408,101 405,100 405,102 406,104 405,105 401,107 401,108 399,109 400,112 398,114 396,114 396,116 399,117 399,118 400,120 401,122 401,124 399,123 395,121 394,119 393,118 395,121 397,124 399,127 402,127 404,130 405,133 405,135 407,136 408,140 409,141 410,144 409,145 409,150 410,152 409,155 408,155 408,152 408,150 407,147 407,145 406,143 405,139 405,138 404,136 401,134 399,132 400,135 399,135 400,136 398,136 399,137 397,137 398,139 397,140 395,138 394,137 392,137 392,139 389,139 388,140 386,138 384,138 382,136 381,134 379,132 380,131 381,130 379,128 380,128 379,126 378,125 377,125 376,124 375,124 375,126 376,127 375,127 374,129 372,130 370,130 367,130 367,127 367,124 367,123 369,124 370,122 367,121 365,122 363,121 361,121 359,122 357,120 358,118 357,116 355,115 354,113 354,112 353,110 354,109 352,107 353,106Z" />
      </g>
      <g id="gPRK">
        <path class="region PRK subject" d="M285,265 285,266 284,266 282,267 282,269 282,272 280,273 279,274 278,275 276,276 275,277 274,279 274,279 275,280 277,282 277,283 275,283 273,284 272,286 270,285 270,286 268,285 268,286 267,286 267,285 266,285 265,284 266,282 267,282 266,281 267,279 267,278 265,277 264,276 266,273 270,271 272,268 274,269 277,270 276,267 281,265 282,263 285,265Z" />
      </g>
      <g id="gPRT">
        <path class="region PRT" d="M147,60 141,63 138,65Z M144,62 147,60Z" />
      </g>
      <g id="gQAT">
        <path class="region QAT" d="M54,229 55,226 56,225 57,225 56,227 55,229 54,230 54,230 54,229Z" />
      </g>
      <g id="gROU">
        <path class="region ROU" d="M112,105 113,106 112,107 112,108 111,110 111,110 111,111 111,111 111,112 111,113 108,115 106,118 104,118 103,119 102,120 101,122 101,122 100,123 100,124 99,123 100,123 96,125 97,123 98,121 98,119 98,119 99,116 100,114 100,113 102,111 102,111 103,111 103,110 104,109 105,108 106,106 107,105 109,104 109,105 111,105 112,105 112,105Z" />
      </g>
      <g id="gRUS">
        <path class="region RUS" d="M318,225 323,232 319,232 318,238 322,242 322,245 320,243 318,246 317,243 317,239 315,234 315,231 314,225 312,221 311,215 313,213 312,211 313,211 316,217 316,221 318,225Z" />
        <path class="region RUS" d="M134,96 135,93 136,91 137,90 138,92 136,94 135,95 135,95 134,96Z" />
        <path class="region RUS" d="M358,134 360,134 357,133 360,130 365,131 366,133 364,135 368,138 368,139 367,139 365,139 363,140 361,139 360,139 359,141 357,140 356,139 356,141 358,142 358,144 346,132 351,132 356,132 358,134Z" />
        <path class="region RUS" d="M340,127 339,128 338,127 337,125 340,127Z" />
        <path class="region RUS" d="M341,126 340,127 337,125 337,125 338,124 340,124 341,124 341,126Z" />
        <path class="region RUS" d="M295,137 293,137 290,137 290,137 291,136 292,135 294,136 295,137Z" />
        <path class="region RUS" d="M300,129 299,130 297,130 295,130 295,128 300,129Z" />
        <path class="region RUS" d="M293,128 293,131 289,132 288,133 285,131 285,128 286,128 289,127 293,128Z" />
        <path class="region RUS" d="M197,113 196,113 195,109 197,108 198,106 200,105 201,106 203,105 207,105 207,104 212,104 213,103 216,104 220,105 222,106 225,107 226,108 225,109 223,109 216,107 211,107 207,107 203,108 199,110 197,113Z" />
        <path class="region RUS" d="M255,123 254,125 256,124 258,125 260,127 260,128 260,130 258,131 255,132 253,133 255,134 256,135 257,135 257,137 258,136 260,136 264,137 264,139 269,140 269,137 272,138 274,138 276,139 277,142 276,143 278,146 280,148 281,144 283,145 286,144 288,145 289,144 292,144 290,141 291,139 303,139 305,141 310,142 315,140 317,140 319,141 321,143 323,144 324,142 326,141 329,141 331,139 335,141 336,139 333,137 333,136 337,134 339,133 343,132 346,132 358,144 358,146 357,147 359,148 362,150 364,150 365,151 366,152 363,154 361,159 360,160 360,164 359,167 360,169 356,168 353,173 352,172 351,175 348,175 349,178 349,183 350,184 353,184 355,190 354,191 355,194 356,195 354,199 355,204 352,206 353,210 351,215 349,213 346,207 341,199 340,193 340,190 340,188 342,186 343,180 344,175 346,171 344,165 342,166 343,170 341,176 337,172 333,175 331,183 334,185 330,187 327,188 326,185 322,186 321,188 314,189 307,192 301,201 294,212 298,212 299,214 302,215 303,213 306,212 310,217 311,220 310,225 311,230 311,237 307,243 307,247 303,252 298,260 294,263 292,263 290,261 286,265 285,266 285,265 284,263 286,263 286,258 285,254 288,252 292,253 293,249 294,244 295,242 296,238 292,240 289,242 285,242 283,238 280,235 275,234 274,229 273,227 272,225 270,221 268,219 264,218 261,217 258,218 255,220 257,221 256,223 255,225 252,229 252,231 247,233 244,231 241,231 240,229 238,229 234,231 230,231 227,232 224,230 221,230 220,227 218,225 216,224 212,223 210,223 207,221 207,217 205,215 203,214 201,212 197,215 197,218 193,219 190,217 188,216 187,214 185,212 183,210 179,211 173,212 169,211 169,208 166,207 166,205 165,203 166,201 165,199 162,198 161,195 158,196 161,184 161,180 162,179 156,179 154,178 156,176 155,173 153,173 155,169 154,166 151,166 147,163 146,163 140,159 139,159 137,162 135,162 135,163 132,163 132,167 130,168 129,166 127,166 128,162 126,160 124,159 125,151 124,148 119,147 116,149 118,146 114,147 113,148 111,149 109,152 109,153 108,156 106,158 106,159 104,160 102,158 99,159 96,163 94,165 92,171 90,171 89,171 89,170 91,167 91,166 91,164 92,162 92,160 92,159 92,158 93,154 93,151 94,148 93,148 96,144 97,141 99,138 99,139 102,138 103,136 104,138 105,138 104,136 106,135 107,136 107,137 108,137 110,135 112,135 113,134 114,131 114,130 115,127 115,126 116,123 117,123 118,122 118,120 119,119 120,119 122,117 122,116 122,115 122,115 122,114 124,113 125,112 126,112 125,113 126,114 127,113 128,111 128,111 129,110 131,108 132,108 134,107 135,105 135,104 136,104 137,102 139,100 141,99 142,98 143,99 147,97 149,97 149,97 151,98 153,96 157,97 159,97 161,97 164,95 167,94 170,92 173,92 178,90 181,90 184,88 186,88 186,88 188,90 189,90 186,93 185,96 181,101 179,102 176,103 174,103 173,101 176,95 176,95 173,97 167,100 165,101 164,103 166,102 168,101 169,101 167,105 168,106 171,104 175,105 175,106 174,108 177,107 179,105 181,105 184,103 183,107 181,108 180,107 178,108 177,109 178,111 181,110 183,111 188,113 188,114 185,114 185,116 187,116 188,117 191,118 189,120 192,120 194,118 195,117 196,121 196,123 195,129 197,128 198,126 199,125 198,124 200,123 202,121 204,120 208,119 212,117 213,118 214,120 212,122 209,123 208,124 206,126 201,130 200,132 198,134 191,136 192,138 193,137 195,137 197,136 200,135 201,133 203,132 203,131 204,129 208,127 210,124 214,123 216,121 216,122 215,123 211,126 212,127 214,125 216,125 218,126 218,129 220,126 223,123 225,123 227,125 229,125 230,123 233,122 234,122 237,122 240,123 241,122 243,122 243,123 247,123 248,123 249,122 251,121 254,120 255,121 253,122 255,123Z" />
        <path class="region RUS" d="M255,118 250,118 254,114 255,114 255,115 256,117 255,118Z" />
        <path class="region RUS" d="M235,93 233,92 233,92 232,92 233,91 234,91 234,90 235,91 235,91 234,92 235,92 236,92 235,93 235,93Z" />
        <path class="region RUS" d="M252,115 250,115 249,113 249,112 250,109 250,109 253,107 255,107 255,109 254,112 252,115Z" />
      </g>
      <g id="gSAU">
        <path class="region SAU" d="M36,235 36,233 36,232 37,230 37,228 38,223 39,220 40,216 40,214 42,210 43,207 44,205 46,200 46,198 47,196 48,193 48,193 49,191 50,189 54,179 54,178 57,175 56,178 57,178 58,178 58,179 59,179 59,179 61,174 63,177 63,177 63,181 61,186 58,199 59,204 59,207 58,209 59,210 57,214 57,216 57,218 57,221 56,222 55,223 55,224 54,226 54,229 54,230 54,230 53,232 53,233 52,237 54,247 55,246 54,250 50,255 46,251 42,245 41,244 39,245 39,244 39,243 39,242 38,239 38,238 38,235 37,235 37,233 37,234 36,235 36,235Z" />
      </g>
      <g id="gSDN">
        <path class="region SDN" d="M28,233 30,227 30,224 31,222 31,221 31,221 31,220 30,224 30,224 30,225 31,219Z M41,187 46,175 46,173 45,176 48,171 45,181 44,191 43,201 41,205 41,205 39,209 38,214 37,218 36,218 36,217 35,217 33,223 32,224 32,226 31,228 30,228 30,230 29,231 29,230 28,233Z" />
        <path class="region SDN" d="M28,233 28,236 28,235 28,236 27,243 26,250 26,251Z M31,219 30,224 30,225 30,224 30,224 31,220 31,221 31,221 31,222 30,224 30,227 28,233Z" />
      </g>
      <g id="gSLB">
        <path class="region SLB" d="M414,440 415,441 412,442 411,441 413,440 414,440Z" />
        <path class="region SLB" d="M410,440 408,441 406,442 406,442 406,440 408,440 409,440 410,440Z" />
        <path class="region SLB" d="M413,438 412,439 410,438 409,436 411,436 412,438 413,438Z" />
        <path class="region SLB" d="M407,437 407,438 404,438 402,438 401,437 402,437 403,437 406,437 407,437Z" />
        <path class="region SLB" d="M399,438 398,438 396,438 395,438 395,437 397,437 399,438Z" />
      </g>
      <g id="gSOL">
        <path class="region SOL" d="M33,275 32,276 31,277 30,274 29,261 29,259 30,254 31,252 31,254 30,256 30,258 31,260 31,261 32,264 33,265 33,266 34,267 34,268 33,275Z" />
      </g>
      <g id="gSOM">
        <path class="region SOM" d="M35,270 36,271 37,271 37,272 37,273 36,275 36,277 35,277 34,280 32,285 30,288 29,289 28,290 27,290 26,289 26,289 25,290 25,292 25,287 25,275 26,274 26,273 26,275 27,275 28,279 31,277 32,276 33,275 34,268 35,269 35,270Z" />
      </g>
      <g id="gSRB">
        <path class="region SRB" d="M106,106 105,108 104,109 103,110 103,111 102,111 102,111 101,112 101,112 100,113 98,114 98,114 97,115 96,115 96,115 96,114 97,114 97,113 97,113 98,113 98,113 100,110 100,110 99,110 99,110 100,110 101,108 102,106 102,107 104,106 105,105 106,104 107,104 107,104 108,103 110,102 110,103 109,104 107,105 106,106Z" />
      </g>
      <g id="gSVK">
        <path class="region SVK" d="M121,96 120,96 121,97 119,98 119,99 118,100 118,101 116,103 116,103 115,103 114,103 116,101 116,100 116,100 116,100 116,99 116,99 116,98 116,98 116,97 117,96 118,95 119,94 120,94 120,95 120,95 120,95 120,95 121,95 121,95 121,95 121,96Z" />
      </g>
      <g id="gSVN">
        <path class="region SVN" d="M117,91 116,93 116,94 115,95 115,95 115,96 114,96 114,95 113,96 113,95 112,96 113,95 114,94 113,94 114,93 114,93 116,92 117,91Z" />
      </g>
      <g id="gSWE">
        <path class="region SWE" d="M175,83 173,83 171,83 169,82 167,80 162,80 159,82 156,83 153,83 153,82 148,83 145,83 146,81 144,81 145,79 149,78 153,76 159,74 160,74 162,75 166,75 168,74 173,73 175,73 175,74 176,75 177,74 181,75 187,76 186,77 188,77 187,79 189,79 189,80 183,83 177,84 176,85 175,83Z" />
      </g>
      <g id="gSYR">
        <path class="region SYR" d="M66,173 63,171 64,167 65,167 66,166 67,165 68,165 69,164 69,163 71,160 72,160 73,160 74,159 74,160 75,162 74,163 74,165 75,167 75,168 76,170 74,171 74,170 72,172 69,175 66,173Z" />
      </g>
      <g id="gTCD">
        <path class="region TCD" d="M53,159 46,175 41,187Z" />
      </g>
      <g id="gTHA">
        <path class="region THA" d="M172,378 168,375 165,374 166,371 163,370 162,374 158,382 158,385 160,386 161,389 162,393 164,396 166,397 168,399 167,400 164,400 164,398 161,395 160,396 159,394 158,392 155,387 154,389 153,386 154,384 155,381 157,378 160,375 159,371 159,369 159,367 157,363 156,361 158,361 160,358 158,355 157,351 155,347 157,347 159,343 162,344 164,343 167,343 168,344 168,347 170,348 169,352 168,355 173,354 174,355 176,356 177,355 180,356 182,360 182,364 185,368 184,371 183,373 179,371 174,370 171,373 172,378Z" />
      </g>
      <g id="gTJK">
        <path class="region TJK" d="M115,220 114,220 112,217 111,219 113,221 115,224 119,227 117,231 118,231 119,233 118,235 117,237 115,235 114,234 111,234 110,234 109,234 109,232 111,229 111,228 111,227 111,225 109,226 108,227 108,227 107,226 105,227 105,226 103,226 103,225 106,222 107,219 106,217 108,216 109,218 111,216 114,215 116,216 115,218 115,219 115,220Z" />
      </g>
      <g id="gTKM">
        <path class="region TKM" d="M89,216 90,213 89,212 90,206 89,204 89,200 89,199 88,198 87,197 85,197 84,196 85,193 88,190 88,187 90,186 90,184 92,182 92,185 94,186 95,182 96,180 95,179 93,181 94,179 96,179 97,180 97,183 96,186 96,187 98,189 99,188 101,188 103,188 103,192 101,195 101,196 103,198 103,200 101,204 101,208 101,211 101,215 102,219 101,221 100,221 100,219 99,220 97,219 95,221 94,221 92,220 91,221 89,220 89,216Z" />
      </g>
      <g id="gTLS">
        <path class="region TLS" d="M264,464 264,463 268,462 271,462 272,462 274,462 272,463 268,464 264,465 264,464 264,464Z" />
      </g>
      <g id="gTUN">
        <path class="region TUN" d="M84,113 90,106 94,102 95,101 95,101 97,100 99,98 100,97 99,99 98,100 97,101 96,102 96,103 95,102 94,103 93,105 91,106 91,106 90,107 89,108 87,110 86,111 85,112 85,112 85,112 85,111 84,113 84,113Z" />
      </g>
      <g id="gTUR">
        <path class="region TUR" d="M87,147 86,151 86,153 86,156 88,157 88,159 87,162 86,163 85,165 84,167 84,169 83,168 80,172 79,172 77,176 76,175 77,174 77,171 76,170 75,168 75,167 74,165 74,163 75,162 74,160 74,159 73,160 72,160 73,158 74,158 74,157 75,154 73,154 73,151 75,148 75,145 75,146 75,144 76,141 77,138 80,135 82,132 84,131 85,129 87,129 87,132 88,131 87,136 89,137 89,139 89,142 87,147Z" />
        <path class="region TUR" d="M88,128 87,128 89,126 89,126 89,126 91,125 92,124 92,125 91,127 90,128 89,131 88,131 89,129 88,128Z" />
      </g>
      <g id="gTWN">
        <path class="region TWN" d="M252,342 249,349 247,352 245,349 245,345 248,342 251,339 253,340 252,342Z" />
      </g>

      <g id="gUGA">
        <circle class="region UGA" cx="26" cy="250" id="pointF1S165P1" r="0" />
      </g>
      <g id="gUKR">
        <path class="region UKR" d="M122,114 122,115 122,115 122,116 122,117 120,119 119,119 118,120 118,122 117,123 116,123 115,126 115,127 114,130 114,131 113,134 112,135 110,135 108,137 107,137 107,136 106,135 104,136 104,135 103,134 103,133 102,132 100,133 99,135 99,137 98,137 98,135 96,134 97,132 98,132 99,129 100,129 101,130 102,129 103,125 104,125 104,123 102,123 100,123 101,122 101,122 102,120 102,121 103,120 104,120 104,120 104,120 104,120 104,122 104,122 104,121 105,121 105,120 107,119 108,118 109,117 110,116 110,115 111,113 111,112 111,112 111,111 111,111 111,110 111,110 112,108 112,107 113,106 112,105 113,105 115,103 116,103 116,103 116,104 118,102 120,103 120,103 121,103 124,101 124,102 124,102 124,103 123,105 122,108 121,109 121,110 121,110 120,111 120,113 119,114 121,113 122,113 122,114Z" />
      </g>
      <g id="gUSA">
        <circle class="region USA" cx="350" cy="373" id="pointF2S19P1" r="0" />
        <circle class="region USA" cx="347" cy="380" id="pointF2S20P1" r="0" />
      </g>
      <g id="gUZB">
        <path class="region UZB" d="M101,221 102,219 101,215 101,211 101,208 101,204 103,200 103,198 101,196 101,195 103,192 103,188 101,188 99,188 98,189 96,187 107,176 111,179 111,185 111,187 110,192 112,194 114,197 114,201 111,204 112,205 110,208 112,211 112,213 112,214 115,212 119,212 120,212 120,213 117,214 118,217 120,217 121,221 117,221 115,220 115,219 115,218 116,216 114,215 111,216 109,218 108,216 106,217 107,219 106,222 103,225 102,222 101,221Z" />
      </g>
      <g id="gVNM">
        <path class="region VNM" d="M197,346 191,349 188,352 187,354 192,365 195,369 197,372 199,380 198,386 194,388 189,390 186,392 180,394 179,391 181,389 178,386 181,386 186,386 184,384 191,382 192,378 191,375 192,371 191,368 189,365 187,361 184,355 180,352 181,350 184,350 183,346 178,345 177,341 176,337 178,336 181,337 184,338 188,337 189,339 193,340 192,342 193,344 197,346Z" />
      </g>
      <g id="gVUT">
        <path class="region VUT" d="M430,447 429,448 428,447 428,446 430,447Z" />
        <path class="region VUT" d="M428,444 428,446 428,446 427,447 427,446 427,444 428,444Z" />
        <circle class="region VUT" cx="428" cy="446" id="pointF2S26P1" r="0" />
      </g>
      <g id="gPSE">
        <path class="region PSE" d="M64,168 62,169 62,170 61,169 62,168 62,169 62,168 64,166 64,168Z" />
      </g>
      <g id="gYEM">
        <path class="region YEM" d="M44,262 43,261 42,262 42,263 40,262 38,259 37,259 36,258 36,257 35,257 34,256 34,253 34,253 33,253 33,253 33,253 32,252 32,251 32,249 32,247 33,245 33,243 34,240 34,238 34,239 35,237 35,237 36,235 36,235 37,234 37,233 37,235 38,235 38,238 38,239 39,242 39,243 39,244 39,245 41,244 42,245 46,251 44,262Z" />
      </g>
      <g id="gWSM">
        <circle class="region WSM" cx="485" cy="398" id="pointF2S3P1" r="1" />
      </g>
      <g id="gTON">
        <circle class="region TON" cx="471" cy="425" id="pointF2S4P1" r="1" />
      </g>
      <g id="gMLT">
        <circle class="region MLT" cx="88" cy="111" id="pointF2S12P1" r="1" />
      </g>
      <g id="gBHR">
        <circle class="region BHR" cx="56" cy="224" id="pointF2S13P1" r="1" />
      </g>
      <g id="gMDV">
        <circle class="region MDV" cx="73" cy="355" id="pointF2S14P1" r="1" />
      </g>
      <g id="gSGP">
        <circle class="region SGP" cx="174" cy="418" id="pointF2S16P1" r="1" />
      </g>
      <g id="gPLW">
        <circle class="region PLW" cx="305" cy="409" id="pointF2S18P1" r="1" />
      </g>
      <g id="gFSM">
        <circle class="region FSM" cx="401" cy="390" id="pointF2S21P1" r="1" />
      </g>
      <g id="gMHL">
        <circle class="region MHL" cx="438" cy="371" id="pointF2S22P1" r="1" />
      </g>
      <g id="gKIR">
        <circle class="region KIR" cx="453" cy="383" id="pointF2S23P1" r="1" />
      </g>
      <g id="gNRU">
        <circle class="region NRU" cx="433" cy="401" id="pointF2S24P1" r="1" />
      </g>
      <g id="gTUV">
        <circle class="region TUV" cx="468" cy="402" id="pointF2S25P1" r="1" />
      </g>
      <g id="gMUS">
        <circle class="region MUS" cx="54" cy="393" id="pointF2S27P1" r="1" />
      </g>
    </g>
    <g id="gLatLongLines" style="stroke: rgb(200, 200, 200);fill: none;">
      <path class="grid" d="M446,455 451,451 455,447 459,443 463,439 M86,439 89,442 93,446 97,450 100,453 104,456 108,459 113,463 117,466 122,470 127,472 132,475 137,478 141,480 148,483 152,485 158,488 164,490 169,492 176,495 182,496 188,498 193,500 200,501 206,503 214,504 220,505 226,506 234,507 241,508 247,509 253,509 260,510 267,510 273,510 281,510 287,510 294,509 300,509 307,508 313,508 320,507 327,506 333,505 340,503 347,502 352,501 358,499 364,497 370,495 375,494 382,492 388,489 393,487 399,484 404,482 409,480 414,477 419,474 424,471 428,468 434,465 438,462 443,458 446,455" id="lat-30" />
      <path class="grid" d="M473,373 476,371 479,367 485,362 490,357 495,351 499,346 502,342 504,339 506,336 508,333 511,327 513,323 514,320 517,314 518,310 519,307 521,301 522,298 523,294 524,288 524,284 524,281 525,275 M25,275 25,281 25,287 26,290 26,293 27,296 28,300 29,303 30,307 32,313 34,318 37,324 38,327 40,331 43,336 47,342 52,348 56,354 62,359 66,364 71,369 77,374 83,379 90,384 97,388 104,393 110,397 117,400 126,405 134,408 142,412 149,415 158,418 167,421 176,423 185,426 194,428 203,429 213,431 222,433 232,434 242,435 251,436 263,436 271,436 281,436 290,436 299,436 308,435 317,434 329,432 339,431 347,429 356,428 365,425 374,423 384,420 393,417 401,414 409,411 417,408 424,404 432,400 438,397 446,392 453,388 460,383 467,378 473,373" id="lat0" style="stroke:blue;stroke-width:3"/>
      <path class="grid" d="M446,265 451,260 455,256 459,252 464,247 468,243 471,238 474,234 477,229 480,224 482,220 484,215 485,212 486,209 488,204 489,199 490,193 491,189 491,184 491,179 491,173 490,169 490,163 489,158 487,153 486,148 484,143 481,138 479,133 476,129 473,124 470,119 467,115 463,111 M86,111 82,116 78,121 74,126 71,132 68,137 66,142 64,145 63,148 62,154 60,159 59,166 58,171 58,175 58,177 58,183 59,189 59,195 61,201 62,206 64,212 66,217 68,221 69,224 72,229 76,235 79,240 83,245 87,250 92,255 97,260 103,265 108,269 114,273 120,278 127,282 134,286 141,289 148,293 155,296 163,299 171,302 178,305 187,307 195,310 203,311 212,313 220,315 230,316 238,317 247,318 256,319 265,319 273,319 282,319 291,319 301,318 310,317 319,316 328,315 338,313 346,312 353,310 362,307 371,305 378,302 387,299 393,296 401,293 408,290 416,285 422,282 429,278 435,273 441,269 446,265" id="lat30" />
      <path class="grid" d="M374,159 377,156 381,151 385,147 388,143 391,139 393,135 395,130 396,128 397,126 398,121 399,117 399,115 399,113 400,108 399,106 399,103 399,101 398,99 397,94 397,92 396,90 395,88 394,85 392,81 389,77 387,75 386,72 384,70 382,68 378,65 375,61 370,58 366,55 361,51 356,48 351,45 345,43 339,40 333,38 326,36 320,34 313,33 306,31 300,30 293,29 285,29 279,29 271,29 264,29 257,29 249,30 243,31 236,33 230,34 223,36 217,38 211,40 205,42 200,45 194,48 188,51 183,54 179,57 174,61 170,65 167,69 163,73 160,77 158,81 155,85 153,89 153,92 152,94 151,98 150,101 150,105 150,108 150,111 150,114 150,118 151,121 152,124 153,128 154,131 156,134 157,138 159,141 161,144 164,147 166,150 169,153 172,156 175,158 178,161 182,164 186,166 189,168 193,171 197,173 201,175 205,177 209,178 214,180 219,182 223,183 228,185 233,186 238,187 243,188 248,188 253,189 258,190 263,190 268,190 274,190 280,190 284,190 289,190 294,189 299,189 305,188 310,187 315,186 319,185 324,184 329,182 334,181 338,179 343,177 347,175 351,173 355,171 359,169 363,166 367,164 371,161 374,159" id="lat60" />
      <path class="grid" d="M436,466 439,463 442,460 444,458 447,455 449,452 452,448 454,445 456,441 458,438 460,434 462,429 464,426 465,422 467,417 468,413 469,409 470,405 471,400 471,396 472,391 472,386 473,381 473,377 473,372 473,367 473,362 472,357 472,352 471,347 470,341 469,336 468,331 467,325 466,319 464,314 463,308 461,303 459,297 458,293 456,287 454,282 451,275 449,270 446,264 444,259 441,253 438,247 435,242 432,237 429,231 422,221 415,211 412,205 407,199 403,193 399,188 391,179 383,169 378,164 374,159" id="long-180" />
      <path class="grid" d="M520,324 521,317 522,311 522,304 522,297 522,290 522,286 522,282 521,274 520,268 518,260 516,253 514,246 511,238 508,232 505,225 502,218 498,211 494,204 489,198 485,192 479,185 474,178 468,172 462,166 456,160 450,155 443,149 437,144 429,139 422,134 414,129 406,124 399,120" id="long-150" />
      <path class="grid" d="M485,140 483,137 481,134 477,128 472,123 468,118 463,114 458,109 452,105 449,103 446,101 440,97 437,96 433,93 426,90 420,87 413,85 405,82 398,80 390,79" id="long-120" />
      <path class="grid" d="M386,51 382,49 378,48 374,46 370,46 365,45 361,45 356,45 351,45" id="long-90" />
      <path class="grid" d="M296,25 295,25 295,26 294,26 293,26 292,28 291,29" id="long-60" />
      <path class="grid" d="M210,33 212,33 214,32 216,32 218,32 220,33 222,33 224,34 227,35" id="long-30" />
      <path class="grid" d="M114,83 117,81 120,78 123,76 127,74 130,72 133,71 137,69 141,67 144,66 148,65 153,64 157,63 162,62 166,61 171,61 175,60" id="long0"/>
      <path class="grid" d="M30,224 31,219 32,213 34,209 35,204 37,199 40,194 41,190 44,184 47,179 50,175 53,170 56,166 59,162 62,158 66,154 70,149 74,145 78,141 83,137 87,134 92,130 97,127 101,124 106,121 111,117 116,115 121,112 126,109 132,106 138,104 145,101 150,99" id="long30" />
      <path class="grid" d="M64,409 62,406 60,402 58,399 56,395 55,392 53,388 51,384 50,380 49,376 48,372 47,368 46,364 45,360 45,356 44,351 44,347 44,342 44,337 44,333 44,328 44,324 44,320 45,316 45,311 46,306 47,301 49,293 50,288 52,284 55,275 58,266 60,262 62,257 64,252 66,248 69,243 71,239 73,235 76,230 80,224 83,220 88,212 92,207 95,203 102,195 109,186 116,178 120,174 125,170 133,162 141,155 150,148 159,141" id="long60" />
      <path class="grid" d="M163,498 160,497 157,495 155,493 152,491 150,489 148,487 145,484 143,481 141,479 139,476 137,473 135,469 133,465 132,461 130,457 129,453 128,449 127,445 126,441 125,437 124,432 124,428 123,423 123,417 122,412 122,407 122,403 122,397 123,391 123,386 123,380 124,374 125,367 125,362 126,356 127,350 130,337 133,325 135,314 137,307 139,300 143,288 146,282 148,275 151,267 154,261 159,248 164,237 170,223 176,211 180,204 184,198 190,187 194,181 198,174" id="long90" />
      <path class="grid" d="M253,524 253,523 252,523 251,522 251,522 250,521 249,519 248,516 247,512 246,508 245,501 244,495 244,487 243,479 242,470 242,460 242,450 242,440 242,428 242,416 243,392 243,378 244,365 245,339 247,308 249,279 252,248 255,218 258,190" id="long120" />
      <path class="grid" d="M339,516 341,515 343,514 345,513 347,512 349,511 351,509 352,507 354,505 355,503 357,501 358,498 359,495 361,492 362,489 363,485 364,482 365,478 366,474 366,471 367,466 368,457 369,452 369,447 370,436 370,426 370,415 370,403 369,390 368,378 366,365 365,351 362,337 360,324 358,311 355,297 352,282 348,268 344,253 340,239 336,225 332,211 327,197 322,185" id="long150" />
    </g>
    <g id="gGlobeDecoration">
      <circle class="mapshadow" cx="275" cy="275" id="cGlobeShade" r="250" style="fill: url('#grSea'); "/>
      <circle class="mapborder" cx="275" cy="275" id="cGlobeBorder" r="250" style="fill: none;  "/>
    </g>
  </g>
  <path style="fill: none; stroke: rgb(255, 0, 0); stroke-width: 9px; stroke-linecap: round;" d="M 279 96 C 325 120 458 191 473 375"/>
  <text style="fill: rgb(255, 0, 0); font-family: Arial, sans-serif; font-size: 40px; white-space: pre;" x="289" y="368">10000km</text>
</svg>