<?xml version="1.0" encoding="utf-8"?>
<svg viewBox="0 0 200 148" xmlns="http://www.w3.org/2000/svg" xmlns:xlink="http://www.w3.org/1999/xlink">
  <g style="stroke:#000; fill:none">
    <path d="M0 11h200M0 16h200M0 21h200M0 26h200M0 31h200M58 36h15" />
    <path
      d="M1 45v40M12 45v40M24 45v40M36 45v40M48 45v40M60 45v40M72 45v40M84 45v40M96 45v40M108 45v40M120 45v40M132 45v40M144 45v40M156 45v40M168 45v40M180 45v40M192 45v40M0 85h300" />
    <path stroke-width="7"
      d="M1 45v27M24 45v27M36 45v27M48 45v27M72 45v27M84 45v27M108 45v27M120 45v27M132 45v27M156 45v27M168 45v27M192 45v27" />
    <path d="M20 120 q8 50 16 0 t16 0 16 0 16 0 16 0 16 0" />
    <path d="M120 120 q4 50 8 0 t8 0 8 0 8 0 8 0 8 0 8 0 8 0 8 0" />
  </g>
  <ellipse cx="66" cy="80" rx="2" ry="2" style="stroke:none; fill:red" />
  <ellipse cx="150" cy="80" rx="2" ry="2" style="stroke:none; fill:red" />
  <ellipse cx="126" cy="75" rx="2" ry="2" style="stroke:none; fill:red" />
  <g width="15.186" height="40.768" transform="matrix(1, 0, 0, 1, 5, 0)">
    <path
      d="M12.0 3.5c0.3 3.1-2.0 5.7-4.1 7.7-0.90.9-0.20.1-0.60.6-0.1-0.5-0.3-1.7-0.3-2.10.1-2.7 2.3-6.6 4.2-8.0.30.60.60.60.8 1.8zm0.7 16.1c-1.2-0.9-2.9-1.1-4.3-0.9-0.2-1.3-0.4-2.5-0.6-3.8 2.4-2.3 4.9-5.0 5.0-8.50.1-2.2-0.3-4.7-1.7-6.5-1.70.1-2.9 2.2-3.8 3.4-1.5 2.7-1.1 5.9-0.6 8.8-0.81.0-1.9 1.7-2.7 2.7C1.7 17.3-0.4 20.40.1 23.8c0.2 3.3 2.6 6.4 5.9 7.2a8.8 8.8 0 0 0 3.80.1c0.2 2.2 1.0 4.60.1 6.8-0.7 1.6-2.8 3.0-4.3 2.2-0.6-0.3-0.1-0.1-0.5-0.3 1.1-0.3 2-1.0 2.3-1.60.8-1.5-0.4-3.6-2.2-3.4-2.30.0-3.2 3.1-1.7 4.7 1.3 1.5 3.8 1.3 5.40.3 1.8-1.2 2.0-3.5 1.8-5.6-0.1-0.7-0.4-2.7-0.4-3.40.7-0.20.2-0.1 1.2-0.5 2.7-1.1 4.4-4.3 3.6-7.1-0.3-1.5-1.0-2.9-2.3-3.8zm0.6 5.8c0.2 2.0-1.1 4.3-3.1 5.0-0.1-0.8-0.2-1.0-0.3-1.5-0.5-2.5-0.7-5.0-1.1-7.5 1.6-0.2 3.50.5 4.0 2.20.20.60.3 1.20.4 1.8zm-5.1 5.2c-2.50.1-5-1.6-5.6-4.1-0.7-2.2-0.5-4.60.8-6.5 1.1-1.7 2.6-3.1 4.0-4.5l0.5 3.4c-3.0.8-5.0 4.7-3.2 7.50.50.8 2.0 2.2 2.8 1.6-1.1-0.7-2.0-1.9-1.8-3.2-0.1-1.3 1.4-2.9 2.7-3.20.4 2.90.9 6.1 1.4 8.9-0.50.1-1.0.1-1.50.1z" />
  </g>

  <!-- <g style="fill: none; stroke-width: 0.1; stroke: #000;"> -->
  <g style="fill: none; stroke-width: 0.1; stroke: none;">
    <!-- 4분 음표 -->
    <path
      d="M 28.0 12.0 L 29.0 12.0 C 29.0 20.3 28.9 28.7 29.1 37.0 C 27.0 39.6 23.7 41.8 20.2 40.8 C 18.1 40.1 18.4 37.1 19.9 35.9 C 22.0 33.6 25.2 33 28.0 33.9 C 28.0 26.6 28.0 19.3 28.0 12.0 Z M 28.0 12.0 " />
    <path d="M 32.2 39.2 C 33.8 38.6 34.3 39.2 33.8 40.8 C 32.2 41.3 31.7 40.8 32.2 39.2 Z M 32.2 39.2 " />
    <!-- 2분 음표 -->
    <path
      d="M 53.0 12.0 L 54.0 12.0 C 54.0 19.7 54.0 27.4 54.0 35.0 C 54.8 40.0 47.4 43.0 44.2 39.7 C 43.0 34.9 49.1 31.4 53.0 33.7 C 52.9 26.4 53.0 19.2 53.0 12.0 Z M 53.0 12.0 " />
    <path
      d="M 45.0 38.1 C 46.6 35.5 49.6 34.3 52.5 33.6 C 54.1 36.5 50.7 38.6 48.4 39.5 C 47.1 40.3 44.5 40.3 45.0 38.1 Z M 45.0 38.1 " />
    <path d="M 58.2 39.2 C 59.8 38.7 60.3 39.2 59.8 40.8 C 58.2 41.3 57.6 40.8 58.2 39.2 Z M 58.2 39.2 " />
    <!-- 16분 음표 -->
    <path
      d="M 79.0 11.6 C 80.7 14.9 82.6 18.1 85.2 20.9 C 87.9 23.8 87.4 28.6 85.1 31.7 C 85.3 29.1 86.8 26.3 85.5 23.7 C 84.4 21.4 82.1 20.2 80.1 19.0 C 80.0 25.0 80.0 31.0 80.1 37.0 C 78.3 39.1 75.9 41.0 73.1 41.0 C 71.4 41.1 69.1 40.0 69.8 38.0 C 70.9 34.2 75.5 32.7 79.0 33.9 C 79.0 26.5 79.0 19.0 79.0 11.6 Z M 79.0 11.6 " />
    <path d="M 87.2 36.2 C 88.8 35.6 89.3 36.2 88.8 37.8 C 87.2 38.4 86.7 37.8 87.2 36.2 Z M 87.2 36.2 " />
  </g>
  <!-- <g style="fill: #000; stroke: none;"> -->
  <g style="fill: none; stroke: none;">
    <!-- 4분 음표 -->
    <path
      d="M 28.0 12.0 L 29.0 12.0 C 29.0 20.3 28.9 28.7 29.1 37.0 C 27.0 39.6 23.7 41.8 20.2 40.8 C 18.1 40.1 18.4 37.1 19.9 35.9 C 22.0 33.6 25.2 33 28.0 33.9 C 28.0 26.6 28.0 19.3 28.0 12.0 Z M 28.0 12.0 " />
    <path d="M 32.2 39.2 C 33.8 38.6 34.3 39.2 33.8 40.8 C 32.2 41.3 31.7 40.8 32.2 39.2 Z M 32.2 39.2 " />
    <!-- 2분 음표 -->
    <path
      d="M 53.0 12.0 L 54.0 12.0 C 54.0 19.7 54.0 27.4 54.0 35.0 C 54.8 40.0 47.4 43.0 44.2 39.7 C 43.0 34.9 49.1 31.4 53.0 33.7 C 52.9 26.4 53.0 19.2 53.0 12.0 Z M 53.0 12.0 " />
    <path
      d="M 45.0 38.1 C 46.6 35.5 49.6 34.3 52.5 33.6 C 54.1 36.5 50.7 38.6 48.4 39.5 C 47.1 40.3 44.5 40.3 45.0 38.1 Z M 45.0 38.1 "
      fill="#fff" />
    <path d="M 58.2 39.2 C 59.8 38.7 60.3 39.2 59.8 40.8 C 58.2 41.3 57.6 40.8 58.2 39.2 Z M 58.2 39.2 " />
    <!-- 16분 음표 -->
    <path
      d="M 79.0 11.6 C 80.7 14.9 82.6 18.1 85.2 20.9 C 87.9 23.8 87.4 28.6 85.1 31.7 C 85.3 29.1 86.8 26.3 85.5 23.7 C 84.4 21.4 82.1 20.2 80.1 19.0 C 80.0 25.0 80.0 31.0 80.1 37.0 C 78.3 39.1 75.9 41.0 73.1 41.0 C 71.4 41.1 69.1 40.0 69.8 38.0 C 70.9 34.2 75.5 32.7 79.0 33.9 C 79.0 26.5 79.0 19.0 79.0 11.6 Z M 79.0 11.6 " />
    <path d="M 87.2 36.2 C 88.8 35.6 89.3 36.2 88.8 37.8 C 87.2 38.4 86.7 37.8 87.2 36.2 Z M 87.2 36.2 " />
  </g>
  <path transform="matrix(1, 0, 0, 1, -9, -1.5)"
    d="M 79.0 11.6 C 80.7 14.9 82.6 18.1 85.2 20.9 C 87.9 23.8 87.4 28.6 85.1 31.7 C 85.3 29.1 86.8 26.3 85.5 23.7 C 84.4 21.4 82.1 20.2 80.1 19.0 C 80.0 25.0 80.0 31.0 80.1 37.0 C 78.3 39.1 75.9 41.0 73.1 41.0 C 71.4 41.1 69.1 40.0 69.8 38.0 C 70.9 34.2 75.5 32.7 79.0 33.9 C 79.0 26.5 79.0 19.0 79.0 11.6 Z M 79.0 11.6 " />
  <path transform="matrix(-1, 0, 0, -1, 175, 56)"
    d="M 28.0 12.0 L 29.0 12.0 C 29.0 20.3 28.9 28.7 29.1 37.0 C 27.0 39.6 23.7 41.8 20.2 40.8 C 18.1 40.1 18.4 37.1 19.9 35.9 C 22.0 33.6 25.2 33 28.0 33.9 C 28.0 26.6 28.0 19.3 28.0 12.0 Z M 28.0 12.0 " />
  <g style="font-size:8; text-anchor:middle">
    <text x="68" y="93">261.6Hz</text>
    <text x="152" y="93">523.2Hz(2배)</text>
    <text x="128" y="43">440Hz</text>
  </g>
</svg>