<?xml version="1.0" encoding="utf-8"?>
<svg viewBox="0 0 320 200"
  xmlns="http://www.w3.org/2000/svg"
  xmlns:xlink="http://www.w3.org/1999/xlink">
  <radialGradient id="ball" cx="0.3" cy="0.3">
    <stop offset="0" stop-color="#fff" />
    <stop offset="1" stop-color="#000" />
  </radialGradient>
  <path d="M200 80v100l100 20q0-50 20-150z" fill="url(#ball)" />
  <ellipse cx="50" cy="100" rx="8" ry="8" fill="url(#ball)" style="opacity:0.1"/>
  <ellipse cx="100" cy="100" rx="8" ry="8" fill="url(#ball)" style="opacity:0.1"/>
  <ellipse cx="150" cy="100" rx="8" ry="8" fill="url(#ball)" style="opacity:0.2"/>
  <ellipse cx="200" cy="100" rx="8" ry="8" fill="url(#ball)" style="opacity:0.2"/>
  <ellipse cx="250" cy="100" rx="8" ry="8" fill="url(#ball)" style="opacity:0.3"/>
  <ellipse cx="270" cy="100" rx="8" ry="8" fill="url(#ball)" style="opacity:0.5"/>
  <ellipse cx="250" cy="120" rx="8" ry="8" fill="url(#ball)" style="opacity:0.6"/>
  <ellipse cx="240" cy="150" rx="8" ry="8" fill="url(#ball)" style="opacity:0.8"/>
  <ellipse cx="230" cy="190" rx="8" ry="8" fill="url(#ball)" style="opacity:1"/>
  <g style="fill:none; stroke:#000">
    <path d="M40 80h80a25 25 0 0 0 25-25a20 20 0 0 0-20-20a15 15 0 0 0 0 30a10 10 0 0 0 0-20 " />
    <path d="M100 70h80a25 25 0 0 0 25-25a20 20 0 0 0-20-20a15 15 0 0 0 0 30a10 10 0 0 0 0-20 " />
    <path d="M60 130h80a25 25 0 0 1 25 25a20 20 0 0 1-20 20a15 15 0 0 1 0-30a10 10 0 0 1 0 20 " />
  </g>
</svg>

