<?xml version="1.0" encoding="UTF-8" ?>
<svg xmlns="http://www.w3.org/2000/svg" version="1.1" viewBox="0 240 1860 1010" width="1860" height="1010" font-family="Arial" font-style="normal" font-variant="normal" font-size="36px" font-weight="bold" font-stretch="normal" writing-mode="lr-tb" text-anchor="middle">
  <style>
    text tspan{
      font-size:0.8em;
    }
  </style>
  <g id="Bacteria" style="fill:#5028fa">
    <text x="382" y="298" style="font-size:60px">Bacteria<tspan x="382" dy="1em">박테리아</tspan></text>
    <text x="690" y="450">Chloroflexi<tspan x="690" dy="1em">녹만균류</tspan></text>
    <text x="558" y="536">Gram-<tspan x="558" dy="1em">positives</tspan></text>
    <text x="410" y="450">Spirochetes<tspan x="410" dy="1em">스피로헤타</tspan></text>
    <text x="316" y="585">Proteobacteria<tspan x="316" dy="1em">프로테오박테리아</tspan></text>
    <text x="188" y="660">Cyanobacteria<tspan x="188" dy="1em">시아노박테리아</tspan></text>
    <text x="148" y="735">Planctomyces<tspan x="148" dy="1em">플란토미세스</tspan></text>
    <text x="132" y="835">Bacteroides<tspan x="132" dy="1em">Cytophaga</tspan></text>
    <text x="134" y="958">Thermotoga<tspan x="132" dy="1em">써모토가</tspan></text>
    <text x="102" y="1035">Aquifex<tspan x="102" dy="1em">아퀴펙스</tspan></text>
  </g>
  <g id="Archaea" style="fill:#f03232">
    <text x="952" y="298" style="font-size:60px">Archaea<tspan x="952" dy="1em">고세균</tspan></text>
    <text x="1198" y="560">Haloarchaea<tspan x="1198" dy="1em">호염성 고새균</tspan></text>
    <text x="966" y="510">Methanosarcina<tspan x="966" dy="1em">메타노사르시나</tspan></text>
    <text x="860" y="570">Methanobacterium<tspan x="860" dy="1em">메타노박테리움</tspan></text>
    <text x="850" y="630">Methanococcus<tspan x="850" dy="1em">메타노커스</tspan></text>
    <text x="820" y="685">Thermococcus<tspan x="820" dy="1em">celer</tspan></text>
    <text x="795" y="743">Thermoproteus<tspan x="795" dy="1em">써모프로테우스</tspan></text>
    <text x="760" y="810">Pyrodictium<tspan x="760" dy="1em">피로딕티움</tspan></text>
  </g>
  <g id="Eukaryota" style="fill:#96503c">
    <text x="1460" y="298" style="font-size:60px">Eukarya<tspan x="1460" dy="1em">진핵생물</tspan></text>
    <text x="1190" y="471">Entamoeba<tspan x="1190" dy="1em">아메바</tspan></text>
    <text x="1400" y="457">Slime molds<tspan x="1400" dy="1em">점액성 곰팡이</tspan></text>
    <g style="text-anchor:start">
      <text x="1520" y="470">Animals<tspan x="1520" dy="1em">동물</tspan></text>
      <text x="1580" y="522">Fungi<tspan x="1585" dy="1em">균류</tspan></text>
      <text x="1575" y="598">Plants<tspan x="1585" dy="1em">식물</tspan></text>
      <text x="1570" y="675">Ciliates<tspan x="1580" dy="1em">섬모충류</tspan></text>
      <text x="1575" y="753">Flagellates<tspan x="1575" dy="1em">편모류</tspan></text>
      <text x="1565" y="840">Trichomonads<tspan x="1570" dy="1em">트리코모나스</tspan></text>
      <text x="1555" y="930">Microsporidia<tspan x="1555" dy="1em">미포자충</tspan></text>
      <text x="1545" y="1020">Diplomonads<tspan x="1545" dy="1em">디플로모나드</tspan></text>
    </g>
  </g>
  <g style="fill:none;stroke-width:5;">
    <path d="M427 490 541 827m15-241 24 302M304 683 566 867M278 751 574 878M244 847 599 917M176 1037 659 979m-408-18 370-11 58-459M796 1080 621 950 410 626" stroke="#5028fa"/>
    <path d="M930 986 1370 674 1559 519M1531 1012 1266 747M1539 926 1291 730m268 103-250-116M1560 746 1370 674M1556 657 1456 601m103 1-84-16 44-92M1414 637 1403 502m-3 146-133-163" stroke="#96503c"/>
    <path d="M797 1080 929 986 929 877 1163 603M929 877 869 805M910 853 906 765M975 823 923 710m79 79-46-138M1031 757 998 594m49 143 2-185" stroke="#f03232"/>
    <path d="m796 1080 0 145" stroke="#000000"/>
  </g>
</svg>
