<?xml version="1.0" encoding="utf-8"?>
<svg viewBox="0 0 390 180" xmlns="http://www.w3.org/2000/svg" xmlns:xlink="http://www.w3.org/1999/xlink">
  <defs>
    <radialGradient id="ball" cx="0.4" cy="0.4" fx="0.4" fy="0.4" r="0.53">
      <stop offset="0" stop-color="#f880" />
      <stop offset="0.9" stop-color="#f880" />
      <stop offset="1" stop-color="#f884" />
    </radialGradient>
    <radialGradient id="particle" cx="0.3" cy="0.3" fx="0.3" fy="0.3">
      <stop offset="0" stop-color="#fff" />
      <stop offset="1" stop-color="#555" />
    </radialGradient>
    <marker id="arrow" markerUnits="userSpaceOnUse" markerWidth="10" markerHeight="10" viewBox="0 0 20 10"
      orient="auto">
      <path d="M9 0L0 4 0 -4 9 0z" fill="#666" />
    </marker>
    <symbol id="moving" viewBox="-3 -3 6 14">
      <ellipse rx="3" ry="3" cx="0" cy="0" fill="url(#particle)" />
      <path d="M0 0v6" marker-end="url(#arrow)" stroke="#666" />
    </symbol>
  </defs>  
  <ellipse rx="40" ry="40" cx="100" cy="100" alignment-baseline="after-edge" fill="url(#ball)" stroke="#fee" />
  <use width="6" height="14" transform="translate(100, 100) rotate(-150) translate(-3, 23)" xlink:href="#moving"/>
  <use width="6" height="14" transform="translate(100, 100) rotate(-120) translate(-3, 23)" xlink:href="#moving"/>
  <use width="6" height="14" transform="translate(100, 100) rotate(-90) translate(-3, 23)" xlink:href="#moving"/>
  <use width="6" height="14" transform="translate(100, 100) rotate(-60) translate(-3, 23)" xlink:href="#moving"/>
  <use width="6" height="14" transform="translate(100, 100) rotate(-30) translate(-3, 23)" xlink:href="#moving"/>
  <use width="6" height="14" transform="translate(100, 100) rotate(0) translate(-3, 23)" xlink:href="#moving"/>
  <use width="6" height="14" transform="translate(100, 100) rotate(30) translate(-3, 23)" xlink:href="#moving"/>
  <use width="6" height="14" transform="translate(100, 100) rotate(60) translate(-3, 23)" xlink:href="#moving"/>
  <use width="6" height="14" transform="translate(100, 100) rotate(90) translate(-3, 23)" xlink:href="#moving"/>
  <use width="6" height="14" transform="translate(100, 100) rotate(120) translate(-3, 23)" xlink:href="#moving"/>
  <use width="6" height="14" transform="translate(100, 100) rotate(150) translate(-3, 23)" xlink:href="#moving"/>
  <use width="6" height="14" transform="translate(100, 100) rotate(180) translate(-3, 23)" xlink:href="#moving"/>
  <use width="6" height="14" transform="translate(100, 100) rotate(-150) translate(-3, -55)" xlink:href="#moving"/>
  <use width="6" height="14" transform="translate(100, 100) rotate(-120) translate(-3, -55)" xlink:href="#moving"/>
  <use width="6" height="14" transform="translate(100, 100) rotate(-90) translate(-3, -55)" xlink:href="#moving"/>
  <use width="6" height="14" transform="translate(100, 100) rotate(-60) translate(-3, -55)" xlink:href="#moving"/>
  <use width="6" height="14" transform="translate(100, 100) rotate(-30) translate(-3, -55)" xlink:href="#moving"/>
  <use width="6" height="14" transform="translate(100, 100) rotate(0) translate(-3, -55)" xlink:href="#moving"/>
  <use width="6" height="14" transform="translate(100, 100) rotate(30) translate(-3, -55)" xlink:href="#moving"/>
  <use width="6" height="14" transform="translate(100, 100) rotate(60) translate(-3, -55)" xlink:href="#moving"/>
  <use width="6" height="14" transform="translate(100, 100) rotate(90) translate(-3, -55)" xlink:href="#moving"/>
  <use width="6" height="14" transform="translate(100, 100) rotate(120) translate(-3, -55)" xlink:href="#moving"/>
  <use width="6" height="14" transform="translate(100, 100) rotate(150) translate(-3, -55)" xlink:href="#moving"/>
  <use width="6" height="14" transform="translate(100, 100) rotate(180) translate(-3, -55)" xlink:href="#moving"/>
  <path d="M27 12a5 5 0 0 1 0 10h-5a10 10 0 0 0 -10 10V170a10 10 0 0 0 10 10h150a10 10 0 0 0 10-10V32a10 10 0 0 0-10-10h-120a5 5 0 0 1 0-10" fill="none" stroke="#ddd" />
  <path d="M33 17h13" style="stroke:black; stroke-width:3" />

  <ellipse rx="3" ry="3" cx="260" cy="15" fill="url(#particle)" />
  <ellipse rx="3" ry="3" cx="270" cy="15" fill="url(#particle)" />
  <ellipse rx="3" ry="3" cx="280" cy="15" fill="url(#particle)" />
  <ellipse rx="3" ry="3" cx="290" cy="15" fill="url(#particle)" />
  <ellipse rx="60" ry="60" cx="300" cy="100" alignment-baseline="after-edge" fill="url(#ball)" stroke="#fee" />
  <use width="6" height="14" transform="translate(300, 100) rotate(-150) translate(-3, 43)" xlink:href="#moving"/>
  <use width="6" height="14" transform="translate(300, 100) rotate(-120) translate(-3, 43)" xlink:href="#moving"/>
  <use width="6" height="14" transform="translate(300, 100) rotate(-90) translate(-3, 43)" xlink:href="#moving"/>
  <use width="6" height="14" transform="translate(300, 100) rotate(-30) translate(-3, 43)" xlink:href="#moving"/>
  <use width="6" height="14" transform="translate(300, 100) rotate(-60) translate(-3, 43)" xlink:href="#moving"/>
  <use width="6" height="14" transform="translate(300, 100) rotate(0) translate(-3, 43)" xlink:href="#moving"/>
  <use width="6" height="14" transform="translate(300, 100) rotate(30) translate(-3, 43)" xlink:href="#moving"/>
  <use width="6" height="14" transform="translate(300, 100) rotate(60) translate(-3, 43)" xlink:href="#moving"/>
  <use width="6" height="14" transform="translate(300, 100) rotate(90) translate(-3, 43)" xlink:href="#moving"/>
  <use width="6" height="14" transform="translate(300, 100) rotate(120) translate(-3, 43)" xlink:href="#moving"/>
  <use width="6" height="14" transform="translate(300, 100) rotate(150) translate(-3, 43)" xlink:href="#moving"/>
  <use width="6" height="14" transform="translate(300, 100) rotate(180) translate(-3, 43)" xlink:href="#moving"/>
  <use width="6" height="14" transform="translate(300, 100) rotate(-135) translate(-3, -76)" xlink:href="#moving"/>
  <use width="6" height="14" transform="translate(300, 100) rotate(-90) translate(-3, -76)" xlink:href="#moving"/>
  <use width="6" height="14" transform="translate(300, 100) rotate(-45) translate(-3, -76)" xlink:href="#moving"/>
  <use width="6" height="14" transform="translate(300, 100) rotate(0) translate(-3, -76)" xlink:href="#moving"/>
  <use width="6" height="14" transform="translate(300, 100) rotate(45) translate(-3, -76)" xlink:href="#moving"/>
  <use width="6" height="14" transform="translate(300, 100) rotate(90) translate(-3, -76)" xlink:href="#moving"/>
  <use width="6" height="14" transform="translate(300, 100) rotate(135) translate(-3, -76)" xlink:href="#moving"/>
  <use width="6" height="14" transform="translate(300, 100) rotate(180) translate(-3, -76)" xlink:href="#moving"/>
  <path d="M227 12a5 5 0 0 1 0 10h-5a10 10 0 0 0 -10 10V170a10 10 0 0 0 10 10h150a10 10 0 0 0 10-10V32a10 10 0 0 0-10-10h-120a5 5 0 0 1 0-10" fill="none" stroke="#ddd" />
  <path d="M233 17h13" style="stroke:black; stroke-width:3" />
</svg>