<?xml version="1.0" encoding="utf-8"?>
<svg viewBox="0 0 320 250" xmlns="http://www.w3.org/2000/svg" xmlns:xlink="http://www.w3.org/1999/xlink">
  <marker id="marker01" markerWidth="7" markerHeight="6" viewBox="-6 -3 6 6" orient="auto">
    <path d="M-5 -2L0 0 -5 2" stroke="#000" fill="none" />
  </marker>
  <g style="stroke:none">
    <path d="M25 50a50 50 0 0 1 100 0a50 50 0 0 0-50 0a50 50 0 0 0-50 0" style="fill:#E00" />
    <path d="M25 50a50 50 0 0 0 50 86.6a50 50 0 0 1-25-43.3a50 50 0 0 1-25-43.3" style="fill:#0E0" />
    <path d="M125 50a50 50 0 0 1-50 86.6a50 50 0 0 0 25-43.3a50 50 0 0 0 25-43.3" style="fill:#00E" />
    <path d="M25 50a50 50 0 0 1 50 0a50 50 0 0 0-25 43.3a50 50 0 0 1-25-43.3" style="fill:#FF0" />
    <path d="M75 50a50 50 0 0 1 50 0a50 50 0 0 1-25 43.3a50 50 0 0 0-25-43.3" style="fill:#0FF" />
    <path d="M50 93.3a50 50 0 0 0 50 0a50 50 0 0 1-25 43.3a50 50 0 0 1-25-43.3" style="fill:#F0F" />
    <path d="M50 93.3a50 50 0 0 0 50 0a50 50 0 0 0-25-43.3a50 50 0 0 0-25 43.3" style="fill:#FFF" />
    <g style="fill:#FFF; text-anchor:midde">
      <text x="58" y="30">빨강</text>
      <text x="10" y="115">초록</text>
      <text x="105" y="115">파랑</text>
    </g>
  </g>
  <g style="stroke:none" transform="matrix(1, 0, 0, 1, 170, 0)">
    <path d="M25 50a50 50 0 0 1 100 0a50 50 0 0 0-50 0a50 50 0 0 0-50 0" style="fill:#FF0" />
    <path d="M25 50a50 50 0 0 0 50 86.6a50 50 0 0 1-25-43.3a50 50 0 0 1-25-43.3" style="fill:#0FF" />
    <path d="M125 50a50 50 0 0 1-50 86.6a50 50 0 0 0 25-43.3a50 50 0 0 0 25-43.3" style="fill:#F0F" />
    <path d="M25 50a50 50 0 0 1 50 0a50 50 0 0 0-25 43.3a50 50 0 0 1-25-43.3" style="fill:#0C0" />
    <path d="M75 50a50 50 0 0 1 50 0a50 50 0 0 1-25 43.3a50 50 0 0 0-25-43.3" style="fill:#00C" />
    <path d="M50 93.3a50 50 0 0 0 50 0a50 50 0 0 1-25 43.3a50 50 0 0 1-25-43.3" style="fill:#C00" />
    <path d="M50 93.3a50 50 0 0 0 50 0a50 50 0 0 0-25-43.3a50 50 0 0 0-25 43.3" style="fill:#000" />
    <g style="fill:#FFF; text-anchor:midde">
      <text x="58" y="30" style="fill:#000;">노랑</text>
      <text x="10" y="115">시안</text>
      <text x="97" y="115">마젠다</text>
    </g>
  </g>
  <g style="fill:none; stroke:#000" transform="matrix(1, 0, 0, 1, 0, 140)">
    <g style="fill:#888; stroke:none; font-size:10">
      <text x="20" y="20">발광율</text>
      <text x="115" y="102">주파수</text>
    </g>
    <path d="M5 90H150" marker-end="url(#marker01)" />
    <path d="M15 100V5" marker-end="url(#marker01)" />
    <path d="M40 90 c15 0 15 -40 30-40 15 0 15 40 30 40" />
    <path d="M60 90 c15 0 15 -40 30-40 15 0 15 40 30 40" />
    <path d="M40 90 c20 0 20 -60 40-65 20 0 20 60 40 65" style="stroke-width:2" />
    <g style="stroke:#F00">
      <path d="M70 40v30" />
      <path d="M90 40v30" />
      <path d="M80 15v30" />
    </g>
  </g>
  <g style="fill:none; stroke:#000" transform="matrix(1, 0, 0, 1, 170, 140)">
    <g style="fill:#888; stroke:none; font-size:10">
      <text x="20" y="20">흡수율</text>
      <text x="115" y="102">주파수</text>
    </g>
    <path d="M5 90H150" marker-end="url(#marker01)" />
    <path d="M15 100V5" marker-end="url(#marker01)" />
    <path d="M15 30H40c15 0 15 40 30 40 15 0 15-40 30-40H150" />
    <path d="M15 30H60c15 0 15 40 30 40 15 0 15-40 30-40H150" />
    <path d="M15 25H40c20 0 20 30 40 30 20 0 20-30 40-30H150" style="stroke-width:2" />
    <g style="stroke:#F00">
      <path d="M70 50v30" />
      <path d="M90 50v30" />
      <path d="M80 40v30" />
    </g>
  </g>
</svg>