<?xml version="1.0" encoding="utf-8"?>
<svg width="400" height="400" xmlns="http://www.w3.org/2000/svg">
  <defs>
    <marker orient="auto" refY="0" refX="0" id="a" overflow="visible">
      <path d="M-0 0l-1-1L2 0l-4 1z" />
    </marker>
  </defs>
  <path
    d="M 107 356 C 124 355 179 306 206 283 C 220 272 217 258 220 257 C 236 259 260 276 256 241 C 272 265 279 258 284 266 C 303 267 308 280 311 289 C 316 309 270 322 270 322 C 279 330 287 321 290 339 C 294 359 278 360 266 370 C 293 367 332 400 371 387 C 368 396 372 395 355 396 C 327 398 320 394 293 382 C 275 375 266 377 254 375 C 238 375 237 380 222 371 C 205 359 213 353 219 343 C 200 342 174 343 178 318 C 170 331 150 337 131 354 C 112 368 78 376 87 337 C 105 319 137 286 163 254 C 184 235 200 230 200 230 C 200 230 88 185 80 171 C 74 161 78 149 85 145 C 116 138 111 155 171 158 C 278 182 250 169 294 172 C 290 158 281 139 284 119 C 267 82 300 33 317 35 C 327 35 344 100 352 124 C 388 170 393 168 430 257 C 430 257 432 267 430 280 C 419 258 400 186 346 133 C 337 125 328 52 314 48 C 273 70 289 100 292 128 C 294 156 311 170 300 182 C 259 191 246 181 208 176 C 173 164 136 164 128 160 C 115 154 86 144 86 159 C 85 175 130 191 154 200 C 177 208 215 215 219 227 C 220 231 193 242 172 258 C 149 285 115 326 100 335 C 90 349 91 357 107 356 Z M 283 349 C 286 342 285 333 274 330 C 264 328 229 342 224 348 C 213 361 223 368 238 369 C 258 366 280 356 283 349 Z M 267 315 C 322 301 305 277 281 276 C 241 285 255 291 220 292 C 200 300 178 311 187 323 C 191 334 209 334 219 333 C 247 328 226 329 267 315 Z"
    style="fill-opacity: 0.61;" />
  <g fill="none" stroke="#000" stroke-width="9" stroke-linecap="round" marker-end="url(#a)"
    transform="matrix(1, 0, 0, 1, 198, -80)">
    <path d="M85 338a68 28 23 1 0 -41-17" style="visibility: hidden;" />
    <path d="M72 289L102 92" />
    <path d="M72 289L-146 465" />
    <path d="M72 289L-180 216" />
  </g>
  <g style="white-space: pre; fill: rgb(51, 51, 51); font-size: 20px;">
    <text x="0" y="357"><tspan fill="red">F</tspan>(force)</text>
    <text x="5" y="115"><tspan fill="red">B</tspan>(magnetic field)</text>
    <text x="105" y="18"><tspan fill="red">I</tspan>(intensity of current)</text>
  </g>
</svg>