<?xml version="1.0" encoding="utf-8"?>
<svg version="1.0" width="734" height="509" viewBox="0 0 734 509"
  xmlns="http://www.w3.org/2000/svg">
  <g fill="#000000" stroke="none">
    <path d="M120 26C119 26 119 28 120 28C120 30 119 30 110 29C105 28 103 28 101 29C97 30 98 31 104 32C107 32 111 32 112 33C119 35 125 33 123 29C123 28 124 28 128 28C132 28 136 27 136 25C136 24 120 24 120 26Z"/>
    <path d="M137 18C140 19 144 21 145 22C146 24 147 24 149 23C151 22 160 22 161 24C162 25 164 25 166 25C174 24 178 25 178 27C179 30 180 30 183 27C184 26 187 25 189 24C191 24 194 23 195 22C201 20 197 19 179 18C169 18 162 17 160 17C158 16 158 16 157 17C156 20 152 20 144 17C141 16 137 15 135 15L132 15L137 18Z"/>
    <path d="M276 11C274 13 272 14 268 14C262 15 257 17 258 18C258 19 258 19 257 19C254 19 260 22 264 22C268 23 269 24 270 26C271 28 276 29 275 26C274 24 282 24 284 27C286 28 287 28 294 27C299 26 304 25 306 25C310 25 310 25 310 23C309 21 310 21 311 22C314 23 321 24 322 24C323 23 323 17 322 16C321 15 320 15 317 16C314 16 312 17 311 18C309 18 309 18 310 16C310 13 310 13 306 13C304 13 299 12 294 12C287 11 286 11 284 12C282 13 282 13 281 12C281 12 280 10 280 10C279 8 278 8 276 11Z"/>
    <path d="M400 16C396 17 396 18 397 20C397 22 397 23 396 23C394 23 395 25 401 30C404 34 406 35 407 34C407 34 408 33 409 33C411 33 411 33 410 32C409 32 408 31 408 30C408 27 408 27 410 28C412 29 419 32 420 32C420 32 420 31 419 30C418 29 418 29 419 28C420 27 420 27 418 27C416 27 416 27 418 25C424 23 424 21 422 19C420 17 418 16 414 16C412 16 408 16 406 16C405 16 402 16 400 16Z"/>
    <path d="M478 11C477 12 476 12 476 13C477 14 476 14 474 15C471 16 464 16 464 15C464 14 461 14 460 15C460 16 460 17 461 17C462 19 458 26 455 27C454 27 451 26 448 25C441 22 438 21 435 24L434 26L437 24L440 23L445 26C448 28 452 29 454 30C457 30 458 30 461 26C465 22 466 21 467 24C468 25 470 25 470 24C470 22 476 19 478 20C479 21 485 19 485 18C485 16 482 14 480 14C478 14 478 14 479 13C482 10 481 9 478 11Z"/>
    <path d="M551 32C552 31 554 26 554 25C554 23 557 22 562 23C565 23 565 23 564 22C562 20 563 19 569 20C574 20 574 19 574 17C575 15 574 15 568 15C560 14 551 11 543 5C538 2 537 2 533 3C530 4 529 6 532 6C534 6 535 9 535 14C535 16 536 18 536 19C537 22 543 24 547 24C550 24 551 25 549 26C548 27 548 30 548 30C547 30 547 31 546 31C543 31 541 33 544 33C546 33 549 32 548 31C548 31 549 28 550 27C551 25 554 24 553 26C551 30 550 34 550 32C550 33 548 33 548 34C548 34 547 35 548 35C550 35 552 33 551 32Z"/>
    <path d="M662 14C660 16 658 17 656 17C655 16 654 16 654 17C654 18 653 20 651 21C649 23 649 24 650 25C652 25 653 26 653 25C654 25 655 25 656 26C657 27 657 27 656 28C654 30 655 31 658 30C659 30 660 30 659 31C659 31 658 32 659 33C659 34 660 33 662 31C665 27 666 27 672 28C672 28 672 29 671 30C669 31 669 31 671 31C672 31 673 29 675 26C678 21 679 20 682 19C687 18 688 19 688 22C688 25 688 26 686 27C679 30 678 31 677 32C677 33 677 33 678 32C678 32 681 30 684 29C687 28 689 26 690 25C691 22 691 22 690 20C688 17 687 17 682 17C679 18 677 18 677 17C677 16 676 15 674 14C671 10 667 10 662 14Z"/>
    <path d="M248 271C246 273 244 275 243 275C243 275 240 276 238 277C233 279 234 283 240 283C241 283 243 284 245 284C246 285 249 286 250 286C252 287 252 287 251 286C249 284 250 283 254 284C255 284 257 283 257 283C257 281 260 282 261 284C262 285 262 285 263 283C264 281 264 281 268 281C270 282 271 282 272 280C272 279 273 278 274 277C275 275 275 275 273 276C272 276 269 276 267 277C263 277 263 277 262 274L262 271L260 273C259 274 259 276 258 276C258 276 256 276 254 275C251 275 251 275 251 271C251 269 252 267 251 267C251 267 250 269 248 271Z"/>
    <path d="M202 321C196 323 195 324 193 323C192 322 191 322 191 324C190 326 190 326 185 326C182 325 178 325 176 324L174 324L176 327C179 331 180 331 183 330C189 330 207 331 204 332C203 333 204 333 207 333L212 332L208 334C206 335 204 336 204 337C205 338 212 335 214 332C216 331 218 329 219 328L221 328L219 325C217 322 210 318 209 318C209 318 206 319 202 321Z"/>
  </g>
  <path d="M558 358L558 363L579 363L600 363L600 358L600 354L579 354L558 354L558 358Z" stroke="none" fill="#000000"/>
  <path d="M92 40H726M726 0V500H9V0M41 0V500M93 0V500M41 48H92M9 96H726M41 167H92M41 220H92M9 251H726M41 293H92M41 344H92M41 388H92M41 425H92M41 466H92" style="fill: none; stroke: rgb(0, 0, 0); stroke-width: 3px;"/>
  <path d="M656 96L656 107C657 113 658 142 659 172C660 226 660 226 658 229C656 232 651 234 638 235C622 237 616 237 579 238C538 240 512 243 498 247C486 250 468 251 468 248C468 246 470 239 474 226C475 220 478 211 479 206C480 197 481 197 485 192C491 187 495 186 511 183C518 182 527 180 532 178C549 173 551 169 553 134C554 122 554 109 555 105L556 96L556 92C558 82 574 64 583 59C585 58 591 53 595 49C599 45 603 41 603 41C604 41 608 43 612 46C624 53 630 57 636 62C644 70 654 85 656 92L656 96ZM670 96L670 92C672 85 682 69 691 62C694 59 701 54 707 50C713 47 718 43 720 42C721 42 722 41 724 40L488 41C490 41 492 42 497 47C500 50 506 56 511 59C515 62 521 67 524 70C530 76 536 87 538 92L538 96L539 104C540 108 540 122 541 135C542 151 543 159 544 162C548 171 540 176 508 181C496 184 490 186 486 189C484 191 482 192 482 191C482 191 483 182 484 171C487 151 492 100 492 97L477 96L478 90C478 88 478 81 479 76C480 71 481 61 482 54L484 41L446 41L448 54C449 61 450 71 451 76C452 81 452 88 452 90L453 96L438 97C438 101 443 151 446 170C448 191 452 213 457 227C458 232 460 238 461 241C461 244 462 247 462 250L456 252C456 256 460 304 461 311L462 319L459 322C457 324 452 326 438 330C429 332 419 334 416 334C412 334 412 334 413 331C413 329 414 322 416 316C419 303 422 274 422 261L422 252L412 251L412 243C412 223 414 169 416 136C418 116 419 98 419 96L419 75C419 57 419 54 421 48L423 41L390 41C394 41 394 41 396 47C397 52 398 56 398 74L398 96C398 98 399 116 400 136C403 169 405 224 405 244L405 251L394 252L394 261C394 274 398 303 400 317C404 331 405 340 403 340C402 340 402 340 404 351C404 354 404 355 402 357C399 360 387 362 361 363C337 364 320 366 302 370C298 371 294 372 294 372C292 372 293 344 295 321C296 314 296 296 297 280L298 252L292 250C292 249 292 246 293 242C294 239 295 229 296 221C296 212 298 197 300 188C301 179 303 164 304 155C307 130 312 114 321 101C321 101 334 90 344 84C351 81 359 76 361 74C367 70 375 60 382 49C387 42 387 41 390 41L186 41C190 41 190 41 195 49C202 60 210 70 216 74C218 76 226 81 232 84C239 88 245 91 247 93L255 101C264 114 269 130 272 155C273 164 275 179 276 188C278 196 280 211 280 220C281 229 282 239 283 242C284 246 284 249 284 250L278 252L279 281C280 297 280 314 281 320C282 325 282 339 283 350C283 361 284 372 284 376C286 383 285 386 281 389C276 392 271 392 266 390C262 388 262 388 262 383C266 358 266 351 266 334C265 313 263 297 261 294C260 293 260 293 259 294C257 297 255 313 254 334C254 353 256 375 258 384C260 389 260 390 264 391C269 393 267 393 248 396C225 399 213 401 205 403C201 404 197 405 196 405C196 405 196 402 196 399C196 395 198 392 201 386C207 376 207 371 203 354L200 340L194 340L188 340L185 354C181 371 181 377 188 387C192 394 192 395 192 400C192 413 187 418 165 427L155 431L157 427C158 424 160 419 160 414C163 383 164 372 167 354C170 335 170 331 171 293L171 252L164 250L164 224C164 201 164 198 167 180C170 162 175 111 175 102L175 96L176 83C177 77 178 65 180 56L182 41L138 41L140 56C142 65 143 77 144 83L145 96L145 102C145 111 150 162 153 180C156 198 156 201 156 224L156 250L149 252L149 293C150 331 150 335 153 355C158 392 159 401 158 410C157 425 154 430 141 439C133 444 126 452 120 461C118 463 118 463 118 454C118 447 118 443 120 442C122 439 129 405 130 394C131 382 126 345 121 328C119 321 119 318 118 286L118 251L118 174L118 96L118 68L118 41L116 41L116 68L116 96L116 174L116 251L116 286C115 318 115 321 113 328C108 345 103 382 104 394C105 405 112 439 114 442C116 444 116 448 116 471C116 488 115 498 117 498C118 498 118 492 118 483L118 468L122 461C132 446 143 439 166 429C182 422 190 417 193 411C196 406 205 404 242 399C254 397 267 395 272 394C283 392 289 388 290 381C291 379 292 377 292 376C293 375 306 371 323 368C333 367 345 366 360 365C398 363 400 363 407 358C413 353 418 340 414 340C411 340 412 338 415 337C417 337 428 334 440 331C463 326 466 325 468 316C469 313 471 302 472 289C474 260 475 256 478 254L498 249C508 246 544 242 582 240C644 238 660 236 664 229C666 226 666 220 668 168C668 143 669 117 670 110L670 96Z" stroke="none" fill="#444"/>
  <style>
  text tspan {
    font-size:0.7em;
  }
  </style>
  <g style="text-anchor:middle">
    <text x="0" y="0" transform="matrix(0, -1, 1, 0, 32, 45)">Cen.<tspan>신생대</tspan></text>
    <text x="0" y="0" transform="matrix(0, -1, 1, 0, 32, 174)">Mesozoic<tspan>중생대</tspan></text>
    <text x="0" y="0" transform="matrix(0, -1, 1, 0, 32, 375)">Paleozoic<tspan>고생대</tspan></text>
    <text x="66" y="71">Tert<tspan x="66" dy="1.2em">고진기</tspan></text>
    <text x="66" y="133">Cre<tspan x="66" dy="1.2em">백악기</tspan></text>
    <text x="66" y="193">Jur<tspan x="66" dy="1.2em">쥐라기</tspan></text>
    <text x="66" y="235">Tri<tspan x="66" dy="1.2em">트라이</tspan></text>
    <text x="66" y="272">Per<tspan x="66" dy="1.2em">페름기</tspan></text>
    <text x="66" y="319">Crb<tspan x="66" dy="1.2em">석탄기</tspan></text>
    <text x="66" y="366">Dev<tspan x="66" dy="1.2em">데본기</tspan></text>
    <text x="66" y="407">Sil<tspan x="66" dy="1.2em">실루리아</tspan></text>
    <text x="66" y="446">Ord<tspan x="66" dy="1.2em">오르도비</tspan></text>
    <text x="66" y="482">Cmb<tspan x="66" dy="1.2em">캄브리아</tspan></text>
  </g>
  <text x="560" y="382">50 families<tspan x="560" dy="1.2em">50개 '과'의 두께</tspan></text>
  <text x="450" y="485" style="font-size:40">VERTEBRATA<tspan x="600" dy="-1.3em">척추동물</tspan></text>
</svg>