<?xml version="1.0" encoding="utf-8"?>
<svg viewBox="0 0 500 500"
  xmlns="http://www.w3.org/2000/svg">
  <g style="fill:none;stroke:#000;stroke-width: 7px; stroke-linecap: round;">
    <path d="M50 470v-180"/>
    <path d="M50 470a30 30 0 0 1 30 -30h50a20 20 1 0 0 20 -20v-130"/>
    <path d="M150 420a20 20 0 0 1 20-20h90a20 20 0 0 0 20-20v-90"/>
    <path style="stroke-width: 6px;" d="M280 360a20 20 0 0 1 20-20h40a20 20 1 0 0 20-20v-30"/>
    <path style="stroke-width: 6px;" d="M280 380a10 10 1 0 0-10-10h-40a10 10 1 0 1-10-10v-70"/>
    <path style="stroke-width: 5px;" d="M360 320a10 10 0 0 1 10 -10h50a10 10 0 0 0 10-10v-10"/>
    <path style="stroke-width: 5px;" d="M430 252v-32a10 10 0 0 0-10-10h-80a10 10 0 0 1-10-10v-20"/>
    <path style="stroke-width: 3px;" d="M330 180v-30m-60 0v20a10 10 0 0 0 10 10h40a10 10 0 0 1 10 10a10 10 0 0 1 10-10h40a10 10 0 0 0 10-10v-20m-90 0v20a10 10 0 0 0 10 10m40 0a10 10 0 0 0 10-10v-20m0 30h90a10 10 0 0 0 10-10v-10"/>
    <path style="stroke-width: 3px;" d="M460 125v-55m0 50a10 10 0 0 0-10-10h-10a10 10 0 0 1-10-10v-30m0 30a10 10 1 0 0-10-10h-20a10 10 0 0 1-10-10v-20m10 30h-40a10 10 0 0 1-10-10v-5"/>
    <path style="stroke-width: 2px;" d="M325 60C300 60 120 61 120 20L120 10"/>
    <g style="stroke:#888; stroke-width:1px; stroke-dasharray: 2;">
      <path d="M10 300h480"/>
      <path d="M10 217h480"/>
      <path d="M10 81h290a10 10 0 0 0 10-10v-65"/>
      <path d="M10 103h435a10 10 0 0 0 10-10v-88"/>
      <ellipse style="stroke: rgb(215, 149, 55);" cx="101" cy="363" rx="65" ry="10"/>
      <ellipse style="stroke: rgb(215, 149, 55);" cx="331" cy="165" rx="70" ry="6"/>
    </g>
  </g>
  <rect x="40" y="310" width="20" height="30" style="fill: rgba(255, 255, 255, 0.533);"/>
  <ellipse cx="280" cy="59.5" rx="2" ry="2"/>
  <ellipse cx="210" cy="55" rx="2" ry="2"/>
  <ellipse cx="157" cy="46" rx="2" ry="2"/>
  <ellipse cx="120" cy="15" rx="2" ry="2"/>

  <g transform="matrix(0.08, 0.12, -0.12, 0.08, 285, 80)">
    <!--Chilopoda -->
    <path style="fill: black; stroke-width: 0;" d="M155 107C155 106 154 106 154 106C152 106 150 106 151 107C152 107 152 107 153 107C154 107 155 108 160 112C163 115 169 119 173 122C180 128 181 129 183 134C184 137 183 138 180 139C175 141 177 150 175 143C174 143 174 143 174 144C174 144 174 150 174 153C175 155 174 154 172 151C171 149 170 147 170 147C170 147 170 153 171 155C173 160 173 164 172 163C172 163 169 159 167 156C166 155 166 154 165 154C164 153 165 156 167 161C168 164 170 167 170 168C170 170 169 172 168 172C168 172 162 167 160 164C159 163 158 162 158 162C157 162 160 168 163 172C166 175 167 176 166 178C166 179 166 180 166 181C165 182 165 182 161 181C153 178 150 177 150 178C150 178 151 179 154 180C163 185 164 185 164 187C164 187 164 188 164 189L163 191L159 190C146 188 144 189 151 191C153 191 157 193 159 193C163 195 163 195 164 197C164 197 164 199 164 200C164 201 164 201 160 202C150 202 148 203 149 203C150 204 153 204 156 204C162 205 165 205 166 207C166 208 167 211 167 212C166 213 157 217 154 218C153 218 152 219 152 219C153 220 160 218 164 217C166 216 168 216 169 216C169 216 170 217 171 219L172 221L170 222C167 224 162 227 159 227C157 227 156 228 156 228C157 229 166 228 169 226C173 224 175 225 177 228L178 230L175 232C172 235 169 237 165 239C162 240 163 240 166 240C168 239 173 237 178 234L181 233L182 234C184 236 184 238 182 239C181 240 172 244 170 244C166 245 167 245 170 245C174 245 177 244 181 243C184 242 186 241 186 242C188 242 189 244 188 245C188 246 176 252 173 252C172 252 172 253 172 253C172 253 179 252 182 251C186 250 191 249 191 250C192 250 192 251 192 252C192 254 192 254 191 254C188 256 182 258 179 258C175 258 175 258 175 259C175 260 187 260 188 258C189 258 193 258 193 258C193 258 194 259 194 260C195 262 195 263 188 266C185 267 181 269 179 269C176 270 178 270 182 270C183 270 186 269 188 269C190 268 192 268 193 267C196 267 196 268 195 271C195 273 195 273 191 275C188 276 185 278 184 279C182 279 180 280 179 280C178 281 178 281 178 281C178 282 184 281 188 279C193 277 195 277 196 278C196 279 196 280 195 281C195 282 194 282 193 282C192 282 189 283 187 283C185 284 181 284 180 284C179 284 177 285 177 285C177 285 182 286 186 286C191 285 195 286 195 287C194 287 194 288 194 289C193 291 193 291 190 291C186 291 183 290 180 289C177 287 176 287 177 288C177 289 181 291 187 293C193 295 193 296 191 299C190 300 190 301 188 301C185 300 178 297 176 295C173 293 173 293 173 293C173 294 173 295 175 296C176 298 180 300 186 303C190 305 190 306 188 308C187 309 187 310 186 311C185 312 184 312 178 312C175 312 173 312 169 310C163 308 162 308 167 311C170 313 175 315 177 315C179 315 181 315 182 316C186 316 186 316 185 320C184 322 183 323 183 324C183 325 183 325 182 326C181 326 180 327 178 329C174 332 171 335 168 340C167 342 165 346 168 348C169 350 168 347 169 345C172 340 183 335 187 330C189 328 189 328 189 330C189 337 194 352 189 354C188 354 188 354 188 355C189 357 194 356 195 353C196 350 199 340 197 333C197 332 194 330 195 329C196 328 197 327 198 325C198 322 199 322 199 322C199 322 203 325 204 327C205 329 209 331 211 332C211 332 215 333 211 330C211 330 208 328 208 327C206 325 203 321 202 320C201 317 202 312 203 311C205 311 208 312 211 315C214 317 217 318 217 318C217 318 216 316 215 315C210 311 207 308 207 307C206 307 206 306 206 304C207 302 207 302 208 301C209 300 210 299 212 299C214 299 215 300 216 300C218 301 225 299 225 298C225 298 224 298 224 298C223 299 216 298 213 297C211 296 211 296 211 295C210 292 210 290 211 289C212 288 216 287 217 288C218 288 223 288 224 288C225 288 226 288 226 287C226 287 226 287 225 287C224 287 221 287 218 286L213 285L212 282C212 280 212 280 213 278C213 276 214 275 216 275C217 275 219 274 219 274C219 275 224 273 226 272C228 271 227 270 225 271C224 272 215 272 214 272C213 272 213 270 212 269C212 267 212 266 212 265C213 263 213 263 220 261C223 260 226 258 227 257C227 256 225 257 223 257C221 258 218 259 216 259L212 260L211 258C210 257 210 255 210 253C210 252 211 251 217 249C223 246 225 245 224 245C224 245 223 245 223 245C223 245 222 245 221 246C220 246 217 246 215 247C212 248 209 248 209 248C208 248 206 244 206 242C206 241 206 240 207 239C208 238 210 236 210 236C212 235 214 232 216 229C217 227 217 226 215 229C213 231 205 237 204 237C203 237 201 235 201 233C200 230 200 230 205 225C208 221 210 218 209 217C209 217 208 218 207 219C206 221 199 227 198 227C196 227 194 224 194 223C194 221 195 220 199 216C201 213 203 208 202 208C202 208 201 209 200 210C199 212 191 219 191 219C190 219 189 218 189 216C188 214 188 214 189 212C191 209 194 202 194 200C194 198 193 197 191 199C187 202 183 204 182 204C181 204 181 202 182 201C183 200 184 199 185 199C187 198 192 193 193 191C194 189 193 189 191 191C188 194 181 198 180 197C179 196 180 194 184 192C189 189 191 187 193 185C193 183 192 183 191 185C188 187 180 191 179 190C178 189 180 188 183 187C187 185 190 184 192 182C194 180 195 179 193 180C190 182 187 183 184 183C182 184 180 184 180 183C180 182 185 180 188 179C191 179 196 176 196 175C197 174 195 174 193 175C191 176 184 178 183 177C181 176 183 175 187 174C190 174 192 173 193 173C194 173 198 171 198 171C198 171 197 171 196 171C194 171 186 171 185 171C185 170 185 170 185 169C186 168 187 167 191 165C196 163 198 162 198 161C198 161 197 161 195 162C194 162 191 163 190 163C189 163 188 163 188 162C188 161 189 161 192 159C196 157 199 154 198 153C198 153 197 154 196 154C195 155 192 156 192 156C192 155 193 154 194 153C196 149 196 147 194 145C192 142 192 141 195 140C200 137 202 137 211 138C216 138 223 139 227 139C233 140 235 140 235 141C236 141 236 142 237 142C238 142 237 140 235 139C235 139 235 139 234 139C233 138 231 138 224 138C222 137 216 137 211 136C206 135 200 134 194 137L190 137L190 138L189 138L186 133C184 127 178 124 174 121C170 118 165 114 163 113C158 108 156 107 155 107ZM191 202C191 202 191 202 191 202C191 203 191 203 189 206C187 209 186 211 185 210C184 210 184 208 186 206C189 203 191 202 191 202Z"/>
  </g>
  <!-- Snail -->
  <g transform="matrix(0.05, 0, 0, 0.05, 288, 112)">
    <path d="m149 289c94 -1 137 0 212 -1 24 1 44 -15 47 -39 4 -25 15 -66 26 -70 20 -9 47 -7 56 -30 8 -23 -2 -52 -27 -58 -18 -17 -47 -28 -69 -11 -39 25 -61 69 -75 111 2 9 4 21 -4 22 -14 2 -66 -11 -123 13 -45 19 -107 20 -148 35 -13 5 -42 8 -35 24 1 5 100 5 140 5 z" stroke="#000" stroke-width="16"/>
    <g transform="matrix(1.94683 0 0 1.94683 -311.83 -1008.65)" stroke="#fff" stroke-linejoin="round" stroke-linecap="round" stroke-width="8">
      <path d="m227 589c4 1 0 5 -2 6 -5 2 -10 -4 -10 -9  0 -9 8 -15 16 -14 12 1 20 12 19 24 -2 15 -16 25 -31 23 -18 -2 -30 -21 -27 -38 3 -21 25 -35 46 -32 25 4 40 29 36 53 -5 28 -33 45 -60 40 -31 -6 -50 -37 -44 -68 7 -34 42 -55 75 -49 37 8 62 41 68 79 8 8 17 21 9 22 -30 -2 -47 4 -66 6" stroke="#fff"/>
      <path d="m396 528c-5 0 -7 5 -8 9 -8 9 -16 18 -24 27 7 -2 15 5 22 0 6 -8 10 -18 18 -24 5 -6 -1 -13 -8 -12 z" stroke="none" color="#000"/>
    </g>
  </g>
  <!-- Jellyfish -->
  <g transform="matrix(0.047, 0, 0, 0.047, 320, 108)">
    <path fill="#000" d="M258 20C182 20 106 62 86 159C84 173 87 182 94 189C100 196 110 202 123 207C132 201 141 187 144 172C145 188 151 206 161 215C174 217 187 218 202 218C268 169 259 179 323 208C335 206 346 203 356 200C368 184 364 174 362 159C370 170 373 181 390 186C400 181 408 175 414 169C422 160 425 151 424 140C413 65 339 20 262 20C261 20 259 20 258 20L258 20ZM402 201C396 204 391 207 385 209C397 225 404 244 407 264C412 297 403 330 390 343C366 367 360 400 367 431C373 454 386 476 404 494L433 494C409 477 392 452 385 426C379 401 384 376 404 356C423 336 431 299 426 261C423 240 415 219 402 201L402 201ZM360 218C354 220 348 222 342 223C351 240 356 254 358 266C360 288 354 305 337 323C314 349 313 378 310 406C306 433 301 462 271 494L295 494C319 463 325 433 328 408C332 379 333 356 351 336C370 314 379 291 376 264C374 250 369 235 360 218L360 218ZM321 228C299 232 276 235 254 236C237 237 220 237 204 237C190 251 178 267 170 283C157 310 156 341 176 366C176 366 176 366 176 367C166 373 155 378 143 384C120 394 95 403 70 415C77 387 87 365 100 353C117 335 135 320 146 295C152 279 156 259 153 233C147 232 140 231 134 229C137 255 134 273 128 288C120 308 104 321 86 340C68 358 54 389 48 426C39 432 30 438 21 445L21 470C29 462 37 456 46 450C45 464 44 479 45 494L64 494C63 475 64 456 66 438C93 424 123 413 151 401C161 396 172 391 182 385C181 396 177 408 169 422C155 447 128 473 92 494L126 494C153 475 173 453 185 432C197 412 203 391 199 374C220 358 238 339 247 310C257 312 266 311 273 308C273 308 273 308 274 308C266 377 231 445 161 494L192 494C261 436 293 357 294 281C313 274 325 254 321 228L321 228ZM212 256C213 260 215 263 217 266L220 270L218 275C215 284 217 290 222 297C224 299 227 302 230 304C223 327 209 343 192 356C191 356 191 355 190 354C175 335 176 314 187 291C193 279 201 267 212 256L212 256Z"/>
  </g>
  <!-- Sea-star  -->
  <g transform="matrix(0.059, 0, 0, 0.059, 345, 103)">
    <path fill="#000" d="M228 54C223 91 227 127 224 163C222 176 220 195 210 202C197 210 181 208 167 208C128 206 92 197 53 198C35 197 30 204 46 215C80 241 127 258 157 283C162 288 166 292 168 298C170 305 169 312 167 319C164 326 161 334 157 342C138 380 115 412 99 450C97 457 93 463 93 470C93 470 95 470 100 469C150 449 192 417 236 391C250 384 265 372 280 372C294 374 306 384 316 392C343 416 363 443 391 465C396 469 401 472 404 473C407 474 407 473 407 474C407 473 408 473 408 469C408 466 408 460 406 454C398 419 383 388 373 355C368 339 364 326 367 314C371 303 381 295 393 285C418 263 446 248 469 224C486 207 481 205 461 203C426 202 392 208 358 209C342 209 328 210 318 202C307 192 301 178 295 166C278 129 267 92 247 57C240 44 231 33 228 54Z"/>
  </g>
  <!-- earthworm -->
  <g transform="matrix(0.077, 0, 0, 0.077, 374, 103)">
    <path class="st27" d="M 161 367 C 154 362 141 355 139 347 C 137 342 137 328 139 325 C 139 324 140 323 141 323 C 141 321 140 311 143 308 C 149 297 160 285 170 279 C 171 278 182 270 183 270 C 190 266 197 266 205 264 C 206 263 213 261 214 261 C 220 261 226 260 233 258 C 237 256 243 258 248 258 C 249 257 255 256 257 256 C 258 256 260 257 262 257 C 274 253 287 253 299 247 C 304 243 308 240 315 237 C 320 234 325 228 329 224 C 340 209 356 194 349 174 C 347 169 346 165 343 163 C 331 154 321 147 307 149 C 302 149 296 147 292 150 C 285 153 281 158 277 163 C 263 174 259 180 252 196 C 250 198 243 203 242 206 C 232 216 223 225 210 233 C 199 238 184 244 173 246 C 168 246 163 245 160 248 C 155 250 154 252 152 254 C 146 257 136 254 130 256 C 123 257 116 261 110 263 C 107 263 103 262 101 262 C 98 261 98 263 96 264 C 94 264 93 263 92 263 C 90 263 82 265 81 266 C 63 274 43 281 27 292 C 23 294 14 304 9 299 C 7 297 9 294 10 293 C 13 284 20 278 26 271 C 31 263 36 252 44 247 C 51 241 58 235 67 230 C 71 227 76 226 81 224 C 86 220 88 215 94 212 C 99 207 104 208 111 208 C 120 206 130 201 140 201 C 145 200 149 205 154 204 C 167 200 181 197 195 192 C 198 190 212 182 215 180 C 219 175 219 171 223 167 C 225 163 229 159 232 155 C 235 147 242 134 248 129 C 251 125 255 123 259 121 C 261 119 261 115 265 114 C 271 110 281 107 288 105 C 298 101 314 104 326 106 C 338 107 350 113 361 119 C 371 124 383 139 386 151 C 387 155 386 160 388 165 C 389 170 391 173 392 179 C 392 182 390 186 391 189 C 391 193 392 201 391 206 C 387 215 381 225 376 235 C 373 238 371 245 368 249 C 363 253 357 258 353 263 C 348 267 337 273 332 276 C 330 276 325 276 324 278 C 310 287 291 289 276 293 C 270 294 263 291 257 293 C 253 293 250 295 247 296 C 241 297 236 294 231 294 C 225 294 219 295 214 296 C 199 297 184 304 177 317 C 173 322 169 326 170 333 C 170 338 176 342 181 344 C 193 347 202 347 214 342 C 229 334 243 321 259 314 C 262 312 266 312 270 311 C 289 303 308 300 329 307 C 335 309 343 309 349 314 C 350 314 353 315 354 317 C 356 325 346 325 340 325 C 332 323 324 324 317 323 C 309 321 298 318 291 322 C 284 324 276 327 270 331 C 262 335 256 342 250 347 C 242 352 232 358 224 362 C 216 365 215 364 208 367 C 202 368 172 373 161 367 Z"/>
  </g>
  <!-- woman -->
  <g transform="matrix(-0.22, 0, 0, -0.22, 328, 53)">
    <path style="fill: #000; stroke-width: 0;" d="M359 3C357 3 356 3 355 4C354 4 352 4 348 5C347 5 345 5 344 6C343 6 343 7 343 8C343 9 343 9 344 10C344 11 344 12 345 13C347 16 347 19 348 22C349 24 350 26 350 28C350 30 351 31 351 32C351 34 352 36 353 37C354 39 356 41 357 42C358 43 358 44 359 45C359 46 360 47 360 47C360 48 361 50 361 51C362 53 362 55 363 57C363 58 363 59 364 60C364 60 363 60 363 60C363 60 362 61 362 61C362 61 362 61 362 61C362 62 362 62 363 63C363 63 363 64 364 64C364 65 364 65 364 65C364 65 364 66 364 66C364 67 364 67 365 68C365 69 365 69 364 69C363 71 363 71 363 72C363 72 362 74 362 75C362 77 363 79 364 81C364 82 364 82 364 83C364 86 363 89 364 91C364 91 364 92 364 93C363 95 364 96 364 97C364 97 364 97 364 98C364 98 364 99 364 99C365 100 365 101 365 102C365 103 365 104 365 106L365 107L365 107C365 108 365 109 365 111C364 112 364 113 365 115C365 117 365 117 366 118C366 120 367 121 368 122C368 123 370 124 371 125C372 126 372 127 373 128C373 128 374 128 374 129C374 130 374 130 373 130C372 130 371 130 371 131C371 131 371 132 371 132C371 132 371 133 371 133C371 134 372 135 372 135C371 136 371 136 371 137C371 137 370 138 370 138C370 139 369 140 369 140C369 141 370 141 370 143C370 144 370 144 370 144C370 144 370 145 369 145C369 146 369 147 370 147C370 148 371 148 372 148L372 149C371 149 371 150 371 150C372 150 373 151 373 151C373 152 375 152 375 152C376 152 377 152 378 152C378 152 378 152 379 151C379 151 380 151 380 151C380 151 380 151 381 151C383 151 383 151 385 150C386 150 387 149 387 148C387 148 388 148 388 148C388 148 389 148 390 147C390 147 391 146 391 146C391 145 391 144 391 142C391 142 391 142 391 141C391 141 391 140 390 140C389 139 389 138 389 138C389 137 389 137 390 136C391 135 391 135 391 135C391 134 390 134 389 134C389 134 389 133 389 133C389 132 389 132 388 132C388 132 388 132 388 132C388 132 388 131 388 131C388 131 388 131 388 130C388 129 388 129 387 128C386 128 383 129 383 128C383 128 382 127 382 126C382 125 382 125 382 125C381 124 381 123 381 122C381 122 381 122 382 122C382 121 382 120 383 120C384 119 384 118 384 117C385 116 385 115 385 114C386 113 386 112 386 112C386 110 387 109 387 108C388 107 388 107 388 106C388 104 387 104 386 103L386 102C386 100 386 99 386 97L386 97C386 96 388 95 389 94C392 91 396 87 399 85C399 85 401 84 401 84C402 83 402 83 404 82C405 82 405 82 406 81C406 81 406 80 407 79C408 77 408 77 408 76C408 76 408 75 407 75C407 74 406 73 406 73C406 73 406 73 405 73C405 73 405 73 405 73C404 72 404 72 403 73C403 73 402 73 402 73C402 73 402 73 402 73C401 72 401 72 400 73C400 73 399 73 399 74C399 74 400 74 400 74C401 74 401 74 401 74C401 75 402 75 402 75C402 75 402 75 402 75C401 76 401 76 400 77C399 77 398 79 398 79C398 80 398 80 398 80C394 82 391 84 388 86C388 86 388 86 388 86C387 86 387 86 387 86C387 84 387 82 386 80C386 79 386 77 386 77C385 76 385 76 386 76C386 76 386 75 387 74C388 72 389 70 389 69C391 67 391 65 393 62C393 61 393 60 394 59C395 57 395 55 396 54C396 52 396 52 397 51C398 50 398 49 399 48C399 47 399 46 399 45C399 43 399 42 399 41C399 40 399 39 399 39C399 36 401 32 401 29C402 27 402 24 403 22C404 20 404 18 405 16C406 15 407 14 407 13C408 13 408 12 408 12C410 11 412 11 413 10C415 10 416 9 417 9C417 9 417 9 418 10C419 10 419 10 420 10C421 10 422 10 422 10C422 10 422 9 422 9C422 8 421 8 421 8C420 7 419 7 419 6C419 6 418 6 417 6C417 5 416 5 416 5C416 5 414 5 412 5C409 5 408 5 407 4C405 3 404 3 403 3C401 3 400 4 399 5C399 6 399 6 399 7C399 8 399 9 399 10C399 10 399 12 398 12C397 16 396 18 394 21C394 21 393 24 392 25C391 26 391 28 390 29C390 31 389 33 389 35C389 36 389 39 389 40C389 40 389 40 389 41C389 42 388 43 388 44C388 45 387 46 386 47C384 49 383 51 381 53C381 54 380 56 380 56C380 56 379 57 379 57C379 58 378 58 378 58C378 58 378 57 378 57C376 55 376 54 375 52C374 51 373 49 372 48C371 47 371 45 370 44C370 42 369 42 368 41C368 41 367 40 367 40C367 40 366 39 366 39C365 38 365 38 364 37C364 37 363 36 363 35C362 34 362 32 361 31C361 30 360 29 360 28C359 26 358 24 357 23C356 21 355 19 354 17C354 16 354 15 354 15C354 14 354 14 354 13C354 12 354 12 354 11C354 11 355 10 356 10C357 9 358 8 359 7C360 7 361 6 361 6C361 6 362 6 362 6C364 5 365 5 366 5C367 5 367 5 367 5C367 4 367 4 367 3C366 3 365 3 364 3C364 3 363 3 363 3C362 3 360 3 359 3Z"/>
  </g>
  <!-- Bird -->
  <g transform="matrix(0.055, 0, 0, 0.055, 368, 25)">
    <path style="fill:#000" d="M694 596C694 593 693 589 692 588C691 586 688 576 686 565C683 554 679 542 676 537C673 533 670 528 670 526C670 523 655 493 651 488C647 483 632 453 628 440C626 435 619 425 612 417L598 403L577 401C541 398 510 399 494 405C481 410 469 419 467 425C466 427 464 429 462 431C458 437 457 443 463 443C466 443 470 445 472 447C473 450 477 452 479 452C484 452 490 458 488 461C485 465 466 464 463 460C461 458 455 454 450 452L441 447L430 452C413 461 402 461 392 453C385 447 384 447 378 450C367 454 357 463 353 472L349 479L347 460C345 441 347 435 352 440C357 443 365 439 369 433C371 428 370 414 366 397C364 392 359 383 353 376C343 366 339 364 323 359C290 349 279 348 259 349C241 350 240 350 233 358C229 363 220 369 214 373C207 376 195 384 186 389C177 395 168 400 167 400C163 400 143 417 139 423C137 427 133 432 130 434C126 439 125 439 125 432C125 422 122 427 108 453C100 470 96 475 95 472C95 469 97 461 99 454C101 446 103 440 102 440C101 440 93 456 78 489L75 496L74 490C74 486 76 476 80 466C89 439 89 438 78 458C72 468 66 479 64 482C63 485 61 487 60 487C58 485 65 465 72 451C76 443 80 436 80 435C81 434 79 434 78 435C76 435 68 446 60 458C53 470 46 480 44 480C42 480 44 471 50 458C57 443 54 440 46 454C39 465 31 471 31 466C31 460 52 432 71 415C79 407 84 401 81 403C72 407 53 421 44 429C33 439 29 436 39 425C52 412 62 406 112 379C137 366 159 353 162 351C165 348 174 342 183 337C202 327 218 324 251 324C266 325 276 327 302 335C320 341 337 348 340 351C348 358 354 362 363 366C367 368 371 370 372 372C375 377 404 390 419 393C443 397 485 392 506 383C518 377 522 376 549 376C574 375 581 376 586 379C599 388 620 409 631 426C637 436 646 448 651 453C655 458 661 465 664 469C667 472 673 479 678 485C682 491 688 498 691 501C694 505 697 511 698 516C699 520 701 528 704 532C713 551 718 579 713 587C711 590 710 590 708 587C707 585 705 580 704 577C704 573 702 570 701 570C699 570 699 573 700 576C701 583 699 603 696 603C695 603 694 600 694 596 zM465 450C465 448 463 447 460 447C456 447 455 448 458 450C463 453 465 453 465 450 z"/>
  </g>
  <!-- Frog -->
  <g transform="matrix(0.06, 0, 0, 0.06, 419, 18)">
    <path d="M2 362c1 2 1 3 2 5c1 3 2 7 3 10c2 4 3 7 7 10c2 2 4 5 7 8c3 3 6 6 9 10c0 0 1 0 2 0c2 0 5 0 7 0c3 0 6 0 10 1c3 1 8 1 11 0c2-1 4-1 6 0c4 0 9 1 13 2c3 1 6 3 9 4c2 1 4 1 6 2c2 1 4 2 7 2c2 1 3 1 5 2c2 1 4 1 7 2c2 1 3 2 4 2c1 1 2 1 3 2c2 1 4 1 5 2c2 1 3 2 5 2c1 1 3 1 4 2c3 1 6 3 10 4c3 1 6 2 9 3c2 1 3 2 5 3c2 1 3 1 5 2c2 1 4 3 7 4c2 1 3 1 5 2c1 0 2 1 3 1c1 0 2-1 3-1c3 0 4-2 2-5c-2-3-3-6-5-9c-1-2-3-3-4-5c0-1-1-1-1-2c1-1 2-1 3-2c2 0 3 0 5 0c2 0 4-1 6-1c3 0 7 0 10 1c2 1 5 3 7 4c3 1 5 3 8 2c3-1 5-4 5-7c0 0 0-1 0-1c4 1 8-1 12 1c0 0 1 0 2 0c4 0 8 0 11 0c6 0 13 1 19 2c3 0 5 1 8 2c4 2 7 2 10 5c1 1 2 1 3 0c2-1 4-2 6-3c1-1 1-4 0-5c-3-3-6-6-10-7c-2 0-4-2-5-3c-2-1-3-1-5-2c-3-1-6-1-9-2c-4-1-8-2-12-3c0 0 0 0 0 0c-4-1-9-1-13-2c-5-1-11-1-16-2c-10-2-20-1-30-1c-2 0-4 0-6 0c-4 0-9-1-13-2c-3-1-6-2-9-3c-2-3 1-5 3-7c4-4 8-7 11-11c2-3 3-6 5-9c1-2 4-3 6-2c0 0 1 1 1 1c3 1 6 1 9 2c3 1 5 2 8 4c2 1 4 2 6 4c2 1 4 2 6 3c2 1 4 2 6 3c10 2 19 2 29 1c5 0 11 0 16-2c3-1 6-1 9-1c4-1 8-2 11-3c0 0 1 0 1 0c3-1 7-1 10-2c2-1 4-2 7-3c2-1 4-1 6-2c2-1 4-2 7-3c1-1 3-1 4-2c3-1 6-2 9-3c2-1 4-1 5-4c0-1 2-2 4-2c1 0 3 1 3 2c2 2 4 5 6 7c3 4 7 8 11 10c2 1 5 4 7 5c0 0 0 0 1 0c3 0 5 1 8 1c0 0 0 1 0 1c-1 1-2 2-3 2c-1 1-3 1-4 1c-2 1-5 1-7 2c-3 1-6 2-9 3c0 0-1 0-1 0c-3 1-6 1-9 2c-1 0-2 1-3 2c-2 2-4 3-7 3c-4 0-8 1-12 1c-2 0-3 2-5 2c-2 1-3 1-5 2c-4 1-7 3-9 6c0 1 0 2 0 3c4 0 8 1 12 0c3-1 6 0 9-1c7-2 15-1 22-1c3 0 5 2 8 3c2 1 4 1 5 2c5 1 10 2 15 2c1 0 3 0 4 0c3 0 5-1 7-3c3-2 5-3 8-5c1-1 3-2 4-3c1 0 2 0 3 0c0 0 1 0 1 1c3 1 7 2 10 3c3 2 7 3 10 2c2 0 4-1 6-2c2-1 4-3 7-2c1 0 2 1 3 1c1 0 3-1 4-1c2 0 4 0 7 0c2 0 4 1 7 1c5 0 11 0 16-2c4-1 7 0 11 1c5 0 9 0 14 2c4 1 9 2 12 5c3 2 7 3 10 5c3 1 6 3 9 4c3 1 6 2 8 3c3 2 6 4 9 7c1 1 4 1 5-1c0-1 1-1 1-2c0-1-1-3-1-4c-1-3-3-5-5-7c-3-2-6-4-10-7c-2-1-4-3-6-4c-3-2-6-3-9-5c-3-1-6-3-9-4c-3-2-6-4-9-6c0 0 0 0 0 0c1 0 1-1 2-1c2 0 4-1 6-1c4-1 8-2 11-5c1-1 3-2 4-3c1 0 1-1 2-1c5 0 10 3 14 7c1 2 4 2 6 1c0 0 1 0 1 0c0 0 0 0 0-1c0 0 0 0 0 0c1-1 2-3 1-4c0-4-3-8-7-8c-6-4-12-6-19-5c-6 1-12 3-18 7c0 0-1 0-1 1c-1 0-1 0-2 0c-1 0-3 0-4 0c-5 0-10 1-15 2c-6 1-10-2-14-6c-3-3-5-6-7-8c0 0 0 0 0 0c-1-2-1-4-2-7c-1-4-2-7-3-11c0-2-1-3-2-5c-1-2-2-4-4-7c-2-2-3-4-5-6c-2-2-4-4-7-6c-4-1-7-4-10-6c-2-1-4-1-5-2c-3-1-5-2-8-4c-1-1-2-1-4-2c-2-1-4-3-7-4c-2-1-3-1-5-3c-1-1-1-2-1-2c3-1 4-3 6-4c1-1 3-1 4-2c3-2 5-3 8-5c4-3 8-6 11-10c2-2 5-5 7-8c2-4 4-8 6-12c2-3 4-7 4-11c1-3 2-6 3-9c2-4 5-7 8-10c3-2 6-5 8-8c2-3 3-6 5-9c3-6 6-11 11-15c2-2 5-2 7-4c3-1 5-3 8-4c2-1 4-2 6-3c2-1 4-3 6-4c1-1 2-1 4-2c4-2 8-5 11-8c3-3 5-6 8-9c2-2 4-4 6-6c2-3 5-6 5-9c0-2 1-4 1-6c0-3-1-6-3-9c-1-3-3-6-5-7c-4-3-7-7-11-9c-3-1-5-3-8-3c-1 0-2 0-2-1c-1 0-3-1-4 0c-1 0-2 1-4 1c-6-1-12-1-17-1c-1-1-2-3-3-4c-3-4-5-8-9-10c-3-2-6-5-10-5c-2-1-4-2-7-2c-3 0-6-1-8 1c0 0-1 0-1 0c-4 0-7 3-10 5c-2 2-4 5-6 7c-1 1-2 2-2 4c-2 3-4 7-6 10c-2 4-7 5-11 6c-9 2-17 1-26 2c-3 0-6 2-9 4c-2 2-5 3-7 4c-3 1-6 2-9 3c0 0 0 0 0 0c-5 1-9 1-14 2c-3 1-6 2-9 2c0 0 0 0 0 0c-3 1-6 1-9 2c-4 1-8 1-12 2c-3 1-6 1-9 1c-5 0-10 0-15 0c-8 0-17 0-25-2c-4-1-8 0-12-1c-6-2-12-1-18-1c-4 0-8-1-12-1c-5 0-9 0-14 2c-3 1-5 1-8 1c-4 1-7 3-10 6c-4 5-8 9-12 14c-3 3-6 6-10 9c-3 2-6 4-9 7c-2 1-3 2-5 4c-2 1-5 2-6 4c-10 10-19 21-29 30c-5 5-10 10-15 14c-1 1-3 2-4 3c0 0 0 0 0 0c-1 0-1 1-2 1c-1 1-2 1-2 1c-1 1-2 1-3 2c-3 1-6 3-8 5c-5 3-10 6-15 9c-1 0-2 0-3 1c0 0-1 0-1 0c-3 1-5 1-8 2c-2 1-4 2-6 2c-1 1-3 1-4 2c-4 2-8 4-12 6c-3 2-6 4-9 6c-2 2-4 5-5 8c-1 2-2 4-3 6c0 0 0 1 0 1c0 4-3 7-5 10c-2 3-4 5-5 8c-2 3-3 7-5 11c-1 3-3 6-4 10c-1 2 0 4 0 6c0 3-1 7-1 10C1 355 1 358 2 362zM338 357c0 0 0 0 1 0l0 0c0 0 0 1-1 1c0 0 0 0 0 0C338 357 338 357 338 357z"/>
  </g>
  <!-- Fish -->
  <g transform="matrix(0.06, 0, 0, 0.06, 458, 38)">
    <g stroke="#000" stroke-linecap="round" stroke-linejoin="round">
      <path d="m19 195c-5-22 14-11 20-19-29-19-29-48-9-37 56-49 117-39 176-54 16-4 19-41 48-66 8 26 38 73 56 80 65 24 129 52 148 52 13 1 28-1 35-7 32-41 61-42 90-50-1 14-42 65-51 91 9 39 37 56 47 87-39 0-67-32-99-49-18-4-25-7-37-6-50 24-26 66-89 29-6 7-21 9-30 14-8 4-10 14-11 52-19-4-36-6-70-29-28 0-51-4-85-13 0 0-2 24 7 48-10 7-46-32-84-80-26-7-42-19-62-44z" fill="none" stroke-width="13"/>
      <path d="m83 152a15 15 0 1 1-29 0 15 15 0 1 1 29 0z" stroke-width="12"/>
      <path d="m394 230 20 12m-35-1 25 14m-107 23 18 8m-34 4c8 4 23 9 33 11m-196-48 47 65m-64-168c6 39-1 66-27 70m46-64c10 57-10 85-40 82" fill="none" stroke-width="12"/>
    </g>
    <path d="m119 103c51 57 66 119 157 113 68-4 151-35 195-52l-13 33 46 41c28 19 50 39 78 33l-49-83 44-87c-36 2-73 26-109 47-94-26-196-38-217-128-12 20-22 47-40 59-26 17-62 16-93 23z" stroke-width="4"/>
  </g>
  <!-- monkey -->
  <g transform="matrix(0.23, 0, 0, 0.23, 329, 39)">
    <path d="M64 8c2 1 5 2 6 3c4 3 5 7 5 12c1 8-4 14-10 18c-4 3-8 5-13 7c-3 1-7 2-9 5c-4 3-6 7-7 12c0 3 0 6 1 8c2 4 5 6 9 6c1 0 2 0 3-1c2-1 4-2 6-2c5-2 10-2 16-1c5 1 10 3 15 5c3 1 6 2 10 3c2 0 4 0 5-2c0 0 1-1 1-1c1-1 2-2 4-2c1 0 3 0 4 1c2 0 2 2 3 3c0 2 1 3 2 4c2 4 1 7-2 8c-2 1-5 2-8 0c-2-1-3 0-3 2c0 4-1 7-3 11c-1 2-1 4 0 5c1 1 1 2 2 3c1 2 3 4 4 6c1 2 2 3 4 3c2 0 3 0 4 1c1 0 1 1 2 2c-1 0-1 1-2 1c-4 1-8 0-11-4c-3-3-6-6-8-10c-1-1-2-3-2-4c0 0 0-1-1-2c0-1-1-1-2-2c0 1-1 1-1 2c0 3-1 6-1 9c0 2 0 3 0 4c0 1 0 1 0 2c0 2 1 2 2 2c1 0 2 0 3 0c1 0 2 1 2 2c0 1 0 2-2 2c-2 0-5 0-7-1c-1 0-2-1-2-2c-2-5-3-10-5-16c-1-3 0-7 1-10c1-2 1-2-1-3c-1 0-3 0-4 0c0 0-1 0-1 1c0 0 0 1 1 1c2 2 2 4 1 6c-1 4-2 8-4 12c0 1-1 2-1 2c0 2 0 2 1 3c2 1 4 1 6 2c2 0 3 1 4 2c0 0 1 1 1 1c0 0-1 1-2 1c-4 0-7-1-10-2c-2 0-3-1-4-2c-2-1-2-3-1-5c0 0 0-1 0-1c0-4 1-8 1-12c0-1 0-2-1-3c0 0 0 0-1 0c-3-1-5-3-8-4c0 1 0 1 0 2c0 5-3 8-7 11c-4 2-8 3-12 4c-1 0-1 0-2 0c-2 0-2 1-1 2c1 1 2 1 2 2c1 1 3 3 4 4c1 1 1 2 1 2c-1 1-2 1-3 1c-1 0-3-1-4-2c-3-2-5-5-7-8c-1-2 0-4 1-5c5-2 10-5 15-7c2-1 2-2 2-3c-2-5-2-10-1-14c0-2 0-3-2-3c-9-1-14-7-16-14c-1-6-1-11 2-16c2-5 6-8 11-10c3-2 7-3 10-4c5-2 9-3 13-6c5-4 7-11 5-16c-1-4-4-6-7-8c0 0-1 0-2-1c-2-1-2-2 0-3C62 8 63 8 64 8z"/>
  </g>
  <!-- mushroom -->
  <g transform="matrix(0.06, 0, 0, 0.06, 344, 225)">
    <path fill="#000" d="M243 33c-20 0-42 2-65 7C127 52 68 107 42 162 29 190 25 217 31 238c5 17 17 32 41 42-6-11-11-23-13-35 L77 242c3 15 12 33 23 47 16 3 34 6 52 8-6-14-6-28-6-39 l18 .4c0 14 0 25 10 41 18 1 36 2 55 3 0-14 .6-28 1-41 l18 1c-1 13-2 26-1 40 20 .2 40 0 60-1 2-14 4-28 5-41 l18 2c-1 12-3 24-5 38 19-1 37-3 53-5 5-14 9-28 12-42 l18 3 C412 269 408 281 404 293c9-1 18-3 26-5 9-15 16-29 20-44 l18 4c-2 9-6 19-10 29 19-11 28-28 30-49 2-27-11-62-37-95-42-52-116-97-207-98 zm-57 287c-1 7-3 15-4 23-4 28-6 57-3 80 2 23 9 40 18 47 16 12 37 17 57 16 20 0 39-7 50-16 9-7 16-30 17-60 .6-27-3-59-10-89-40 2-83 1-124-1 z"/>
  </g>
  <!-- Tree -->
  <g transform="matrix(0.31, 0, 0, 0.31, 35, 110)">
    <path d="M631,402c-2-4-5-6-9-7c1-2,1-5 0-8c-2-4-6-6-10-6c0-1 0-3-1-4c-2-5-9-7-14-5c-2,1-3,2-4,3c-3-2-7-3-11-1c-3,2-5,4-6,8c-2-1-5-1-7,1c-5,2-7,9-5,14c0,0,0,0,0,1c0,0 0,0 0,0c-9,4-13,16-9,25c3,7,11,11,18,11c0,1,0,3,1,4c2,5,9,7,14,5c1 0,2-1,2-2v31h9v-29c4,2,9,1,13-1c8-4,11-12,9-20c1 0,2 0,2-1 C631,417,634,409,631,402z"/>
  </g>
  <!-- Prokaryote -->
  <g transform="matrix(0.042, 0, 0, 0.042, 10, 335)">
    <path d="M681 134l-8-5c-47-26-103-16-136 43l-121 216l-4 8L290 612c-34 60-13 113 34 139l8 5c47 26 103 16 136-43L589 496 l4-8l121-216C748 214 728 161 681 134z"/>
    <path d="M382 993c-11 0-22-1-32-4c-40-11-74-44-98-94c-50-107-112-101-138-99 l-2 0c-19 2-65-11-81-40c-11-19-6-42 13-67c10-13 21-20 33-20c25-1 50 27 76 57c26 30 53 61 81 64c28 3 51-4 67-19c12-12 16-24 16-24l8 2c0 1-5 15-18 28c-13 12-36 25-74 21c-31-3-60-35-87-66c-25-28-48-55-70-54c-9 0-18 6-27 17c-17 23-21 42-12 59c14 26 58 37 74 35l2 0c28-2 93-8 146 104c23 48 55 79 92 89c34 9 73 2 107-21l4 2l1 4C438 984 410 993 382 993z"/>
    <path d="M448 341C423 331 383 329 369 303C368 302 366 303 367 304C382 331 422 333 448 343C449 344 449 342 448 341Z"/>
    <path d="M577 484c26 7 41 28 63 43c1 1 2-1 1-2c-22-16-37-36-63-43C576 481 576 483 577 484L577 484z"/>
    <path d="M584 473c13 8 15 21 20 34c5 11 12 18 23 22c1 0 2-2 1-2c-16-6-21-18-26-33c-3-9-8-17-16-22C584 471 583 473 584 473L584 473z"/>
    <path d="M644 370c21 8 63 49 86 25c1-1-1-2-1-1c-21 23-63-18-84-26C643 367 643 369 644 370L644 370z"/>
    <path d="M488 282C472 257 443 245 428 220C427 219 425 220 426 221C441 246 471 258 486 283C486 284 488 283 488 282Z"/>
    <path d="M509 232C484 221 448 221 436 193C435 192 433 193 434 194C447 223 483 222 508 234C509 235 510 233 509 232Z"/>
    <path d="M600 129c-9-24-8-49-12-73c0-1-2-1-2 1c4 25 3 49 12 73C598 131 600 131 600 129L600 129z"/>
    <path d="M697 159c20-16 52-20 77-16c1 0 2-2 1-2c-26-4-58 0-79 16C695 158 696 160 697 159L697 159z"/>
    <path d="M709 179c26 5 56 3 75 25c1 1 2 0 1-1c-19-23-49-21-76-26C708 177 708 179 709 179L709 179z"/>
    <path d="M561 519c18 21 34 46 63 50c1 0 2-2 1-2c-28-4-45-29-62-50C561 517 560 518 561 519L561 519z"/>
    <path d="M613 413c39 15 65 51 104 65c1 0 2-2 1-2c-39-14-65-50-104-65C612 411 612 413 613 413L613 413z"/>
    <path d="M703 265c34-9 57 31 86 42c1 0 2-1 1-2c-29-12-52-52-87-42C702 264 702 266 703 265L703 265z"/>
    <path d="M529 207C495 187 454 186 425 156C424 155 422 157 423 158C452 187 494 189 528 209C530 210 531 208 529 207Z"/>
    <path d="M687 297c28 2 45 34 74 27c1 0 1-2-1-2c-29 7-46-26-74-27C686 294 686 296 687 297L687 297z"/>
    <path d="M385 464C375 451 361 441 347 433C346 432 345 434 346 435C360 443 374 453 384 466C385 467 386 465 385 464Z"/>
    <path d="M360 520C335 514 309 510 289 491C288 490 286 492 287 493C308 511 334 516 360 522C361 522 362 520 360 520Z"/>
    <path d="M336 694C313 707 288 703 262 704C239 704 220 714 205 731C204 732 205 734 206 733C227 710 250 705 280 706C300 706 319 706 338 696C339 696 338 694 336 694Z"/>
    <path d="M376 745C390 779 403 815 438 833C439 834 440 832 439 831C404 813 392 778 378 745C377 744 375 744 376 745Z"/>
    <path d="M386 452C361 423 321 428 290 408C289 408 288 409 289 410C319 430 360 425 385 453C386 454 387 453 386 452Z"/>
    <path d="M466 651C499 640 527 670 554 683C556 684 557 682 556 681C528 668 499 637 465 649C464 649 465 651 466 651Z"/>
    <path d="M458 960c0 0 3-2 5 0c2 3 1 5-1 6"/>
  </g>
  <!-- amoeba -->
  <g transform="matrix(0.9, 0, 0, 0.9, 255, 218)">
    <path d="M16.8 41.5a4.6 4.6 0 0 1-3.2-1.2A5.2 5.2 0 0 1 12.1 36a10.1 10.1 0 0 1 1.4-4l0.2-0.3a7.4 7.4 0 0 0 0.7-1.4 1.2 1.2 0 0 0-0.1-1.1 2.3 2.3 0 0 0-1.7-0.7h-0.7A6.4 6.4 0 0 1 9 28.1a3.8 3.8 0 0 1-2.1-3c-0.2-1.9 1.3-3.5 2.2-4.2a18 18 0 0 1 1.7-1.2 17.9 17.9 0 0 0 1.4-1.1 2.5 2.5 0 0 0 0.9-1.1l0-0.1c0.1-0.4-0.1-0.9-0.5-1.5a6.1 6.1 0 0 1-0.6-1.5 3.6 3.6 0 0 1 0.8-3.2 4.6 4.6 0 0 1 3.8-1.5A12.7 12.7 0 0 1 21 11c0.40.20.90.4 1.30.6a2.7 2.7 0 0 0 2 0.2c0.1 0 0.4-0.20.6-0.9l0.1-0.5a5.9 5.9 0 0 1 0.8-2.2 4.4 4.4 0 0 1 5.3-1.2c3.6 1.5 5.2 5.2 4.2 9.8-0.3 1.5-0.1 2.40.7 3.1a12.6 12.6 0 0 0 1.4 1A8.2 8.2 0 0 1 40.1 23a4.6 4.6 0 0 1 0.6 4.6c-1 2.4-4 3.8-6.3 4.2-0.70.1-1.50.2-2.20.2a11.6 11.6 0 0 0-5.2 1.3 11.9 11.9 0 0 0-3.1 3.3 12.7 12.7 0 0 1-3.9 4A6.4 6.4 0 0 1 16.8 41.5ZM15.1 17.9l0 0.1a4.5 4.5 0 0 1-1.5 2.1c-0.50.4-1.10.8-1.6 1.2a17.3 17.3 0 0 0-1.5 1.1c-0.50.4-1.6 1.5-1.5 2.5a1.8 1.8 0 0 0 0.9 1.4 4.9 4.9 0 0 0 2 0.3h0.7a4.1 4.1 0 0 1 3.3 1.5 3.1 3.1 0 0 1 0.4 2.8 8.6 8.6 0 0 1-0.8 1.9l-0.20.3a7.9 7.9 0 0 0-1.1 3.2A3.2 3.2 0 0 0 15 38.9c1 1 2.80.8 4 0.1a11 11 0 0 0 3.2-3.4 13.6 13.6 0 0 1 3.6-3.9A13.3 13.3 0 0 1 32 30c0.7-0.1 1.4-0.1 2.1-0.2 1.8-0.3 4.1-1.4 4.8-3a2.7 2.7 0 0 0-0.4-2.7 6.7 6.7 0 0 0-2.1-1.7 14.7 14.7 0 0 1-1.6-1.1 4.8 4.8 0 0 1-1.4-5.0c0.3-1.30.9-5.8-3-7.5a2.5 2.5 0 0 0-2.90.5 4.7 4.7 0 0 0-0.5 1.5c0 0.2-0.10.4-0.10.6a3.2 3.2 0 0 1-1.6 2.2 4.4 4.4 0 0 1-3.7-0.1c-0.5-0.2-0.9-0.4-1.4-0.6a11.2 11.2 0 0 0-3.6-1.2 2.7 2.7 0 0 0-2.10.8A1.6 1.6 0 0 0 14 13.9a4.5 4.5 0 0 0 0.5 1 4 4 0 0 1 0.6 2.9Z" style="fill: rgb(43, 39, 39);"/>
    <circle cx="24.1" cy="23.2" r="3"/>
    <circle cx="14.7" cy="23.5" r="1.5"/>
    <circle cx="20.4" cy="31.8" r="1"/>
    <circle cx="33.5" cy="25.1" r="1.5"/>
    <circle cx="29.8" cy="13.3" r="1.5"/>
    <circle cx="21.3" cy="16.7" r="1"/>
  </g>
  <!-- Archaebacteria -->
  <g transform="matrix(0.15, 0.14, -0.14, 0.15, 150, 225)" style="fill:none;stroke:#000">
    <ellipse cy="65" cx="50" ry="65" rx="50" />
    <ellipse cx="50" cy="65" rx="45" ry="60" />
    <path style="stroke-width:5" d="M60 42C60 42 40 40 39 47C39 55 60 48 61 56C61 63 41 58 42 66C42 72 60 67 60 75C60 81 41 77 42 85C42 91 60 91 60 91" />
    <ellipse cx="0" cy="0" rx="11" ry="5" transform="matrix(0, -1, 1, 0, 50, 25)"/>
    <ellipse cx="0" cy="0" rx="11" ry="5" transform="matrix(0.26, -0.97, 0.93, 0.396675, 62, 28)"/>
    <ellipse cx="0" cy="0" rx="11" ry="5" transform="matrix(0.71, -0.71, 0.71, 0.71, 72, 40)"/>
    <ellipse cx="0" cy="0" rx="11" ry="5" transform="matrix(0.97, -0.26, 0.26, 0.97, 73, 55)"/>
    <ellipse cx="0" cy="0" rx="11" ry="5" transform="matrix(1, 0, 0, 1, 73, 70)"/>
    <ellipse cx="0" cy="0" rx="11" ry="5" transform="matrix(0.97, 0.26, -0.26, 0.97, 73, 85)"/>
    <ellipse cx="0" cy="0" rx="11" ry="5" transform="matrix(0.71, 0.71, -0.71, 0.71, 70, 100)"/>
    <ellipse cx="0" cy="0" rx="11" ry="5" transform="matrix(0.26, 0.97, -0.97, 0.26, 58, 105)"/>
    <ellipse cx="0" cy="0" rx="11" ry="5" transform="matrix(0, 1, -1, 0, 45, 105)"/>
    <ellipse cx="0" cy="0" rx="11" ry="5" transform="matrix(0.26, -0.97, 0.97, 0.26, 35, 100)"/>
    <ellipse cx="0" cy="0" rx="11" ry="5" transform="matrix(0.71, -0.71, 0.71, 0.71, 30, 85)"/>
    <ellipse cx="0" cy="0" rx="11" ry="5" transform="matrix(0.97, -0.26, 0.26, 0.97, 30, 69)"/>
    <ellipse cx="0" cy="0" rx="11" ry="5" transform="matrix(1, 0, 0, 1, 28, 54)"/>
    <ellipse cx="0" cy="0" rx="11" ry="5" transform="matrix(0.97, 0.26, -0.26, 0.97, 30, 40)"/>
    <ellipse cx="0" cy="0" rx="11" ry="5" transform="matrix(0.26, 0.97, -0.97, 0.26, 36, 30)"/>
  </g>
  <g style="fill:#444; font-size:15px;">
    <g style="font-weight:900">
      <text x="15" y="327">Domain(역)</text>
      <text x="15" y="238">Kingdom(계)</text>
      <text x="15" y="119">Phylum(문)</text>
      <text x="15" y="97">Class(강)</text>
      <text x="15" y="74">Order(목)</text>
      <text x="15" y="55">Family(과)</text>
      <text x="15" y="36">Gunus(속)</text>
      <text x="15" y="17">Species(종)</text>
    </g>
    <text x="25" y="490" style="font-size: 17px;">LUCA(공통조상)</text>
    <text x="65" y="388">Prokaryote<tspan dx="-60" dy="1.2em" style="font-size:10px">(원핵생물)</tspan></text>
    <text x="220" y="420">Eukaryote<tspan style="font-size:10px">(진핵생물)</tspan></text>
    <text x="310" y="358">Amorphea<tspan style="font-size:10px">(아모르페아)</tspan></text>
    <text x="225" y="440" style="fill: rgb(215, 148, 53); font-size: 12px;">cell nucleus(세포핵)<tspan dx="-100" dy="1.5em" style="font-size: 9px;">:유전물질(DNA) 보호</tspan></text>
    <text x="23" y="268">Bacteria<tspan dx="-55" dy="1.5em" style="font-size:10px">(박테리아, 세균)</tspan></text>
    <text x="122" y="268">Archaea<tspan dx="-48" dy="1.5em" style="font-size:10px">(고세균)</tspan></text>
    <text x="200" y="268">Plants<tspan dx="-34" dy="1.5em" style="font-size:10px">(식물)</tspan></text>
    <text x="253" y="268">Protist<tspan dx="-45" dy="1.5em" style="font-size:10px">(원생 생물)</tspan></text>
    <text x="331" y="268">Fungi<tspan dx="-48" dy="1.5em" style="font-size:10px">(균계, 곰팡이)</tspan></text>
    <text x="406" y="268">Animals<tspan dx="-42" dy="1.5em" style="font-size:10px">(동물)</tspan></text>
    <text x="170" y="163">Invertebrate<tspan dx="-68" dy="1.2em" style="font-size:10px">(무척추동물)</tspan></text>
    <text x="426" y="141">Vertebrate<tspan dx="-59" dy="1.2em" style="font-size:10px">(척추동물)</tspan></text>
    <text x="260" y="189" style="font-size: 10px;">Protostome<tspan dx="-38" dy="1em" style="font-size:10px">(선구)</tspan></text>
    <text x="350" y="189" style="font-size: 10px;">Deuterostome<tspan dx="-42" dy="1em" style="font-size:10px">(후구)</tspan></text>
    <g style="font-size:9px">
      <text x="260" y="143">절지</text>
      <text x="289" y="143">연체</text>
      <text x="313" y="143">자포<tspan style="font-size: 7px">(강장)</tspan></text>
      <text x="354" y="143">극피</text>
      <text x="380" y="143">환형</text>
      <text x="318" y="27">Mammals<tspan x="319" dy="1em">​(포유강)</tspan></text>
      <text x="366" y="30">Sauropsid<tspan x="359" dy="1em">​(조강&amp;파충강)</tspan></text>
      <text x="410" y="55">Amphibian<tspan x="415" dy="1em">​(양서강)</tspan></text>
      <text x="465" y="75">Fishes<tspan x="465" dy="1em">​(어류)</tspan></text>
    </g>
    <g style="font-size:7px">
      <text x="125" y="11">Homo sapiens<tspan x="125" dy="1.2em">​</tspan>(호모 사피엔스)</text>
      <text x="155" y="30">Homo<tspan x="155" dy="1.2em">​</tspan>(호모)</text>
      <text x="190" y="39">Hominidae<tspan x="195" dy="1.2em">​</tspan>(사람과)</text>
      <text x="267" y="45">Primates<tspan x="268" dy="1.2em">​</tspan>(영장류)</text>
      <text x="290" y="233">아메바</text>
    </g>
    <g style="font-size:7px;fill:#d00">
      <text x="58" y="471">-3800~3500M</text>
      <text x="90" y="434">-3420M</text>
      <text x="191" y="393">-1650M</text>
      <text x="237" y="363">-1600M</text>
      <text x="308" y="333">-1400M</text>
      <text x="386" y="322">-665M</text>
      <text x="423" y="175">-518M</text>
      <text x="410" y="114">-350M</text>
      <text x="396" y="85">-312M</text>
      <text x="342" y="100">-225~167M</text>
      <text x="268" y="71">-65.9M</text>
      <text x="198" y="66">-17M</text>
      <text x="143" y="57">-2.8M</text>
      <text x="99" y="28">-0.3M</text>
    </g>
  </g>  
</svg>