<svg version="1.1" xmlns="http://www.w3.org/2000/svg" xmlns:xlink="http://www.w3.org/1999/xlink" viewBox="-65 -105 152 228">
  <title>Vapor pressure chart</title>
  <desc>Log-lin chart of vapor pressure vs temperature for various liquids vectorised by CMG Lee based on
    http://commons.wikimedia.org/wiki/File:Vapor_Pressure_Chart.png .</desc>
  <defs>
    <pattern id="pattern_loglin" patternUnits="userSpaceOnUse" width="10" height="100">
      <path d="M 30.103,0 V 10 M 47.712,0 V 10 M 60.206,0 V 10 M 69.897,0 V 10
            M 77.815,0 V 10 M 84.510,0 V 10 M 90.309,0 V 10 M 95.424,0 V 10 M 0,0 V 10 H 100"
        transform="matrix(0,-1 1,0 0,100)" stroke-width="0.5" stroke="#999999" fill="none" />
    </pattern>
    <pattern id="pattern_loglin_5" patternUnits="userSpaceOnUse" width="50" height="100">
      <path d="M 0,0 H 50 V 100 H 0 Z M 0,30.103 H 50" stroke-width="0.5" stroke="#666666"
        fill="url(#pattern_loglin)" />
    </pattern>
    <circle id="point" cx="0" cy="0" r="1" fill="#000000" />
  </defs>
  <circle cx="0" cy="0" r="99999" fill="#ffffff" />
  <g font-family="Helvetica,Arial,sans-serif" font-size="10" text-anchor="middle" stroke="none" fill="none">
    <rect x="-30" y="-100" width="110" height="200" stroke="#666666" fill="url(#pattern_loglin_5)" />
    <path d="M -30,  8 Q 20,-68        47,-100" stroke="#0099ff" />
    <path d="M -30, 59 C  0,  5 11,-34 80,-100" stroke="#00ff00" />
    <path d="M -30, 73 Q 15,-23        80, -91" stroke="#008800" />
    <path d="M -17,100 C 30, -4 40,-12 80, -59" stroke="#ff0000" />
    <path d="M   5,100 Q 55,-13        80, -30" stroke="#993300" />
    <path d="M  26,100 Q 60, 35        80,   6" stroke="#999900" />
    <path d="M  37,100 Q 60, 57        80,  24" stroke="#ff9933" />
    <use xlink:href="#point" transform="translate(-25  ,0)" />
    <use xlink:href="#point" transform="translate(  1  ,0)" />
    <use xlink:href="#point" transform="translate( 10  ,0)" />
    <use xlink:href="#point" transform="translate( 33.5,0)" />
    <use xlink:href="#point" transform="translate( 55.5,0)" />
    <g fill="#000000" style="font-size:0.7em">
      <text transform="translate(-42,-100)" x="0" y="0.7ex">10</text>
      <text transform="translate(-42, -70)" x="0" y="0.7ex">5</text>
      <text transform="translate(-42,   0)" x="0" y="0.7ex">1</text>
      <text transform="translate(-42,  30)" x="0" y="0.7ex">0.5</text>
      <text transform="translate(-42, 100)" x="0" y="0.7ex">0.1</text>
      <text transform="translate(-30, 107)" x="0" y="0.7ex">-30</text>
      <text transform="translate(  0, 107)" x="0" y="0.7ex">0</text>
      <text transform="translate( 50, 107)" x="0" y="0.7ex">50</text>
      <text transform="translate( 80, 107)" x="0" y="0.7ex">80</text>
      <text transform="translate( 27, -6)" x="0" y="0.7ex">끓는 점</text>
      <text transform="translate( 25, 115)" x="0" y="0.7ex">온도, &#176;C</text>
      <text transform="translate(-52,   0) rotate(-90)" x="0" y="0.7ex">증기압</text>
      <text transform="translate( 10, -65) rotate(-55)" x="0" y="0.7ex">클로로메테인</text>
      <text transform="translate( 30, -55) rotate(-55)" x="0" y="0.7ex">부탄</text>
      <text transform="translate( 50, -45) rotate(-50)" x="0" y="0.7ex">네오-펜테인</text>
      <text transform="translate(-10,  65) rotate(-65)" x="0" y="0.7ex">다이에틸 에터</text>
      <text transform="translate( 12,  65) rotate(-65)" x="0" y="0.7ex">메틸 아세테이트</text>
      <text transform="translate( 35,  65) rotate(-60)" x="0" y="0.7ex">플루오로벤젠</text>
      <text transform="translate( 60,  70) rotate(-60)" x="0" y="0.7ex">2-Heptene</text>
    </g>
  </g>
  <!--
 <filter id="fe_grey"><feColorMatrix type="saturate" values="0"/></filter>
 <image xlink:href="http://upload.wikimedia.org/wikipedia/commons/9/96/Vapor_Pressure_Chart.png"
  transform="scale(0.45,0.75)" x="-110" y="-141" width="301" height="397"
  opacity="0.5" filter="url(#fe_grey)"/>
 <script type="text/ecmascript">
  /// SVG coordinate picker by CMG Lee (Dec 2015)
  /// based on http://stackoverflow.com/questions/2930625 and 610406
  function _r(p, c) { return p.replace(/~/, c); }
  function pickCoords(evt, doSave) {
   var pos = document.getElementsByTagName('svg')[0].createSVGPoint();
   pos.x = evt.pageX; pos.y = evt.pageY;
   var ctm = evt.target.getScreenCTM().inverse(), ROUND_TO = 1;
   if (ctm) { pos = pos.matrixTransform(ctm); }
   var x = Math.floor(pos.x / ROUND_TO + 0.5) * ROUND_TO,
       y = Math.floor(pos.y / ROUND_TO + 0.5) * ROUND_TO,
       log = [x,y, x,y].reduce(_r, '#~,~ x="~" y="~"');
   if (doSave) { location.href += log; } else { history.replaceState(null, '',
           location.href.substring(0, location.href.lastIndexOf("#")) + log); }
   document.getElementById('cursor'   ).setAttribute('transform',
    [pos.x,pos.y, ROUND_TO].reduce(_r,'translate(~,~) scale(~)'));
   document.getElementById('crosshair').setAttribute('transform',
    [    x,    y, ROUND_TO].reduce(_r,'translate(~,~) scale(~)'));
   pos = null;
  }
 </script>
 <path id="crosshair" d="M9999,0H-9999V9999H0V-9999H9999 M0.5,0.5H-0.5V-0.5H0.5
         M1,1H-1V-1H1" fill-rule="evenodd" fill-opacity="0.25" fill="#99cc00"/>
 <circle id="cursor" cx="0" cy="0" r="0.1" fill-opacity="0.75" fill="#669900"/>
 <circle cx="0" cy="0" r="99999" fill-opacity="0" style="cursor:none"
         onmousemove="pickCoords(evt)" onmouseup="pickCoords(evt, true)"/>
 -->
</svg>