<?xml version="1.0" encoding="utf-8"?>
<svg viewBox="0 0 500 300"
  xmlns="http://www.w3.org/2000/svg">
  <marker id="ah1" markerWidth="20" markerHeight="20" viewBox="0 0 20 10" orient="auto">
    <path d="M9 0L0 4 0 -4 9 0z"/>
  </marker>
  <ellipse style="fill:black" cx="50" cy="215" rx="15" ry="15" />
  <ellipse style="fill:black" cx="240" cy="215" rx="15" ry="15" />
  <ellipse style="fill:black" cx="271" cy="95" rx="15" ry="15" />
  <ellipse style="fill:black" cx="415" cy="72" rx="15" ry="15" />
  <g style="fill:none; stroke:black;stroke-dasharray:5 3;stroke-dashoffset:0">
    <path marker-end="url(#ah1)" d="M 57 241 h160 a10 10 0 0 1 0 20 h -152"/>
    <path marker-end="url(#ah1)" d="M 57 190 h160 a10 10 0 0 0 8.66 -5 l30 -51.96 a10 10 0 0 0 -17.32 -10 l-24.22 41.96 a10 10 0 0 1 -8.66 5 h -140"/>
    <path marker-end="url(#ah1)" d="M 298 80 h90 a10 10 0 0 1 0 20 h -82"/>
    <animate attributeName="stroke-dashoffset" values="0;-8" dur="1s" repeatCount="indefinite" />
  </g>
  <g style="fill:black;font-size:17px">
  <text x="14" y="186"> User </text>
  <text x="265" y="236"> Web Server </text>
  <text x="270" y="133"> interpreter </text>
  <text x="410" y="110"> DB Server </text>
  </g>
  <g style="fill:blue;font-size:15px">
  <text x="240" y="260"> .html </text>
  <text x="240" y="180"> .php .asp .jsp </text>
  <text x="315" y="68"> Query </text>
  </g>
</svg>