<?xml version="1.0" encoding="utf-8"?>
<svg viewBox="0 0 500 500"
  xmlns="http://www.w3.org/2000/svg"
  xmlns:bx="https://boxy-svg.com">
  <style>
    .gray-line{
        stroke:#aaa;
        stroke-dasharray: 1px;
    }
    .abstract{
        fill:#FEE;
    }
    .class{
        fill:#EFE;
    }
    .interface{
        fill:#EEF;
    }
  </style>
  <marker id="ah1" markerWidth="20" markerHeight="20" viewBox="0 0 20 10" orient="auto">
    <path d="M9 0L0 4 0 -4 9 0z"/>
  </marker>

  <g style="stroke: #FFF;">
    <path d="M0 50 h 500" />
    <path d="M0 150 h 500" />
    <path d="M0 250 h 500"/>
    <path d="M0 350 h 500"/>
    <path d="M0 450 h 500"/>
    <path d="M50  0 v 500" />
    <path d="M150 0 v 500" />
    <path d="M250 0 v 500"/>
    <path d="M350 0 v 500"/>
    <path d="M450 0 v 500"/>
  </g>
  <g style=" stroke: #FFF;">
    <path d="M1 100 h 500" />
    <path d="M0 200 h 500"/>
    <path d="M0 300 h 500"/>
    <path d="M0 400 h 500"/>
    <path d="M100 0 v 500" />
    <path d="M200 0 v 500"/>
    <path d="M300 0 v 500"/>
    <path d="M400 0 v 500"/>
  </g>
  <g style=" stroke: #000;fill:none;stroke-width:0.5px">
    <path d="M 25 405 v-30" marker-end="url(#ah1)"/>
    <path d="M 25 405 v-10 a 5 5 0 0 1 5 -5 h 15 a 5 5 0 0 0 5 -5 v-70 a 5 5 0 0 1 5 -5 h15 a 5 5 0 0 0 5 -5" class="gray-line"/>
    <path d="M 75 405 v-30" marker-end="url(#ah1)"/>
    <path d="M 75 405 v-10 a 5 5 0 0 1 5 -5 h 15 a 5 5 0 0 0 5 -5 v-80" class="gray-line"/>
    <path d="M 125 405 v-30" marker-end="url(#ah1)"/>
    <path d="M 175 405 v-30" marker-end="url(#ah1)"/>
    <path d="M 175 405 v-10 a 5 5 0 0 0 -5 -5 h-15 a 5 5 0 0 1 -5 -5 v-70 a 5 5 0 0 1 5 -5 h65 a 5 5 0 0 0 5 -5" class="gray-line"/>
    <path d="M 225 405 v-30" marker-end="url(#ah1)"/>
    <path d="M 225 405 v-10 a 5 5 0 0 0 -5 -5 h-15 a 5 5 0 0 1 -5 -5 v-65" class="gray-line"/>
    <path d="M 275 405 v-30" marker-end="url(#ah1)"/>
    <path d="M 375 405 v-10 a 5 5 0 0 0 -5 -5 h-40 a 5 5 0 0 1 -5 -5 v-10" marker-end="url(#ah1)"/>
    <path d="M 375 405 v-30" marker-end="url(#ah1)"/>
    <path d="M 375 405 v-10 a 5 5 0 0 1 5 -5 h15 a 5 5 0 0 0 5 -5 v-80" class="gray-line"/>
    <path d="M 425 405 v-30" marker-end="url(#ah1)"/>

    <path d="M 25 330 v-30" marker-end="url(#ah1)"/>
    <path d="M 75 330 v-30" marker-end="url(#ah1)"/>
    <path d="M 125 330 v-30" marker-end="url(#ah1)"/>
    <path d="M 125 330 v-15 a5 5 0 0 0 -5 -5 h-15 a 5 5 0 0 1 -5 -5 v-80"/>
    <path d="M 175 330 v-30" marker-end="url(#ah1)"/>
    <path d="M 225 330 v-30" marker-end="url(#ah1)"/>
    <path d="M 225 330 v-2 a 5 5 0 0 0 -5 -5 h-15 a 5 5 0 0 1 -5 -5 v-90" class="gray-line"/>
    <path d="M 275 330 v-80 a 5 5 0 0 0 -5 -5 h -15 a 5 5 0 0 1 -5 -5 v -15" marker-end="url(#ah1)"/>
    <path d="M 275 330 v-15 a 5 5 0 0 1 5 -5 h15 a 5 5 0 0 0 5 -5 v -155" marker-end="url(#ah1)"/>
    <path d="M 325 330 v-15 a 5 5 0 0 0 -5 -5 h-15 a 5 5 0 0 1 -5 -5"/>
    <path d="M 375 330 v-35 a 5 5 0 0 0 -5 -5 h-15 a 5 5 0 0 1 -5 -5 v -15" marker-end="url(#ah1)"/>
    <path d="M 375 330 v-15 a 5 5 0 0 1 5 -5 h15 a 5 5 0 0 0 5 -5 v -155" marker-end="url(#ah1)"/>
    <path d="M 425 330 v-35 a 5 5 0 0 0 -5 -5 h-50"/>
    <path d="M 425 330 v-15 a 5 5 0 0 0 -5 -5 h-15 a 5 5 0 0 1 -5 -5"/>
    <path d="M 475 330 v-35 a 5 5 0 0 0 -5 -5 h-50"/>
    <path d="M 475 330 v-15 a 5 5 0 0 0 -5 -5 h-50"/>

    <path d="M 370 245 h25 a 5 5 0 0 0 5 -5"/>
    <path d="M 330 245 h-60"/>

    <path d="M 25 255 v-20 a 5 5 0 0 1 5 -5 h 65 a 5 5 0 0 0 5 -5 v-75" marker-end="url(#ah1)"/>
    <path d="M 75 255 v-20 a 5 5 0 0 1 5 -5"/>
    <path d="M 175 255 v-20 a 5 5 0 0 1 5 -5 h15 a 5 5 0 0 0 5 -5 v-75" marker-end="url(#ah1)"/>
    <path d="M 225 255 v-20 a 5 5 0 0 0 -5 -5 h-15 a 5 5 0 0 1 -5 -5"/>
    <path d="M 225 255 v-5 a 5 5 0 0 1 5 -5 h15 a 5 5 0 0 0 5 -5"/>

    <path d="M 250 180 v-85 a 5 5 0 0 1 5 -5 h40 a 5 5 0 0 0 5 -5 v-10" marker-end="url(#ah1)"/>

    <path d="M 220 125 h15 a 5 5 0 0 1 5 5 v45" marker-end="url(#ah1)"/>

    <path d="M 300 105 v-20"/>
    <path d="M 400 105 v-10 a 5 5 0 0 0 -5 -5 h-90 a5 5 0 0 1 -5 -5"/>

    <path d="M 320 50 h55" marker-end="url(#ah1)"/>

  </g>
  <g style="stroke:none">
    <rect x="20" y="20" width="80" height="20" rx="5" ry="5" class="interface"/>
    <rect x="20" y="45" width="80" height="20" rx="5" ry="5" class="class"/>
    <rect x="20" y="70" width="80" height="20" rx="5" ry="5" class="abstract"/>
  </g>
  <g style="stroke:#888">
    <rect x="280" y="30" width="40" height="40" rx="5" ry="5" class="interface"/>
    <rect x="380" y="30" width="40" height="40" rx="5" ry="5" class="interface"/>

    <rect x="80" y="105" width="40" height="40" rx="5" ry="5" class="interface"/>
    <rect x="180" y="105" width="40" height="40" rx="5" ry="5" class="interface"/>
    <rect x="280" y="105" width="40" height="40" rx="5" ry="5" class="interface"/>
    <rect x="380" y="105" width="40" height="40" rx="5" ry="5" class="interface"/>

    <rect x="230" y="180" width="40" height="40" rx="5" ry="5" class="abstract"/>
    <rect x="330" y="225" width="40" height="40" rx="5" ry="5" class="abstract"/>

    <rect x="5" y="255" width="40" height="40" rx="5" ry="5" class="interface"/>
    <rect x="5" y="330" width="40" height="40" rx="5" ry="5" class="interface"/>
    <rect x="5" y="405" width="40" height="40" rx="5" ry="5" class="class"/>
    <rect x="55" y="255" width="40" height="40" rx="5" ry="5" class="abstract"/>
    <rect x="55" y="330" width="40" height="40" rx="5" ry="5" class="class"/>
    <rect x="55" y="405" width="40" height="40" rx="5" ry="5" class="class"/>
    <rect x="105" y="255" width="40" height="40" rx="5" ry="5" class="abstract"/>
    <rect x="105" y="330" width="40" height="40" rx="5" ry="5" class="class"/>
    <rect x="105" y="405" width="40" height="40" rx="5" ry="5" class="class"/>
    <rect x="155" y="255" width="40" height="40" rx="5" ry="5" class="interface"/>
    <rect x="155" y="330" width="40" height="40" rx="5" ry="5" class="interface"/>
    <rect x="155" y="405" width="40" height="40" rx="5" ry="5" class="class"/>
    <rect x="205" y="255" width="40" height="40" rx="5" ry="5" class="abstract"/>
    <rect x="205" y="330" width="40" height="40" rx="5" ry="5" class="class"/>
    <rect x="205" y="405" width="40" height="40" rx="5" ry="5" class="class"/>
    <rect x="255" y="330" width="40" height="40" rx="5" ry="5" class="abstract"/>
    <rect x="255" y="405" width="40" height="40" rx="5" ry="5" class="class"/>
    <rect x="305" y="330" width="40" height="40" rx="5" ry="5" class="interface"/>
    <rect x="355" y="330" width="40" height="40" rx="5" ry="5" class="abstract"/>
    <rect x="355" y="405" width="40" height="40" rx="5" ry="5" class="class"/>
    <rect x="405" y="405" width="40" height="40" rx="5" ry="5" class="class"/>
    <rect x="405" y="330" width="40" height="40" rx="5" ry="5" class="class"/>
    <rect x="455" y="330" width="40" height="40" rx="5" ry="5" class="class"/>
  </g>

  <g style="font-size:8;text-anchor:middle;dominant-baseline:middle">
    <text x="60" y="30">interface</text>
    <text x="60" y="55">class</text>
    <text x="60" y="80">abstract</text>

    <text x="300" y="50">Collection</text>
    <text x="400" y="50">Iterable</text>

    <text x="100" y="125">Map</text>
    <text x="200" y="125">Set</text>
    <text x="300" y="125">Queue</text>
    <text x="400" y="125">List</text>

    <text x="250" y="195">Abstract</text>
    <text x="250" y="205">Collection</text>
    <text x="350" y="240">Abstract</text>
    <text x="350" y="250">List</text>

    <text x="25" y="275">SortedMap</text>
    <text x="25" y="345">Navigable</text>
    <text x="25" y="355">Map</text>
    <text x="25" y="425">TreeMap</text>
    <text x="75" y="270">Abstract</text>
    <text x="75" y="280">Map</text>
    <text x="75" y="350">HashMap</text>
    <text x="75" y="420">Linked</text>
    <text x="75" y="430">HashMap</text>
    <text x="125" y="275">Dictionary</text>
    <text x="125" y="350">Hashtable</text>
    <text x="125" y="425">Properties</text>
    <text x="175" y="275">SortedSet</text>
    <text x="175" y="345">Navigable</text>
    <text x="175" y="355">Set</text>
    <text x="175" y="425">TreeSet</text>
    <text x="225" y="270">Abstract</text>
    <text x="225" y="280">Set</text>
    <text x="225" y="350">HashSet</text>
    <text x="225" y="420">Linked</text>
    <text x="225" y="430">HashSet</text>
    <text x="275" y="345">Abstract</text>
    <text x="275" y="355">Queue</text>
    <text x="275" y="420">Priority</text>
    <text x="275" y="430">Queue</text>
    <text x="325" y="350">Deque</text>
    <text x="375" y="341">Abstract</text>
    <text x="375" y="350">Sequential</text>
    <text x="375" y="359">List</text>
    <text x="375" y="425">LinkedList</text>
    <text x="425" y="425">Stack</text>
    <text x="425" y="350">Vector</text>
    <text x="475" y="350">Arralist</text>
  </g>
</svg>