<?xml version="1.0" encoding="utf-8"?>
<svg viewBox="0 0 630 410"
  xmlns="http://www.w3.org/2000/svg"
  xmlns:bx="https://boxy-svg.com">
  <marker id="ah1" markerWidth="20" markerHeight="20" viewBox="0 0 20 10" orient="auto">
    <path d="M0 4 L9 0 0 -4 1 0z" stroke="#bbb" fill="none"/>
  </marker>
  <marker id="ah2" markerWidth="20" markerHeight="20" viewBox="0 0 20 10" orient="auto">
    <path d="M5 3 L9 0 5 -3 1 0z" stroke="#bbb" fill="none"/>
  </marker>

  <g style="stroke:#888;fill:none">
    <rect x="100" y="10" width="80" height="20" rx="5" ry="5"/>
    <rect x="100" y="50" width="80" height="20" rx="5" ry="5"/>
    <rect x="100" y="90" width="80" height="20" rx="5" ry="5"/>
    <rect x="100" y="130" width="80" height="20" rx="5" ry="5"/>

    <rect x="200" y="90" width="80" height="20" rx="5" ry="5"/>

    <rect x="20" y="180" width="80" height="20" rx="5" ry="5"/>
    <rect x="20" y="205" width="80" height="20" rx="5" ry="5"/>
    <rect x="20" y="230" width="80" height="20" rx="5" ry="5"/>
    <rect x="20" y="255" width="80" height="20" rx="5" ry="5"/>
    <rect x="20" y="280" width="80" height="20" rx="5" ry="5"/>
    <rect x="20" y="305" width="80" height="20" rx="5" ry="5"/>
    <rect x="20" y="330" width="80" height="20" rx="5" ry="5"/>
    <rect x="20" y="355" width="80" height="20" rx="5" ry="5"/>
    <rect x="20" y="380" width="80" height="20" rx="5" ry="5"/>

    <rect x="120" y="180" width="80" height="20" rx="5" ry="5"/>
    <rect x="120" y="205" width="80" height="20" rx="5" ry="5"/>
    <rect x="120" y="230" width="80" height="20" rx="5" ry="5"/>
    <rect x="120" y="255" width="80" height="20" rx="5" ry="5"/>
    <rect x="120" y="280" width="80" height="20" rx="5" ry="5"/>
    <rect x="120" y="305" width="80" height="20" rx="5" ry="5"/>
    <rect x="120" y="330" width="80" height="20" rx="5" ry="5"/>
    <rect x="120" y="355" width="80" height="20" rx="5" ry="5"/>

    <rect x="220" y="180" width="80" height="20" rx="5" ry="5"/>
    <rect x="220" y="205" width="80" height="20" rx="5" ry="5"/>
    <rect x="220" y="230" width="80" height="20" rx="5" ry="5"/>
    <rect x="220" y="255" width="80" height="20" rx="5" ry="5"/>
    <rect x="220" y="280" width="80" height="20" rx="5" ry="5"/>

    <!-- jTextComponent -->
    <rect x="320" y="200" width="80" height="20" rx="5" ry="5"/>

    <rect x="425" y="175" width="80" height="20" rx="5" ry="5"/>
    <rect x="425" y="200" width="80" height="20" rx="5" ry="5"/>
    <rect x="425" y="225" width="80" height="20" rx="5" ry="5"/>

    <rect x="530" y="160" width="80" height="20" rx="5" ry="5"/>
    <rect x="530" y="185" width="80" height="20" rx="5" ry="5"/>

    <rect x="530" y="225" width="80" height="20" rx="5" ry="5"/>

    <!-- AbstractButton -->
    <rect x="320" y="300" width="80" height="20" rx="5" ry="5"/>

    <rect x="425" y="275" width="80" height="20" rx="5" ry="5"/>
    <rect x="425" y="300" width="80" height="20" rx="5" ry="5"/>
    <rect x="425" y="325" width="80" height="20" rx="5" ry="5"/>

    <rect x="530" y="260" width="80" height="20" rx="5" ry="5"/>
    <rect x="530" y="285" width="80" height="20" rx="5" ry="5"/>

    <rect x="530" y="325" width="80" height="20" rx="5" ry="5"/>
  </g>

  <g style="font-size:11;text-anchor:middle;dominant-baseline:middle">
    <text x="140" y="20">Object</text>
    <text x="140" y="60">Component</text>
    <text x="140" y="100">Container</text>
    <text x="140" y="140">JComponent</text>

    <text x="240" y="100">LayoutManager</text>

    <text x="60" y="190">JPanel</text>
    <text x="60" y="215">JScrollPane</text>
    <text x="60" y="240">JTabbedPane</text>
    <text x="60" y="265">JRootPane</text>
    <text x="60" y="290">JRootPane</text>
    <text x="60" y="315">JInternalFrame</text>
    <text x="60" y="340">JSplitPane</text>
    <text x="60" y="365">JLayeredPane</text>
    <text x="60" y="390">JOptionPane</text>

    <text x="160" y="190">JLabel</text>
    <text x="160" y="215">JComboBox</text>
    <text x="160" y="240">JMenuBar</text>
    <text x="160" y="265">JToolBar</text>
    <text x="160" y="290">JProgressBar</text>
    <text x="160" y="315">JSlider</text>
    <text x="160" y="340">JScrollBar</text>
    <text x="160" y="365">JPopupMenu</text>

    <text x="260" y="190">JFileChooser</text>
    <text x="260" y="215">JColorChooser</text>
    <text x="260" y="240">JTree</text>
    <text x="260" y="265">JTable</text>
    <text x="260" y="290">JList</text>

    <!-- jTextComponent -->
    <text x="360" y="210" style="font-size:10">jTextComponent</text>

    <text x="465" y="185">JtextField</text>
    <text x="465" y="210">JTextArea</text>
    <text x="465" y="236" style="font-size:10">JTextEditorPane</text>

    <text x="570" y="171" style="font-size:10">JPasswordField</text>
    <text x="570" y="196" style="font-size:8">JFormattedTextField</text>
    <text x="570" y="235">JTextPane</text>

    <!-- AbstractButton -->
    <text x="360" y="310">AbstractButton</text>

    <text x="465" y="285">JToggleButton</text>
    <text x="465" y="310">JButton</text>
    <text x="465" y="335">JMenuItem</text>

    <text x="570" y="270">JCheckBox</text>
    <text x="570" y="295">JRadioButton</text>
    <text x="570" y="335">JMenu</text>


  </g>
  <g style="stroke:#bbb;fill:none">
    <path d="M140 50 v-10" marker-end="url(#ah1)"/>
    <path d="M140 90 v-10" marker-end="url(#ah1)"/>
    <path d="M140 130 v-10" marker-end="url(#ah1)"/>

    <path d="M20 190 h-5 a5 5 0 0 1 -5 -5 v-10 a5 5 0 0 1 5 -5"/>
    <path d="M20 215 h-5 a5 5 0 0 1 -5 -5 v-25"/>
    <path d="M20 240 h-5 a5 5 0 0 1 -5 -5 v-25"/>
    <path d="M20 265 h-5 a5 5 0 0 1 -5 -5 v-25"/>
    <path d="M20 290 h-5 a5 5 0 0 1 -5 -5 v-25"/>
    <path d="M20 315 h-5 a5 5 0 0 1 -5 -5 v-25"/>
    <path d="M20 340 h-5 a5 5 0 0 1 -5 -5 v-25"/>
    <path d="M20 365 h-5 a5 5 0 0 1 -5 -5 v-25"/>
    <path d="M20 390 h-5 a5 5 0 0 1 -5 -5 v-25"/>

    <path d="M120 190 h-5 a5 5 0 0 1 -5 -5 v-10 a5 5 0 0 1 5 -5"/>
    <path d="M120 215 h-5 a5 5 0 0 1 -5 -5 v-25"/>
    <path d="M120 240 h-5 a5 5 0 0 1 -5 -5 v-25"/>
    <path d="M120 265 h-5 a5 5 0 0 1 -5 -5 v-25"/>
    <path d="M120 290 h-5 a5 5 0 0 1 -5 -5 v-25"/>
    <path d="M120 315 h-5 a5 5 0 0 1 -5 -5 v-25"/>
    <path d="M120 340 h-5 a5 5 0 0 1 -5 -5 v-25"/>
    <path d="M120 365 h-5 a5 5 0 0 1 -5 -5 v-25"/>

    <path d="M220 190 h-5 a5 5 0 0 1 -5 -5 v-10 a5 5 0 0 0 -5 -5"/>
    <path d="M220 215 h-5 a5 5 0 0 1 -5 -5 v-25"/>
    <path d="M220 240 h-5 a5 5 0 0 1 -5 -5 v-25"/>
    <path d="M220 265 h-5 a5 5 0 0 1 -5 -5 v-25"/>
    <path d="M220 290 h-5 a5 5 0 0 1 -5 -5 v-25"/>

    <!-- jTextComponent -->
    <path d="M320 210 h-5 a5 5 0 0 1 -5 -5 v-30 a5 5 0 0 0 -5 -5"/>

    <path d="M425 185 a5 5 0 0 0 -5 5 v15 a5 5 0 0 1 -5 5" />
    <path d="M425 210 h-15" marker-end="url(#ah1)"/>
    <path d="M425 235 a5 5 0 0 1 -5 -5 v-15 a5 5 0 0 0 -5 -5" />

    <path d="M530 170 a5 5 0 0 0 -5 5 v5 a5 5 0 0 1 -5 5 h-5" marker-end="url(#ah1)"/>
    <path d="M530 195 a5 5 0 0 1 -5 -5 a5 5 0 0 0 -5 -5" />
    <path d="M530 235 h-15" marker-end="url(#ah1)"/>

    <!-- AbstractButton -->
    <path d="M320 310 h-5 a5 5 0 0 1 -5 -5 v-100"/>

    <path d="M425 285 a5 5 0 0 0 -5 5 v15 a5 5 0 0 1 -5 5" />
    <path d="M425 310 h-15" marker-end="url(#ah1)"/>
    <path d="M425 335 a5 5 0 0 1 -5 -5 v-15 a5 5 0 0 0 -5 -5" />

    <path d="M530 270 a5 5 0 0 0 -5 5 v5 a5 5 0 0 1 -5 5 h-5" marker-end="url(#ah1)"/>
    <path d="M530 295 a5 5 0 0 1 -5 -5 a5 5 0 0 0 -5 -5" />
    <path d="M530 335 h-15" marker-end="url(#ah1)"/>


    <path d="M200 100 h-10" marker-end="url(#ah2)"/>

    <!-- LayoutManager -->
    <path d="M100 60 h-10 a 10 10 0 0 0 -10 10 v20 a 10 10 0 0 0 10 10" marker-end="url(#ah2)"/>
    <!-- Component to Container -->

    <!-- to JComponent -->
    <path d="M15 170 h120 a5 5 0 0 0 5 -5 v-5" marker-end="url(#ah1)"/>
    <path d="M140 165 a5 5 0 0 0 5 5 h160"/>
  </g>
  <g style="font-size:10;text-anchor:middle;dominant-baseline:middle;" fill="red">
    <text x="193" y="93">1</text>
  </g>
</svg>