<svg xmlns="http://www.w3.org/2000/svg" width="500" height="500">
  <!-- TODO : add your code -->
  <path style="fill:black;stroke-width:1px" d="M433,67c-24-24-57-38-92-38s-67,13-92,38l-12,12l-13-13
    c-24-24-57-38-92-38c-34,0-67,13-92,38c-24,24-38,57-38,92c0,34,13,67,38,92
    
    C471,124,458,91,433,67z M414,232l-178,178l-178-178c-19-19-30-45-30-73
    s10-53,30-73c19-19,45-30,73-30c27,0,53,10,73,30l22,22c5,5,13,5,19,0l22-22
    c19-19,45-30,73-30c27,0,53,10,73,30c19,19,30,45,30,73
    C444,187,434,213,414,232z "/>
    <!--l187,187c2,2,6,4,9,4c3,0,6-1,9-3l188-187c24-24,38-57,38-92-->
    <text dx="100" dy="100" style="font-size:30px;">안녕하세요. 테스트 글자입니다.</text>
</svg>