<svg width="600" viewBox="-300 -300 600 600"
  xmlns="http://www.w3.org/2000/svg"
  xmlns:xlink="http://www.w3.org/1999/xlink">
  <link rel="stylesheet" href="style8.css" type="text/css">
  </link>

  <title>SVG demonstration</title>
  <desc>Mozilla CSS Getting Started - SVG demonstration</desc>

  <defs>
    <radialgradient id="fade" cx="0" cy="0" r="200" gradientUnits="userSpaceOnUse">
      <stop id="fade-stop-1" offset="33%"></stop>
      <stop id="fade-stop-2" offset="95%"></stop>
    </radialgradient>
  </defs>

  <text id="heading" x="-280" y="-270">SVG demonstration</text>
  <text id="caption" x="-280" y="-250">
      Move your mouse pointer over the flower.
  </text>

  <g id="flower">
    <circle id="overlay" cx="0" cy="0" r="200" stroke="none" fill="url(#fade)"></circle>

    <g id="outer-petals">
      <g class="segment">
        <path class="segment-fill" d="M0,0 v-200 a40,40 0 0,0 -62,10 z"></path>
        <path class="segment-edge" d="M0,-200 a40,40 0 0,0 -62,10"></path>
      </g>
      <g class="segment" transform="rotate(18)">
        <path class="segment-fill" d="M0,0 v-200 a40,40 0 0,0 -62,10 z"></path>
        <path class="segment-edge" d="M0,-200 a40,40 0 0,0 -62,10"></path>
      </g>
      <g class="segment" transform="rotate(36)">
        <path class="segment-fill" d="M0,0 v-200 a40,40 0 0,0 -62,10 z"></path>
        <path class="segment-edge" d="M0,-200 a40,40 0 0,0 -62,10"></path>
      </g>
      <g class="segment" transform="rotate(54)">
        <path class="segment-fill" d="M0,0 v-200 a40,40 0 0,0 -62,10 z"></path>
        <path class="segment-edge" d="M0,-200 a40,40 0 0,0 -62,10"></path>
      </g>
      <g class="segment" transform="rotate(72)">
        <path class="segment-fill" d="M0,0 v-200 a40,40 0 0,0 -62,10 z"></path>
        <path class="segment-edge" d="M0,-200 a40,40 0 0,0 -62,10"></path>
      </g>
      <g class="segment" transform="rotate(90)">
        <path class="segment-fill" d="M0,0 v-200 a40,40 0 0,0 -62,10 z"></path>
        <path class="segment-edge" d="M0,-200 a40,40 0 0,0 -62,10"></path>
      </g>
      <g class="segment" transform="rotate(108)">
        <path class="segment-fill" d="M0,0 v-200 a40,40 0 0,0 -62,10 z"></path>
        <path class="segment-edge" d="M0,-200 a40,40 0 0,0 -62,10"></path>
      </g>
      <g class="segment" transform="rotate(126)">
        <path class="segment-fill" d="M0,0 v-200 a40,40 0 0,0 -62,10 z"></path>
        <path class="segment-edge" d="M0,-200 a40,40 0 0,0 -62,10"></path>
      </g>
      <g class="segment" transform="rotate(144)">
        <path class="segment-fill" d="M0,0 v-200 a40,40 0 0,0 -62,10 z"></path>
        <path class="segment-edge" d="M0,-200 a40,40 0 0,0 -62,10"></path>
      </g>
      <g class="segment" transform="rotate(162)">
        <path class="segment-fill" d="M0,0 v-200 a40,40 0 0,0 -62,10 z"></path>
        <path class="segment-edge" d="M0,-200 a40,40 0 0,0 -62,10"></path>
      </g>
      <g class="segment" transform="rotate(180)">
        <path class="segment-fill" d="M0,0 v-200 a40,40 0 0,0 -62,10 z"></path>
        <path class="segment-edge" d="M0,-200 a40,40 0 0,0 -62,10"></path>
      </g>
      <g class="segment" transform="rotate(198)">
        <path class="segment-fill" d="M0,0 v-200 a40,40 0 0,0 -62,10 z"></path>
        <path class="segment-edge" d="M0,-200 a40,40 0 0,0 -62,10"></path>
      </g>
      <g class="segment" transform="rotate(216)">
        <path class="segment-fill" d="M0,0 v-200 a40,40 0 0,0 -62,10 z"></path>
        <path class="segment-edge" d="M0,-200 a40,40 0 0,0 -62,10"></path>
      </g>
      <g class="segment" transform="rotate(234)">
        <path class="segment-fill" d="M0,0 v-200 a40,40 0 0,0 -62,10 z"></path>
        <path class="segment-edge" d="M0,-200 a40,40 0 0,0 -62,10"></path>
      </g>
      <g class="segment" transform="rotate(252)">
        <path class="segment-fill" d="M0,0 v-200 a40,40 0 0,0 -62,10 z"></path>
        <path class="segment-edge" d="M0,-200 a40,40 0 0,0 -62,10"></path>
      </g>
      <g class="segment" transform="rotate(270)">
        <path class="segment-fill" d="M0,0 v-200 a40,40 0 0,0 -62,10 z"></path>
        <path class="segment-edge" d="M0,-200 a40,40 0 0,0 -62,10"></path>
      </g>
      <g class="segment" transform="rotate(288)">
        <path class="segment-fill" d="M0,0 v-200 a40,40 0 0,0 -62,10 z"></path>
        <path class="segment-edge" d="M0,-200 a40,40 0 0,0 -62,10"></path>
      </g>
      <g class="segment" transform="rotate(306)">
        <path class="segment-fill" d="M0,0 v-200 a40,40 0 0,0 -62,10 z"></path>
        <path class="segment-edge" d="M0,-200 a40,40 0 0,0 -62,10"></path>
      </g>
      <g class="segment" transform="rotate(324)">
        <path class="segment-fill" d="M0,0 v-200 a40,40 0 0,0 -62,10 z"></path>
        <path class="segment-edge" d="M0,-200 a40,40 0 0,0 -62,10"></path>
      </g>
      <g class="segment" transform="rotate(342)">
        <path class="segment-fill" d="M0,0 v-200 a40,40 0 0,0 -62,10 z"></path>
        <path class="segment-edge" d="M0,-200 a40,40 0 0,0 -62,10"></path>
      </g>
    </g>
  </g>

  <g id="inner-petals" transform="rotate(9) scale(0.33)">
    <g class="segment">
      <path class="segment-fill" d="M0,0 v-200 a40,40 0 0,0 -62,10 z"></path>
      <path class="segment-edge" d="M0,-200 a40,40 0 0,0 -62,10"></path>
    </g>
    <g class="segment" transform="rotate(18)">
      <path class="segment-fill" d="M0,0 v-200 a40,40 0 0,0 -62,10 z"></path>
      <path class="segment-edge" d="M0,-200 a40,40 0 0,0 -62,10"></path>
    </g>
    <g class="segment" transform="rotate(36)">
      <path class="segment-fill" d="M0,0 v-200 a40,40 0 0,0 -62,10 z"></path>
      <path class="segment-edge" d="M0,-200 a40,40 0 0,0 -62,10"></path>
    </g>
    <g class="segment" transform="rotate(54)">
      <path class="segment-fill" d="M0,0 v-200 a40,40 0 0,0 -62,10 z"></path>
      <path class="segment-edge" d="M0,-200 a40,40 0 0,0 -62,10"></path>
    </g>
    <g class="segment" transform="rotate(72)">
      <path class="segment-fill" d="M0,0 v-200 a40,40 0 0,0 -62,10 z"></path>
      <path class="segment-edge" d="M0,-200 a40,40 0 0,0 -62,10"></path>
    </g>
    <g class="segment" transform="rotate(90)">
      <path class="segment-fill" d="M0,0 v-200 a40,40 0 0,0 -62,10 z"></path>
      <path class="segment-edge" d="M0,-200 a40,40 0 0,0 -62,10"></path>
    </g>
    <g class="segment" transform="rotate(108)">
      <path class="segment-fill" d="M0,0 v-200 a40,40 0 0,0 -62,10 z"></path>
      <path class="segment-edge" d="M0,-200 a40,40 0 0,0 -62,10"></path>
    </g>
    <g class="segment" transform="rotate(126)">
      <path class="segment-fill" d="M0,0 v-200 a40,40 0 0,0 -62,10 z"></path>
      <path class="segment-edge" d="M0,-200 a40,40 0 0,0 -62,10"></path>
    </g>
    <g class="segment" transform="rotate(144)">
      <path class="segment-fill" d="M0,0 v-200 a40,40 0 0,0 -62,10 z"></path>
      <path class="segment-edge" d="M0,-200 a40,40 0 0,0 -62,10"></path>
    </g>
    <g class="segment" transform="rotate(162)">
      <path class="segment-fill" d="M0,0 v-200 a40,40 0 0,0 -62,10 z"></path>
      <path class="segment-edge" d="M0,-200 a40,40 0 0,0 -62,10"></path>
    </g>
    <g class="segment" transform="rotate(180)">
      <path class="segment-fill" d="M0,0 v-200 a40,40 0 0,0 -62,10 z"></path>
      <path class="segment-edge" d="M0,-200 a40,40 0 0,0 -62,10"></path>
    </g>
    <g class="segment" transform="rotate(198)">
      <path class="segment-fill" d="M0,0 v-200 a40,40 0 0,0 -62,10 z"></path>
      <path class="segment-edge" d="M0,-200 a40,40 0 0,0 -62,10"></path>
    </g>
    <g class="segment" transform="rotate(216)">
      <path class="segment-fill" d="M0,0 v-200 a40,40 0 0,0 -62,10 z"></path>
      <path class="segment-edge" d="M0,-200 a40,40 0 0,0 -62,10"></path>
    </g>
    <g class="segment" transform="rotate(234)">
      <path class="segment-fill" d="M0,0 v-200 a40,40 0 0,0 -62,10 z"></path>
      <path class="segment-edge" d="M0,-200 a40,40 0 0,0 -62,10"></path>
    </g>
    <g class="segment" transform="rotate(252)">
      <path class="segment-fill" d="M0,0 v-200 a40,40 0 0,0 -62,10 z"></path>
      <path class="segment-edge" d="M0,-200 a40,40 0 0,0 -62,10"></path>
    </g>
    <g class="segment" transform="rotate(270)">
      <path class="segment-fill" d="M0,0 v-200 a40,40 0 0,0 -62,10 z"></path>
      <path class="segment-edge" d="M0,-200 a40,40 0 0,0 -62,10"></path>
    </g>
    <g class="segment" transform="rotate(288)">
      <path class="segment-fill" d="M0,0 v-200 a40,40 0 0,0 -62,10 z"></path>
      <path class="segment-edge" d="M0,-200 a40,40 0 0,0 -62,10"></path>
    </g>
    <g class="segment" transform="rotate(306)">
      <path class="segment-fill" d="M0,0 v-200 a40,40 0 0,0 -62,10 z"></path>
      <path class="segment-edge" d="M0,-200 a40,40 0 0,0 -62,10"></path>
    </g>
    <g class="segment" transform="rotate(324)">
      <path class="segment-fill" d="M0,0 v-200 a40,40 0 0,0 -62,10 z"></path>
      <path class="segment-edge" d="M0,-200 a40,40 0 0,0 -62,10"></path>
    </g>
    <g class="segment" transform="rotate(342)">
      <path class="segment-fill" d="M0,0 v-200 a40,40 0 0,0 -62,10 z"></path>
      <path class="segment-edge" d="M0,-200 a40,40 0 0,0 -62,10"></path>
    </g>
  </g>
  <style>
      /*** SVG demonstration ***/
  
      /* page */
      svg {
        background-color: beige;
      }
  
      #heading {
        font-size: 24px;
        font-weight: bold;
      }
  
      #caption {
        font-size: 12px;
      }
  
      /* flower */
      #flower:hover {
        cursor: crosshair;
      }
  
      /* gradient */
      #fade-stop-1 {
        stop-color: blue;
      }
  
      #fade-stop-2 {
        stop-color: white;
      }
  
      /* petals */
      .segment-fill {
        fill: var(--segment-fill-fill);
        stroke: var(--segment-fill-stroke);
        stroke-width: var(--segment-fill-stroke-width);
      }
  
      .segment-fill:hover {
        fill: var(--segment-fill-fill-hover);
        stroke: var(--segment-fill-stroke-hover);
      }
  
      .segment-edge {
        fill: var(--segment-edge-fill);
        stroke: var(--segment-edge-stroke);
        stroke-width: var(--segment-edge-stroke-width);
      }
  
      .segment-edge:hover {
        stroke: var(--segment-edge-stroke-hover);
      }
  
      /* outer petals */
      #outer-petals {
        opacity: 0.75;
        --segment-fill-fill: azure;
        --segment-fill-stroke: lightsteelblue;
        --segment-fill-stroke-width: 1;
        --segment-edge-fill: none;
        --segment-edge-stroke: deepskyblue;
        --segment-edge-stroke-width: 3;
        --segment-fill-fill-hover: plum;
        --segment-fill-stroke-hover: none;
        --segment-edge-stroke-hover: slateblue;
      }
  
      #outer-petals .segment-fill {
        fill: azure;
        stroke: lightsteelblue;
        stroke-width: 1;
      }
  
      #outer-petals .segment-edge {
        fill: none;
        stroke: deepskyblue;
        stroke-width: 3;
      }
  
      #outer-petals .segment:hover>.segment-fill {
        fill: plum;
        stroke: none;
      }
  
      #outer-petals .segment:hover>.segment-edge {
        stroke: slateblue;
      }
  
      /* inner petals */
      #inner-petals {
        --segment-fill-fill: yellow;
        --segment-fill-stroke: yellow;
        --segment-fill-stroke-width: 1;
        --segment-edge-fill: none;
        --segment-edge-stroke: yellowgreen;
        --segment-edge-stroke-width: 9;
        --segment-fill-fill-hover: darkseagreen;
        --segment-fill-stroke-hover: none;
        --segment-edge-stroke-hover: green;
      }
  
      #inner-petals .segment-fill {
        fill: yellow;
        stroke: yellow;
        stroke-width: 1;
      }
  
      #inner-petals .segment-edge {
        fill: none;
        stroke: yellowgreen;
        stroke-width: 9;
      }
  
      #inner-petals .segment:hover>.segment-fill {
        fill: darkseagreen;
        stroke: none;
      }
  
      #inner-petals .segment:hover>.segment-edge {
        stroke: green;
      }
  </style>
</svg>